<?xml version="1.0" encoding="UTF-8" standalone="no"?>
<!-- Created with Inkscape (http://www.inkscape.org/) -->

<svg
   xmlns:svg="http://www.w3.org/2000/svg"
   xmlns="http://www.w3.org/2000/svg"
   version="1.1"
   width="292.76999"
   height="278.10999"
   id="svg2">
  <defs
     id="defs4" />
  <text
     x="110.2084"
     y="175.116"
     id="text2824"
     xml:space="preserve"
     style="font-size:10px;font-style:normal;font-variant:normal;font-weight:bold;font-stretch:normal;text-align:start;line-height:100%;writing-mode:lr-tb;text-anchor:start;fill:#000000;fill-opacity:1;stroke:none;font-family:Liberation Sans;-inkscape-font-specification:Liberation Sans Bold"><tspan
       x="110.2084"
       y="175.116"
       id="tspan3350" /></text>
  <g
     transform="matrix(2,0,0,2,15.08647,-1620.5221)"
     id="g3608"
     style="font-size:10px;font-style:normal;font-variant:normal;font-weight:normal;font-stretch:normal;text-align:start;line-height:100%;writing-mode:lr-tb;text-anchor:start;fill:#000000;fill-opacity:1;stroke:none;font-family:Nimbus Sans L;-inkscape-font-specification:Nimbus Sans L">
    <path
       d="m 15.58859,832.2643 c -5.02673,0 -8.50936,0.575 -10.4479,1.7244 -1.93857,1.1497 -2.90785,3.1107 -2.90783,5.8833 -2e-5,2.2091 0.7213,3.9673 2.16397,5.2747 1.46517,1.2848 3.44881,1.9273 5.9509,1.9273 3.44881,0 6.21011,-1.2172 8.28394,-3.6518 2.09631,-2.4569 3.14448,-5.7142 3.14452,-9.7716 l 0,-1.3863 -6.1876,0 m 12.409,-2.5697 0,21.6059 -6.2214,0 0,-5.7481 c -1.42014,2.2992 -3.18963,4.0011 -5.30849,5.1056 -2.1189,1.082 -4.71115,1.623 -7.77675,1.623 -3.87713,0 -6.96528,-1.082 -9.26448,-3.246 -2.27668,-2.1865 -3.41502,-5.1055 -3.41502,-8.7573 0,-4.2602 1.4201,-7.4724 4.26031,-9.6364 2.86274,-2.1639 7.12304,-3.2459 12.78093,-3.2459 l 8.7235,0 0,-0.609 c -4e-5,-2.8627 -0.9468,-5.0718 -2.84021,-6.6271 -1.87096,-1.5779 -4.50829,-2.3668 -7.91201,-2.3669 -2.16398,10e-5 -4.27159,0.259 -6.32284,0.778 -2.05127,0.519 -4.02363,1.2961 -5.91709,2.333 l 0,-5.748 c 2.27666,-0.879 4.48571,-1.5328 6.62714,-1.9611 2.14142,-0.451 4.22648,-0.676 6.25522,-0.677 5.47752,10e-5 9.56876,1.4202 12.27376,4.2604 2.70492,2.8402 4.0574,7.1456 4.05743,12.9161"
       id="path2945"
       style="font-size:10px;font-style:normal;font-variant:normal;font-weight:normal;font-stretch:normal;text-align:start;line-height:100%;writing-mode:lr-tb;text-anchor:start;font-family:DejaVu Sans;-inkscape-font-specification:DejaVu Sans" />
    <path
       d="m 118.99912,839.4164 0,-7.9738 -8.39918,0 c -3.23682,0 -5.64671,0.697 -7.22966,2.0909 -1.58298,1.3939 -2.37446,3.5321 -2.37445,6.4145 -1e-5,2.6226 0.8033,4.7017 2.40988,6.2374 1.60659,1.5357 3.78021,2.3036 6.52089,2.3036 2.71701,0 4.90244,-0.839 6.55631,-2.5162 1.67745,-1.6775 2.51618,-3.863 2.51621,-6.5564 m 6.52088,-11.695 0,19.7753 5.81209,0 0,3.7566 -12.33297,0 0,-4.0756 c -1.44124,1.7484 -3.10689,3.036 -4.99698,3.8629 -1.89013,0.827 -4.09919,1.2404 -6.6272,1.2404 -4.18187,0 -7.50138,-1.1105 -9.95851,-3.3313 -2.45714,-2.2209 -3.68572,-5.2214 -3.68571,-9.0017 -1e-5,-3.8983 1.40576,-6.9225 4.2173,-9.0725 2.81153,-2.15 6.78076,-3.225 11.90769,-3.225 l 9.14341,0 0,-2.5871 c -3e-5,-2.8588 -0.8742,-5.0678 -2.62252,-6.6272 -1.72476,-1.5829 -4.15827,-2.3744 -7.30056,-2.3744 -2.59891,0 -4.66622,0.591 -6.20192,1.772 -1.53572,1.1813 -2.49259,2.9297 -2.8706,5.245 l -3.36676,0 0,-7.6195 c 2.26812,-0.969 4.46537,-1.6892 6.59176,-2.1618 2.14998,-0.496 4.24092,-0.744 6.2728,-0.744 5.2214,0 9.19063,1.2995 11.90769,3.8983 2.74063,2.5753 4.11096,6.3319 4.11099,11.2698"
       id="path2947"
       style="font-size:10px;font-style:normal;font-variant:normal;font-weight:normal;font-stretch:normal;text-align:start;line-height:100%;writing-mode:lr-tb;text-anchor:start;font-family:DejaVu Serif;-inkscape-font-specification:DejaVu Serif" />
    <path
       d="m 73.44858,848.9309 -0.2875,0.07 c -0.575,0.144 -1.2937,0.216 -1.58119,0.216 -1.00617,0 -1.58119,-0.647 -1.58119,-1.9406 0,-1.078 0.3593,-3.7373 0.9343,-6.3247 l 3.378,-16.9619 c 0.3593,-1.7967 0.575,-3.5936 0.575,-4.6716 0,-4.4561 -3.09051,-6.7561 -9.12777,-6.7561 -4.16859,0 -7.61847,0.934 -11.71519,3.2343 l -1.22183,6.1091 4.81544,0 0.072,-0.647 c 0.6468,-3.8811 3.01864,-6.0373 6.54037,-6.0373 2.5874,0 3.95298,1.0782 3.95298,3.0905 0,1.006 -0.2875,3.0905 -0.8624,5.9654 l -0.9343,4.7436 -1.43745,0 c -11.93079,0 -19.33365,5.9654 -19.33365,15.6681 0,5.103 2.51553,7.6904 7.61846,7.6904 4.16859,0 7.47473,-1.7968 11.28395,-6.1091 0.072,4.2404 1.43745,6.1091 4.45609,6.1091 0.8624,0 2.01242,-0.216 4.09672,-0.863 l 0.3593,-2.5875 M 63.0991,845.5507 c -2.51552,1.9404 -4.16859,2.6592 -5.96539,2.6592 -2.51553,0 -3.80923,-1.5093 -3.80923,-4.5998 0,-7.5467 4.31234,-12.4339 10.99646,-12.4339 l 1.65306,0 -2.8749,14.3745"
       id="path2949"
       style="font-size:10px;font-style:oblique;font-variant:normal;font-weight:normal;font-stretch:normal;text-align:start;line-height:100%;writing-mode:lr-tb;text-anchor:start;font-family:Luxi Serif;-inkscape-font-specification:Luxi Serif Oblique" />
    <path
       d="m 25.70181,895.4134 0,-15.9952 c -5e-5,-0.609 -0.3049,-0.913 -0.914,-0.913 -0.061,0 -0.122,0 -0.1828,0 L 0.56637,882.801 c -1.03591,0.183 -1.55386,0.793 -1.55384,1.8279 l 0,10.7855 c -2e-5,0.609 0.3047,0.913 0.914,0.913 l 24.86126,0 c 0.6091,0 0.914,-0.306 0.914,-0.913 m 4.02166,4.9357 -32.72181,0 c -1.34058,0 -2.01086,-0.67 -2.01085,-2.0109 l 0,-13.7103 c -10e-6,-3.2904 1.70616,-5.2403 5.11851,-5.8496 l 24.86127,-4.3872 c 0.4874,-0.06 0.7311,-0.366 0.7311,-0.913 l 0,-7.4951 c -4e-5,-0.244 -0.1524,-0.548 -0.457,-0.913 -0.3047,-0.427 -0.6093,-0.64 -0.914,-0.64 l -24.40425,0 c -0.6093,10e-5 -0.9141,0.306 -0.914,0.913 l 0,3.7475 c -4e-5,1.3406 -0.6704,2.0109 -2.01085,2.0109 -1.34058,0 -2.01085,-0.67 -2.01084,-2.0109 l 0,-6.6723 c -1e-5,-1.3405 0.6701,-2.0107 2.01084,-2.0108 l 27.60331,0 c 1.40146,10e-5 2.58968,0.609 3.56467,1.828 1.03584,1.1578 1.55378,2.407 1.55384,3.7475 l 0,34.367"
       id="path2951"
       style="font-size:10px;font-style:normal;font-variant:normal;font-weight:normal;font-stretch:normal;text-align:start;line-height:100%;writing-mode:lr-tb;text-anchor:start;font-family:Larabiefont;-inkscape-font-specification:Larabiefont" />
    <path
       d="m 78.84033,893.7949 c -1.43739,1.1837 -2.45202,1.6065 -3.7203,1.6065 -1.9447,0 -2.53657,-1.1838 -2.53657,-4.9041 l 0,-16.4876 c 0,-4.3968 -0.4228,-6.8488 -1.69104,-8.878 -1.86015,-3.0439 -5.4959,-4.6504 -10.48447,-4.6504 -7.9479,0 -14.20477,4.1431 -14.20477,9.4698 0,1.9447 1.69105,3.6358 3.63575,3.6358 2.02925,0 3.80484,-1.6911 3.80484,-3.5512 0,-0.338 -0.085,-0.761 -0.1691,-1.3528 -0.1691,-0.761 -0.2537,-1.4374 -0.2537,-2.0293 0,-2.2829 2.70567,-4.143 6.08776,-4.143 4.14306,0 6.42597,2.452 6.42597,7.0178 l 0,5.1577 c -13.02102,5.2422 -14.45843,5.9186 -18.09417,9.1316 -1.86015,1.691 -3.04388,4.5658 -3.04388,7.356 0,5.3268 3.7203,9.0471 8.87798,9.0471 3.7203,0 7.18694,-1.7756 12.34462,-6.1723 0.4228,4.3967 1.9447,6.1723 5.41134,6.1723 2.87477,0 4.65037,-1.0146 7.6097,-4.2276 l 0,-2.1983 M 65.7347,888.9754 c 0,2.6211 -0.4228,3.3821 -2.19836,4.3967 -2.02925,1.1837 -4.39671,1.9447 -6.17231,1.9447 -2.95933,0 -5.32679,-2.8748 -5.32679,-6.5105 l 0,-0.338 c 0,-4.9886 3.46665,-8.0325 13.69746,-11.7528 l 0,12.2601"
       id="path2953"
       style="font-size:10px;font-style:normal;font-variant:normal;font-weight:normal;font-stretch:normal;text-align:start;line-height:100%;writing-mode:lr-tb;text-anchor:start;font-family:Nimbus Roman No9 L;-inkscape-font-specification:Nimbus Roman No9 L" />
    <path
       d="m 117.06401,895.3029 c -3.66752,3.5283 -7.49748,5.2925 -11.48993,5.2925 -3.38896,0 -6.1976,-1.0446 -8.42595,-3.1336 -2.22836,-2.1124 -3.34252,-4.7701 -3.34252,-7.9734 0,-8.3563 6.69664,-12.5345 20.08996,-12.5345 l 1.7409,0 0,-4.6308 c -2e-5,-3.2728 -0.4179,-5.5011 -1.25345,-6.685 -0.8124,-1.1837 -2.33282,-1.7756 -4.56114,-1.7757 -4.64242,10e-5 -6.96361,1.5552 -6.9636,4.6656 l -0.07,2.1935 -0.035,0.662 -5.6057,0 0,-7.7295 c 4.41027,-2.0194 9.01784,-3.0292 13.82273,-3.0292 9.98113,0 14.9717,3.8648 14.97174,11.5944 l 0,16.7822 c -4e-5,2.9712 0.2088,5.0022 0.6267,6.0932 0.4409,1.0677 1.25342,1.6016 2.43726,1.6016 0.3481,0 0.7543,-0.07 1.21864,-0.209 l 0.4526,3.238 c -1.81056,0.581 -3.56306,0.87 -5.2575,0.87 -3.76037,0 -6.54582,-1.7641 -8.35632,-5.2923 m -1.42754,-2.5418 0,-12.6737 -1.35789,0 c -6.89397,0 -10.34095,2.7506 -10.34094,8.2519 -1e-5,4.5031 2.03103,6.7546 6.09314,6.7546 2.06585,0 3.93441,-0.777 5.60569,-2.3328"
       id="path2955"
       style="font-size:10px;font-style:normal;font-variant:normal;font-weight:bold;font-stretch:normal;text-align:start;line-height:100%;writing-mode:lr-tb;text-anchor:start;font-family:Lucida Bright;-inkscape-font-specification:Lucida Bright Bold" />
    <path
       d="m 30.7939,936.2602 c -3.25833,4.371 -4.45041,5.563 -5.72196,5.563 -0.5563,0 -0.9537,-0.477 -0.9537,-1.192 0,-1.9868 0.7947,-5.3246 2.70204,-11.7618 l 5.64248,-18.7553 -8.82135,0.556 -1.43048,4.6888 c -0.7152,-4.053 -2.46362,-5.7219 -5.8809,-5.7219 -9.77498,0 -21.69573,15.2585 -21.69573,27.6561 0,6.0398 3.41729,10.0929 8.58293,10.0929 4.84776,0 8.50346,-2.9405 13.03333,-10.4903 -0.8742,3.0994 -1.1126,4.212 -1.1126,5.3246 0,2.9405 2.38415,5.2451 5.32459,5.2451 3.73516,0 7.47033,-3.0994 12.00021,-10.0134 l -1.6689,-1.1921 M 17.44264,912.9748 c 1.74837,0.159 2.94044,1.5894 2.94044,3.7351 0,4.6888 -2.70203,13.6691 -5.72195,19.0732 -2.14573,3.8146 -4.52988,5.9604 -6.67561,5.9604 -2.06625,0 -3.57622,-1.8279 -3.57622,-4.2915 0,-4.1325 2.62257,-12.0797 5.8809,-17.9606 2.38414,-4.212 5.00671,-6.6756 7.15244,-6.5166"
       id="path3578"
       style="font-style:italic;font-variant:normal;font-weight:bold;font-stretch:normal;fill:#000000;font-family:Nimbus Roman No9 L;-inkscape-font-specification:Nimbus Roman No9 L Bold Italic" />
    <path
       d="m 137.01828,939.1665 c -2.13644,4.4795 -4.51404,6.7193 -7.13284,6.7193 -1.99859,0 -3.89378,-1.2405 -5.68559,-3.7215 -1.24051,-2.1364 -2.48101,-4.2383 -3.72149,-6.3058 -1.72292,1.1716 -4.30728,2.9634 -7.75307,5.3755 -3.17016,2.1364 -5.54777,3.2046 -7.13283,3.2046 -3.51474,0 -6.68489,-2.481 -9.51046,-7.443 -2.27423,-3.9971 -3.41135,-7.2362 -3.41135,-9.7172 0,-8.6145 4.78967,-12.9218 14.36905,-12.9218 1.24048,0 4.03158,0.62 8.37332,1.8608 2.27422,0.62 5.65112,1.5506 10.1307,2.7911 -0.2757,0.827 -0.4136,1.6884 -0.4136,2.5843 -3e-5,3.2391 1.24046,6.7538 3.72148,10.5442 2.48096,3.7215 5.20314,6.0646 8.16658,7.0295 m -18.60741,-16.0231 -7.95982,0 c -1.30944,0.62 -2.79113,1.9642 -4.44511,4.0316 -1.44725,1.7919 -2.5499,3.5148 -3.30798,5.1688 l 3.41137,3.5147 c 3.17012,-0.965 5.5822,-2.481 7.2362,-4.5485 0.069,-0.07 1.75734,-2.7911 5.06534,-8.1666"
       id="path3580"
       style="fill:#000000;font-family:Babelfish;-inkscape-font-specification:Babelfish" />
    <text
       x="-242.86981"
       y="853.6048"
       id="text3586"
       xml:space="preserve"
       style="font-size:100px;font-style:normal;font-variant:normal;font-weight:normal;font-stretch:normal;text-align:start;line-height:125%;writing-mode:lr-tb;text-anchor:start;fill:#000000;fill-opacity:1;stroke:none;font-family:Nimbus Sans L;-inkscape-font-specification:Nimbus Sans L"><tspan
         x="-242.86981"
         y="853.6048"
         id="tspan3588" /></text>
    <g
       transform="matrix(10,0,0,10,-592.43665,-7920.4113)"
       id="text3573"
       style="font-size:6.74696064px;font-style:normal;font-variant:normal;font-weight:normal;font-stretch:normal;text-align:start;line-height:125%;writing-mode:lr-tb;text-anchor:start;fill:#000000;fill-opacity:1;stroke:none;font-family:Nimbus Sans L;-inkscape-font-specification:Nimbus Sans L" />
  </g>
  <text
     x="94.995468"
     y="272.31555"
     id="text2836"
     xml:space="preserve"
     style="font-size:131.58851624px;font-style:normal;font-variant:normal;font-weight:normal;font-stretch:normal;text-align:start;line-height:125%;writing-mode:lr-tb;text-anchor:start;fill:#000000;fill-opacity:1;stroke:none;font-family:Nimbus Sans L;-inkscape-font-specification:Nimbus Sans L"><tspan
       x="94.995468"
       y="272.31555"
       id="tspan2838">ɑ</tspan></text>
</svg>
