<?xml version="1.0" encoding="UTF-8" standalone="no"?>
<svg xmlns:svg="http://www.w3.org/2000/svg" xmlns="http://www.w3.org/2000/svg" version="1.1" width="750" height="65">
  <path d="M 31.84375,18.015625 L 32.804688,14.476563 C 32.867186,14.007843 32.953123,13.707062 33.0625,13.574219 C 33.171873,13.441437 33.296873,13.375031 33.4375,13.375 C 33.718747,13.375031 34.039059,13.710968 34.398438,14.382813 C 34.664059,14.867217 34.882809,15.175811 35.054688,15.308594 C 35.226558,15.441435 35.476558,15.531279 35.804688,15.578125 L 36.039063,15.554688 L 37.046875,15.648438 L 42.578125,15.71875 L 49.117188,15.695313 L 51.039063,15.695313 L 54.671875,15.625 C 54.828101,15.625029 55.023413,15.640654 55.257813,15.671875 C 56.320287,15.765654 56.976537,15.812529 57.226563,15.8125 C 57.460911,15.812529 57.648411,15.734404 57.789063,15.578125 C 57.835911,15.515654 58.093723,14.984405 58.5625,13.984375 C 58.765597,13.531281 59.015597,13.304719 59.3125,13.304688 C 59.437472,13.304719 59.593721,13.335969 59.78125,13.398438 C 59.859346,13.710968 59.898409,13.992218 59.898438,14.242188 L 59.875,15.179688 L 59.898438,17.171875 C 59.898409,17.656277 59.859346,19.218775 59.78125,21.859375 C 59.781221,22.031272 59.749971,22.187522 59.6875,22.328125 C 59.515596,22.437522 59.367159,22.49221 59.242188,22.492188 C 59.117159,22.49221 59.007784,22.433616 58.914063,22.316406 C 58.820285,22.199241 58.703097,21.83596 58.5625,21.226563 C 58.249973,19.820337 57.859348,18.812526 57.390625,18.203125 C 57.078099,17.812527 56.628881,17.531277 56.042969,17.359375 C 55.457007,17.187527 54.054664,17.10159 51.835938,17.101563 C 50.054668,17.10159 48.734357,17.13284 47.875,17.195313 C 47.843733,17.820339 47.828108,18.390651 47.828125,18.90625 L 48.015625,33.460938 C 48.015608,34.039073 47.984358,35.132822 47.921875,36.742188 L 47.945313,39.859375 L 47.921875,41.59375 C 47.921858,42.140627 48.015608,42.531252 48.203125,42.765625 C 48.390608,43.000002 48.89842,43.226564 49.726563,43.445313 C 51.164042,43.804688 52.124979,44.023438 52.609375,44.101563 C 52.906228,44.132813 53.148415,44.195313 53.335938,44.289063 L 53.335938,44.992188 L 50.007813,44.898438 C 48.17967,44.882812 46.804672,44.84375 45.882813,44.78125 L 42.460938,44.945313 L 39.953125,45.085938 C 39.249992,45.085937 38.820305,45.070312 38.664063,45.039063 L 38.335938,44.898438 C 38.36718,44.539062 38.437493,44.308594 38.546875,44.207031 C 38.656242,44.105469 38.945305,44.023438 39.414063,43.960938 C 40.070303,43.867188 40.84374,43.69922 41.734375,43.457031 C 42.624988,43.214845 43.210925,42.968752 43.492188,42.71875 C 43.648425,42.578127 43.7578,42.343752 43.820313,42.015625 C 43.960925,41.328128 44.031237,39.976567 44.03125,37.960938 L 44.03125,33.976563 L 43.9375,25.28125 L 43.84375,23.40625 L 43.820313,17.148438 C 42.835926,17.03909 41.578114,16.984403 40.046875,16.984375 C 37.796868,16.984403 36.429682,17.125027 35.945313,17.40625 C 35.179683,17.843777 34.039059,19.125025 32.523438,21.25 C 32.023436,22.046897 31.585937,22.445335 31.210938,22.445313 L 31,22.398438 C 30.9375,22.30471 30.90625,22.218772 30.90625,22.140625 C 30.90625,21.953148 31.03125,21.390648 31.28125,20.453125 C 31.593749,19.250025 31.781249,18.437526 31.84375,18.015625 L 31.84375,18.015625 z M 61.421875,43.9375 C 63.249997,43.609376 64.304684,43.359376 64.585938,43.1875 C 64.757808,43.078126 64.843746,42.828127 64.84375,42.4375 L 64.820313,40.890625 L 64.84375,38.148438 L 64.796875,31.164063 L 64.820313,28.5625 L 64.820313,26.710938 L 64.890625,24.4375 C 64.890621,20.875024 64.855464,18.74612 64.785156,18.050781 C 64.71484,17.355496 64.578121,16.921903 64.375,16.75 C 63.999997,16.390653 62.968748,16.015653 61.28125,15.625 L 61.28125,15.507813 C 61.281249,15.398467 61.296874,15.242217 61.328125,15.039063 C 61.546874,15.007842 61.757811,14.96878 61.960938,14.921875 C 62.164061,14.87503 62.359373,14.84378 62.546875,14.828125 C 64.406246,14.296905 65.757807,13.781281 66.601563,13.28125 L 67.75,13.28125 C 67.781243,13.718781 67.796868,15.101592 67.796875,17.429688 L 67.773438,20.40625 L 67.796875,24.25 L 67.703125,28.984375 C 67.703118,29.26564 67.718743,29.57814 67.75,29.921875 C 68.734367,28.781266 69.453116,28.023454 69.90625,27.648438 C 70.71874,26.992205 71.585926,26.472674 72.507813,26.089844 C 73.429675,25.70705 74.398424,25.515644 75.414063,25.515625 C 77.335921,25.515644 78.906232,26.328143 80.125,27.953125 C 80.828105,28.906266 81.179667,30.257827 81.179688,32.007813 L 81.109375,34.398438 L 81.132813,35.734375 L 81.039063,38.054688 C 80.976542,39.976567 80.945292,41.117191 80.945313,41.476563 C 80.945292,41.882815 80.960917,42.42969 80.992188,43.117188 L 82.328125,43.421875 C 83.218727,43.609376 83.906227,43.781251 84.390625,43.9375 L 84.367188,44.664063 L 79.375,44.523438 C 79.093731,44.523437 78.328107,44.554687 77.078125,44.617188 C 76.312484,44.648437 75.867172,44.664062 75.742188,44.664063 L 75.226563,44.664063 C 75.148423,44.523437 75.10936,44.40625 75.109375,44.3125 L 75.109375,44.101563 C 75.32811,43.820313 75.73436,43.632813 76.328125,43.539063 L 77.734375,43.210938 C 77.921858,43.054689 78.031233,42.890627 78.0625,42.71875 C 78.124982,42.312502 78.195295,40.296879 78.273438,36.671875 L 78.320313,34.9375 C 78.382795,33.109386 78.24217,31.593763 77.898438,30.390625 C 77.67967,29.562515 77.183577,28.902359 76.410156,28.410156 C 75.636704,27.917985 74.742173,27.671892 73.726563,27.671875 C 72.8828,27.671892 72.085926,27.851579 71.335938,28.210938 C 70.820302,28.476579 70.203115,28.937516 69.484375,29.59375 C 68.765617,30.250014 68.265617,30.812514 67.984375,31.28125 C 67.796868,31.593763 67.703118,32.109387 67.703125,32.828125 L 67.726563,34.46875 L 67.679688,36.179688 C 67.67968,36.320321 67.703118,37.296882 67.75,39.109375 L 67.726563,40.609375 L 67.773438,42.25 C 67.789055,42.484377 67.812493,42.656252 67.84375,42.765625 L 71.148438,43.5625 C 71.320302,43.609376 71.578114,43.703126 71.921875,43.84375 L 71.992188,44.101563 C 71.992176,44.179688 71.953114,44.304688 71.875,44.476563 C 71.421864,44.492188 71.078114,44.5 70.84375,44.5 L 69.015625,44.476563 L 64.984375,44.523438 L 61.960938,44.617188 C 61.804686,44.601562 61.570311,44.585937 61.257813,44.570313 L 61.234375,44.40625 C 61.234374,44.28125 61.296874,44.125 61.421875,43.9375 L 61.421875,43.9375 z M 103.5625,32.125 L 94.164063,32.195313 L 92.382813,32.195313 C 91.664056,32.195325 90.929682,32.226575 90.179688,32.289063 C 90.039057,32.757824 89.968745,33.078136 89.96875,33.25 L 89.992188,33.484375 L 89.992188,33.71875 L 89.96875,34.867188 C 89.968745,35.820321 90.269526,36.988289 90.871094,38.371094 C 91.47265,39.753911 92.332024,40.808597 93.449219,41.535156 C 94.566397,42.261721 95.960927,42.648439 97.632813,42.695313 C 98.523424,42.648439 99.234361,42.539064 99.765625,42.367188 C 100.29686,42.195315 101.04686,41.796878 102.01563,41.171875 L 103.70313,39.789063 L 103.84375,40.726563 C 103.84373,40.835941 103.83592,40.953129 103.82031,41.078125 C 103.11717,41.968753 102.22655,42.750002 101.14844,43.421875 C 100.0703,44.09375 98.976549,44.585937 97.867188,44.898438 C 97.335925,45.039062 96.460926,45.109374 95.242188,45.109375 C 94.132803,45.109374 93.039054,44.882812 91.960938,44.429688 C 90.367182,43.742188 89.113277,42.636721 88.199219,41.113281 C 87.285154,39.589849 86.828123,37.742194 86.828125,35.570313 C 86.828123,34.882822 86.957029,34.000011 87.214844,32.921875 C 87.472654,31.843763 87.937497,30.695326 88.609375,29.476563 C 89.062496,28.648453 89.617183,27.968767 90.273438,27.4375 C 91.210931,26.687518 92.031243,26.164081 92.734375,25.867188 C 93.749991,25.445332 94.929678,25.234394 96.273438,25.234375 C 97.72655,25.234394 98.914049,25.500019 99.835938,26.03125 C 101.08592,26.734393 102.01951,27.640642 102.63672,28.75 C 103.25389,29.85939 103.56248,30.875014 103.5625,31.796875 L 103.5625,32.125 z M 90.484375,31.28125 L 91.585938,31.28125 C 92.382805,31.281263 94.757803,31.156263 98.710938,30.90625 C 99.335923,30.875014 99.718735,30.812514 99.859375,30.71875 C 100.14061,30.421889 100.28123,30.156264 100.28125,29.921875 C 100.28123,29.437515 100.12498,28.886734 99.8125,28.269531 C 99.499985,27.652361 99.019517,27.175799 98.371094,26.839844 C 97.722644,26.503924 96.968738,26.335956 96.109375,26.335938 C 94.296866,26.335956 92.843742,27.015642 91.75,28.375 C 90.906244,29.406265 90.48437,30.375014 90.484375,31.28125 L 90.484375,31.28125 z M 125.59375,26.242188 C 129.48436,26.335956 131.55467,26.382831 131.80469,26.382813 C 131.83592,26.72658 131.85155,26.984393 131.85156,27.15625 C 131.85155,27.359392 131.82811,27.664079 131.78125,28.070313 C 131.39061,28.132829 130.99217,28.164079 130.58594,28.164063 L 129.69531,28.164063 C 127.7578,28.164079 126.41405,28.234391 125.66406,28.375 C 125.6328,28.734391 125.61718,29.007828 125.61719,29.195313 C 125.61718,29.273453 125.62499,29.39064 125.64063,29.546875 C 125.71874,32.000012 125.7578,33.484386 125.75781,34 L 125.71094,40.023438 C 125.71093,40.914066 125.85937,41.656253 126.15625,42.25 C 126.32812,42.593752 126.64843,42.867189 127.11719,43.070313 C 127.41405,43.210939 128.1328,43.351564 129.27344,43.492188 C 130.1328,43.617188 130.71092,43.703126 131.00781,43.75 C 131.0078,44.078125 130.98436,44.328125 130.9375,44.5 L 130.60938,44.523438 C 129.85936,44.476563 128.8828,44.4375 127.67969,44.40625 L 125.94531,44.335938 L 120.03906,44.523438 L 119.26563,44.523438 L 119.24219,43.796875 C 119.47656,43.750001 119.64843,43.710938 119.75781,43.679688 C 121.10156,43.429689 121.96875,43.148439 122.35938,42.835938 C 122.51562,42.710939 122.62499,42.484377 122.6875,42.15625 C 122.71874,41.968753 122.73437,41.093753 122.73438,39.53125 C 122.73437,35.078134 122.69531,31.52345 122.61719,28.867188 C 122.21093,28.742203 121.58593,28.664078 120.74219,28.632813 C 120.42968,28.632828 119.9375,28.601578 119.26563,28.539063 L 119.21875,28.28125 C 119.21875,28.093766 119.29687,27.937517 119.45313,27.8125 C 119.51562,27.750017 120.17187,27.421892 121.42188,26.828125 C 121.90625,26.609393 122.24999,26.335956 122.45313,26.007813 C 122.56249,25.835956 122.62499,25.476582 122.64063,24.929688 C 122.65624,24.679707 122.70312,24.25002 122.78125,23.640625 C 122.96874,22.031272 123.11718,21.039086 123.22656,20.664063 C 123.50781,19.617212 123.98046,18.574245 124.64453,17.535156 C 125.30859,16.496122 126.10937,15.585966 127.04688,14.804688 C 127.73436,14.242218 128.51171,13.820343 129.37891,13.539063 C 130.24608,13.257844 131.23436,13.117219 132.34375,13.117188 C 133.82811,13.117219 134.91404,13.359406 135.60156,13.84375 C 136.07029,14.171905 136.30467,14.59378 136.30469,15.109375 C 136.30467,15.546904 136.14061,15.921904 135.8125,16.234375 C 135.48436,16.546903 135.07811,16.703153 134.59375,16.703125 C 133.99998,16.703153 133.35936,16.554715 132.67188,16.257813 C 131.37499,15.742216 130.64061,15.460967 130.46875,15.414063 C 130.17186,15.335967 129.86717,15.296904 129.55469,15.296875 C 128.6953,15.296904 127.91015,15.570341 127.19922,16.117188 C 126.48827,16.66409 126.03905,17.335965 125.85156,18.132813 C 125.66405,18.929713 125.5703,20.718774 125.57031,23.5 C 125.5703,24.50002 125.57812,25.414082 125.59375,26.242188 L 125.59375,26.242188 z M 135.76563,15.695313 C 135.76562,15.179717 135.96484,14.734405 136.36328,14.359375 C 136.76171,13.984406 137.24218,13.796906 137.80469,13.796875 C 138.38281,13.796906 138.89062,14.007843 139.32813,14.429688 C 139.76562,14.851592 139.98437,15.304717 139.98438,15.789063 C 139.98437,16.273466 139.76562,16.730497 139.32813,17.160156 C 138.89062,17.589871 138.38281,17.804714 137.80469,17.804688 C 137.22656,17.804714 136.74218,17.609402 136.35156,17.21875 C 135.96093,16.828153 135.76562,16.320341 135.76563,15.695313 L 135.76563,15.695313 z M 133.79688,27.835938 L 133.82031,27.15625 C 134.83594,26.859393 135.38281,26.687518 135.46094,26.640625 C 136.02343,26.390643 136.61328,26.007831 137.23047,25.492188 C 137.84765,24.976582 138.36718,24.398458 138.78906,23.757813 C 138.97656,23.726583 139.12499,23.710958 139.23438,23.710938 L 139.51563,23.734375 C 139.57812,24.484395 139.60937,25.031269 139.60938,25.375 C 139.60937,25.453144 139.59374,25.804706 139.5625,26.429688 L 139.5625,27.671875 L 139.58594,34.421875 L 139.51563,41.570313 C 139.49999,42.14844 139.59374,42.550783 139.79688,42.777344 C 139.99999,43.003908 140.60155,43.257814 141.60156,43.539063 C 142.22655,43.710938 142.6953,43.859376 143.00781,43.984375 C 143.05468,44.09375 143.07811,44.1875 143.07813,44.265625 C 143.07811,44.359375 143.03905,44.476563 142.96094,44.617188 C 142.35155,44.601562 141.5703,44.5625 140.61719,44.5 C 139.32031,44.390625 138.46093,44.335938 138.03906,44.335938 C 137.83593,44.335938 136.58593,44.375 134.28906,44.453125 C 133.82031,44.46875 133.36719,44.507812 132.92969,44.570313 C 132.85156,44.570312 132.72656,44.546875 132.55469,44.5 C 132.47656,44.390625 132.4375,44.296875 132.4375,44.21875 C 132.4375,44 132.58594,43.828126 132.88281,43.703125 C 132.94531,43.671876 133.74219,43.492189 135.27344,43.164063 C 135.77343,43.070314 136.10156,42.914064 136.25781,42.695313 C 136.52343,42.36719 136.65625,41.843753 136.65625,41.125 C 136.6875,39.92188 136.70312,36.625008 136.70313,31.234375 C 136.70312,30.156264 136.65625,29.48439 136.5625,29.21875 C 136.48437,29.031265 136.27734,28.816422 135.94141,28.574219 C 135.60547,28.332047 134.89062,28.085954 133.79688,27.835938 L 133.79688,27.835938 z M 143.14844,25.890625 C 144.88281,25.906269 146.39843,25.960956 147.69531,26.054688 C 148.61718,26.054706 149.28906,26.039081 149.71094,26.007813 C 150.00781,25.992206 150.19531,25.984394 150.27344,25.984375 L 152.89844,26.007813 C 153.2578,26.070331 153.54686,26.109393 153.76563,26.125 C 153.85936,26.156268 153.9453,26.242206 154.02344,26.382813 C 154.02343,26.53908 153.97655,26.703143 153.88281,26.875 C 153.61718,26.953143 153.34374,27.000017 153.0625,27.015625 C 151.89062,27.140642 150.90624,27.32033 150.10938,27.554688 C 149.99999,27.632829 149.94531,27.710954 149.94531,27.789063 C 149.94531,27.945329 150.02343,28.187516 150.17969,28.515625 C 150.21093,28.593766 150.28124,28.781266 150.39063,29.078125 L 152.73438,34.703125 C 153.78124,37.281257 154.74999,39.45313 155.64063,41.21875 C 156.24999,40.062504 156.81249,38.867193 157.32813,37.632813 C 157.84374,36.398446 158.60155,34.453135 159.60156,31.796875 C 159.8828,31.046888 160.14842,30.117202 160.39844,29.007813 C 160.4453,28.789078 160.46873,28.601578 160.46875,28.445313 C 160.46873,28.257829 160.36326,28.050798 160.15234,27.824219 C 159.94139,27.597673 159.58592,27.41408 159.08594,27.273438 C 158.97655,27.25783 158.26561,27.140642 156.95313,26.921875 C 156.84374,26.859393 156.74217,26.773455 156.64844,26.664063 L 156.64844,26.476563 C 156.64842,26.398456 156.65624,26.296893 156.67188,26.171875 C 157.04686,26.125018 157.3203,26.101581 157.49219,26.101563 L 160.25781,26.125 C 160.4453,26.125018 160.89061,26.101581 161.59375,26.054688 C 164.0781,26.054706 165.57029,26.078143 166.07031,26.125 C 166.16404,26.156268 166.24998,26.250018 166.32813,26.40625 C 166.3281,26.546893 166.28123,26.703143 166.1875,26.875 L 165.46094,27.0625 C 165.27342,27.078142 165.12498,27.093767 165.01563,27.109375 C 163.67185,27.234392 162.84373,27.421892 162.53125,27.671875 C 162.29686,27.843767 161.92967,28.648453 161.42969,30.085938 C 161.19529,30.789076 160.85155,31.6797 160.39844,32.757813 L 159.17969,35.710938 C 159.0078,36.132821 158.8203,36.593758 158.61719,37.09375 L 154.98438,45.484375 L 154.28125,45.484375 C 154.14061,45.109374 153.96874,44.71875 153.76563,44.3125 L 151.98438,40.539063 L 147.78906,30.71875 C 146.94531,28.812516 146.4375,27.781267 146.26563,27.625 C 146.09375,27.468767 145.09375,27.140642 143.26563,26.640625 C 143.17188,26.390643 143.125,26.210956 143.125,26.101563 L 143.14844,25.890625 z M 184.46875,32.125 L 175.07031,32.195313 L 173.28906,32.195313 C 172.57031,32.195325 171.83593,32.226575 171.08594,32.289063 C 170.94531,32.757824 170.875,33.078136 170.875,33.25 L 170.89844,33.484375 L 170.89844,33.71875 L 170.875,34.867188 C 170.875,35.820321 171.17578,36.988289 171.77734,38.371094 C 172.3789,39.753911 173.23827,40.808597 174.35547,41.535156 C 175.47265,42.261721 176.86718,42.648439 178.53906,42.695313 C 179.42967,42.648439 180.14061,42.539064 180.67188,42.367188 C 181.20311,42.195315 181.95311,41.796878 182.92188,41.171875 L 184.60938,39.789063 L 184.75,40.726563 C 184.74998,40.835941 184.74217,40.953129 184.72656,41.078125 C 184.02342,41.968753 183.1328,42.750002 182.05469,43.421875 C 180.97655,44.09375 179.8828,44.585937 178.77344,44.898438 C 178.24218,45.039062 177.36718,45.109374 176.14844,45.109375 C 175.03905,45.109374 173.9453,44.882812 172.86719,44.429688 C 171.27343,43.742188 170.01953,42.636721 169.10547,41.113281 C 168.1914,39.589849 167.73437,37.742194 167.73438,35.570313 C 167.73437,34.882822 167.86328,34.000011 168.12109,32.921875 C 168.3789,31.843763 168.84375,30.695326 169.51563,29.476563 C 169.96875,28.648453 170.52343,27.968767 171.17969,27.4375 C 172.11718,26.687518 172.93749,26.164081 173.64063,25.867188 C 174.65624,25.445332 175.83593,25.234394 177.17969,25.234375 C 178.6328,25.234394 179.8203,25.500019 180.74219,26.03125 C 181.99217,26.734393 182.92576,27.640642 183.54297,28.75 C 184.16014,29.85939 184.46873,30.875014 184.46875,31.796875 L 184.46875,32.125 z M 171.39063,31.28125 L 172.49219,31.28125 C 173.28906,31.281263 175.66405,31.156263 179.61719,30.90625 C 180.24217,30.875014 180.62499,30.812514 180.76563,30.71875 C 181.04686,30.421889 181.18748,30.156264 181.1875,29.921875 C 181.18748,29.437515 181.03123,28.886734 180.71875,28.269531 C 180.40624,27.652361 179.92577,27.175799 179.27734,26.839844 C 178.62889,26.503924 177.87499,26.335956 177.01563,26.335938 C 175.20312,26.335956 173.74999,27.015642 172.65625,28.375 C 171.81249,29.406265 171.39062,30.375014 171.39063,31.28125 L 171.39063,31.28125 z M 198.67188,15.039063 L 198.67188,14.921875 C 198.67187,14.765655 198.73437,14.546905 198.85938,14.265625 C 200.5625,13.968781 202.375,13.515656 204.29688,12.90625 C 204.40624,12.890657 204.57812,12.882844 204.8125,12.882813 C 204.89062,13.132844 204.92968,13.296906 204.92969,13.375 L 204.92969,20.359375 L 204.90625,22.585938 L 204.92969,25.070313 L 204.88281,27.085938 C 204.88281,27.16408 204.89843,27.429705 204.92969,27.882813 L 206.85156,27.15625 C 207.05468,27.093767 207.72655,26.890643 208.86719,26.546875 C 210.3203,26.312518 211.16405,26.195331 211.39844,26.195313 C 212.96092,26.195331 214.36717,26.445331 215.61719,26.945313 C 216.38279,27.25783 217.14061,27.77736 217.89063,28.503906 C 218.6406,29.230484 219.19529,30.000015 219.55469,30.8125 C 220.17967,32.296887 220.49216,33.578136 220.49219,34.65625 C 220.49216,36.359383 220.38279,37.539069 220.16406,38.195313 C 219.63279,39.757817 218.98435,40.992191 218.21875,41.898438 C 217.45311,42.804689 216.38279,43.578126 215.00781,44.21875 C 213.6328,44.859375 212.17186,45.179687 210.625,45.179688 C 209.20311,45.179687 207.85937,44.914062 206.59375,44.382813 C 205.32812,43.851563 204.61718,43.585938 204.46094,43.585938 C 203.97656,43.585938 203.35937,44.226563 202.60938,45.507813 L 201.92969,45.484375 C 201.86718,44.4375 201.83593,43.148439 201.83594,41.617188 L 201.88281,38.125 L 201.85938,36.34375 L 201.90625,31.234375 L 201.85938,30.25 L 201.95313,27.835938 L 201.95313,25.773438 L 201.97656,24.929688 C 201.97656,24.757832 201.96875,24.078145 201.95313,22.890625 L 201.95313,21.484375 C 202,18.765651 201.88281,17.19534 201.60156,16.773438 C 201.14843,16.101591 200.17187,15.523466 198.67188,15.039063 L 198.67188,15.039063 z M 209.80469,43.890625 C 212.17967,43.890626 213.98827,43.222658 215.23047,41.886719 C 216.47264,40.550785 217.09373,38.562506 217.09375,35.921875 C 217.09373,33.500011 216.39061,31.539075 214.98438,30.039063 C 213.57811,28.539078 211.84374,27.789079 209.78125,27.789063 C 208.28124,27.789079 207.02343,28.031266 206.00781,28.515625 C 205.39843,28.812516 205.05859,29.085953 204.98828,29.335938 C 204.91796,29.585952 204.88281,31.257826 204.88281,34.351563 C 204.88281,38.023444 204.96093,40.171879 205.11719,40.796875 C 205.3828,41.765628 205.86718,42.46094 206.57031,42.882813 C 207.67968,43.554688 208.7578,43.890626 209.80469,43.890625 L 209.80469,43.890625 z M 224.05469,35.078125 C 224.05469,34.015635 224.27734,32.878918 224.72266,31.667969 C 225.16797,30.457045 225.84375,29.371109 226.75,28.410156 C 227.65624,27.449236 228.61718,26.734393 229.63281,26.265625 C 231.05468,25.609394 232.78905,25.281269 234.83594,25.28125 C 237.7578,25.281269 240.1992,26.281268 242.16016,28.28125 C 244.12107,30.281264 245.10154,32.687512 245.10156,35.5 C 245.10154,38.000006 244.0742,40.230473 242.01953,42.191406 C 239.96483,44.152344 237.36717,45.132812 234.22656,45.132813 C 232.28905,45.132812 230.46093,44.625 228.74219,43.609375 C 227.46093,42.843752 226.35937,41.71094 225.4375,40.210938 C 224.51562,38.710943 224.05469,37.000008 224.05469,35.078125 L 224.05469,35.078125 z M 234.41406,44.21875 C 235.60155,44.21875 236.74608,43.898438 237.84766,43.257813 C 238.9492,42.617189 239.82811,41.589847 240.48438,40.175781 C 241.14061,38.761724 241.46873,37.125007 241.46875,35.265625 C 241.46873,34.046885 241.21482,32.632824 240.70703,31.023438 C 240.1992,29.414078 239.41795,28.207048 238.36328,27.402344 C 237.30858,26.597674 236.0703,26.195331 234.64844,26.195313 C 233.61718,26.195331 232.5664,26.437518 231.49609,26.921875 C 230.42577,27.406267 229.51952,28.335954 228.77734,29.710938 C 228.03515,31.085951 227.66406,33.039074 227.66406,35.570313 C 227.66406,38.414069 228.30859,40.56641 229.59766,42.027344 C 230.88671,43.488282 232.49218,44.21875 234.41406,44.21875 L 234.41406,44.21875 z M 247.51563,26.945313 C 247.48437,26.742205 247.46875,26.57033 247.46875,26.429688 L 247.46875,26.125 C 247.71875,26.062518 247.99219,26.031268 248.28906,26.03125 L 249.15625,26.03125 C 250.5,26.078143 251.34375,26.101581 251.6875,26.101563 C 252.76562,26.101581 253.85937,26.085956 254.96875,26.054688 C 255.65624,26.039081 256.07812,26.031268 256.23438,26.03125 L 256.79688,26.03125 C 256.90624,26.250018 256.96093,26.414081 256.96094,26.523438 C 256.96093,26.60158 256.92968,26.710955 256.86719,26.851563 L 256.51563,26.898438 C 255.37499,27.00783 254.65624,27.148455 254.35938,27.320313 C 254.23437,27.398455 254.17187,27.500017 254.17188,27.625 C 254.17187,27.875017 254.35937,28.242204 254.73438,28.726563 C 256.56249,31.101576 257.80468,32.632824 258.46094,33.320313 C 259.92967,31.351576 260.80858,30.089858 261.09766,29.535156 C 261.3867,28.980484 261.53124,28.546891 261.53125,28.234375 C 261.53124,27.875017 261.39061,27.574236 261.10938,27.332031 C 260.82811,27.089861 260.14061,26.890643 259.04688,26.734375 C 258.92186,26.546893 258.85936,26.390643 258.85938,26.265625 L 258.92969,26.03125 L 259.53906,26.007813 C 259.6953,26.007831 259.96874,26.015643 260.35938,26.03125 C 261.03124,26.078143 261.70311,26.101581 262.375,26.101563 C 262.71873,26.101581 263.31248,26.089862 264.15625,26.066406 C 264.99998,26.042987 265.64061,26.031268 266.07813,26.03125 L 267.15625,26.03125 C 267.35935,26.125018 267.46092,26.250018 267.46094,26.40625 C 267.46092,26.484393 267.44529,26.585955 267.41406,26.710938 C 267.16404,26.773455 266.85935,26.835955 266.5,26.898438 C 265.65623,27.023455 264.83592,27.328142 264.03906,27.8125 C 263.4453,28.171891 262.85936,28.742203 262.28125,29.523438 L 258.95313,34.023438 L 262.35156,38.289063 C 263.91405,40.398442 264.87108,41.640628 265.22266,42.015625 C 265.5742,42.390627 265.95311,42.695314 266.35938,42.929688 C 266.76561,43.164064 267.35935,43.382814 268.14063,43.585938 C 268.15623,43.773438 268.16404,43.937501 268.16406,44.078125 C 268.16404,44.1875 268.13279,44.335938 268.07031,44.523438 C 267.78904,44.523437 266.36717,44.484375 263.80469,44.40625 C 263.64842,44.40625 262.89842,44.421875 261.55469,44.453125 C 261.1328,44.46875 260.72655,44.476563 260.33594,44.476563 C 259.97655,44.476563 259.53124,44.460938 259,44.429688 L 259.07031,43.726563 C 259.30468,43.679688 259.56249,43.625001 259.84375,43.5625 C 260.64061,43.406251 261.21092,43.195314 261.55469,42.929688 C 261.7578,42.757814 261.85936,42.570314 261.85938,42.367188 C 261.85936,42.02344 260.79686,40.585941 258.67188,38.054688 L 257.28906,36.390625 C 256.6328,37.046882 255.90624,37.976569 255.10938,39.179688 C 254.65624,39.882817 254.28906,40.406254 254.00781,40.75 C 253.47656,41.375003 253.21093,41.89844 253.21094,42.320313 C 253.21093,42.46094 253.30468,42.605471 253.49219,42.753906 C 253.67968,42.902345 254.22656,43.078126 255.13281,43.28125 C 255.74218,43.406251 256.17187,43.507813 256.42188,43.585938 C 256.46874,43.789063 256.49218,43.945313 256.49219,44.054688 C 256.49218,44.148438 256.47655,44.296875 256.44531,44.5 C 255.24218,44.4375 254.07031,44.40625 252.92969,44.40625 C 251.49218,44.40625 250.44922,44.425781 249.80078,44.464844 C 249.15234,44.503906 248.75,44.523437 248.59375,44.523438 C 248.40625,44.523437 248.10937,44.507812 247.70313,44.476563 C 247.64062,44.257813 247.60937,44.09375 247.60938,43.984375 L 247.65625,43.679688 C 247.875,43.570313 248.14844,43.500001 248.47656,43.46875 C 249.52343,43.359376 250.45312,42.968752 251.26563,42.296875 C 252.07812,41.625003 253.88281,39.382818 256.67969,35.570313 L 253.5625,31.820313 L 250.23438,27.835938 C 250.14062,27.742204 250.02343,27.648454 249.88281,27.554688 C 249.63281,27.41408 249.29687,27.304705 248.875,27.226563 C 248.23437,27.10158 247.78125,27.00783 247.51563,26.945313 L 247.51563,26.945313 z M 272.17188,15.695313 C 272.17187,15.179717 272.37109,14.734405 272.76953,14.359375 C 273.16796,13.984406 273.64843,13.796906 274.21094,13.796875 C 274.78906,13.796906 275.29687,14.007843 275.73438,14.429688 C 276.17187,14.851592 276.39062,15.304717 276.39063,15.789063 C 276.39062,16.273466 276.17187,16.730497 275.73438,17.160156 C 275.29687,17.589871 274.78906,17.804714 274.21094,17.804688 C 273.63281,17.804714 273.14843,17.609402 272.75781,17.21875 C 272.36718,16.828153 272.17187,16.320341 272.17188,15.695313 L 272.17188,15.695313 z M 270.20313,27.835938 L 270.22656,27.15625 C 271.24219,26.859393 271.78906,26.687518 271.86719,26.640625 C 272.42968,26.390643 273.01953,26.007831 273.63672,25.492188 C 274.2539,24.976582 274.77343,24.398458 275.19531,23.757813 C 275.38281,23.726583 275.53124,23.710958 275.64063,23.710938 L 275.92188,23.734375 C 275.98437,24.484395 276.01562,25.031269 276.01563,25.375 C 276.01562,25.453144 275.99999,25.804706 275.96875,26.429688 L 275.96875,27.671875 L 275.99219,34.421875 L 275.92188,41.570313 C 275.90624,42.14844 275.99999,42.550783 276.20313,42.777344 C 276.40624,43.003908 277.0078,43.257814 278.00781,43.539063 C 278.6328,43.710938 279.10155,43.859376 279.41406,43.984375 C 279.46093,44.09375 279.48436,44.1875 279.48438,44.265625 C 279.48436,44.359375 279.4453,44.476563 279.36719,44.617188 C 278.7578,44.601562 277.97655,44.5625 277.02344,44.5 C 275.72656,44.390625 274.86718,44.335938 274.44531,44.335938 C 274.24218,44.335938 272.99218,44.375 270.69531,44.453125 C 270.22656,44.46875 269.77344,44.507812 269.33594,44.570313 C 269.25781,44.570312 269.13281,44.546875 268.96094,44.5 C 268.88281,44.390625 268.84375,44.296875 268.84375,44.21875 C 268.84375,44 268.99219,43.828126 269.28906,43.703125 C 269.35156,43.671876 270.14844,43.492189 271.67969,43.164063 C 272.17968,43.070314 272.50781,42.914064 272.66406,42.695313 C 272.92968,42.36719 273.0625,41.843753 273.0625,41.125 C 273.09375,39.92188 273.10937,36.625008 273.10938,31.234375 C 273.10937,30.156264 273.0625,29.48439 272.96875,29.21875 C 272.89062,29.031265 272.68359,28.816422 272.34766,28.574219 C 272.01172,28.332047 271.29687,28.085954 270.20313,27.835938 L 270.20313,27.835938 z M 280.70313,43.75 C 281.09375,43.640626 281.54687,43.546876 282.0625,43.46875 C 283.04687,43.328126 283.63671,43.164064 283.83203,42.976563 C 284.02734,42.789064 284.125,42.359377 284.125,41.6875 L 284.17188,40.84375 C 284.1875,40.531254 284.19531,40.132817 284.19531,39.648438 L 284.14844,32.453125 C 284.14843,31.484388 284.02343,30.859389 283.77344,30.578125 C 283.35156,30.140639 282.57031,29.835952 281.42969,29.664063 L 281.42969,28.820313 C 282.57031,28.507828 283.44531,28.101579 284.05469,27.601563 C 284.94531,26.898455 285.69531,25.945331 286.30469,24.742188 L 287.10156,24.765625 C 287.14843,25.500019 287.17187,26.023456 287.17188,26.335938 L 287.17188,27.882813 L 287.19531,28.304688 C 287.3828,28.179704 287.60155,28.023454 287.85156,27.835938 C 288.78905,27.13283 289.74999,26.558612 290.73438,26.113281 C 291.71874,25.667988 292.59374,25.359394 293.35938,25.1875 C 293.84374,25.062519 294.39061,25.00002 295,25 C 296.28123,25.00002 297.38279,25.343769 298.30469,26.03125 C 299.22654,26.718768 299.8242,27.527361 300.09766,28.457031 C 300.37107,29.386734 300.50779,31.234388 300.50781,34 L 300.50781,37.539063 C 300.50779,37.632819 300.49607,37.945319 300.47266,38.476563 C 300.4492,39.007818 300.43748,39.617192 300.4375,40.304688 C 300.43748,41.398441 300.48435,42.093752 300.57813,42.390625 C 300.65623,42.593752 300.85935,42.796877 301.1875,43 C 302.68748,43.203126 303.56248,43.445314 303.8125,43.726563 L 303.8125,43.914063 C 303.81248,44.070313 303.7656,44.265625 303.67188,44.5 L 303.22656,44.5 L 300.13281,44.476563 L 297.08594,44.523438 C 295.96092,44.554687 294.92186,44.546875 293.96875,44.5 L 293.82813,44.007813 C 293.82811,43.914063 293.8828,43.789063 293.99219,43.632813 C 294.41405,43.445314 295.0078,43.320314 295.77344,43.257813 C 296.22655,43.226564 296.53905,43.179689 296.71094,43.117188 C 296.8828,43.054689 297.09373,42.929689 297.34375,42.742188 C 297.53123,42.36719 297.62498,42.05469 297.625,41.804688 C 297.62498,41.695315 297.60936,41.476566 297.57813,41.148438 C 297.53123,40.429692 297.49998,38.640631 297.48438,35.78125 L 297.48438,34.5625 L 297.53125,32.6875 C 297.53123,30.671889 297.12498,29.281265 296.3125,28.515625 C 295.49998,27.750017 294.41405,27.367205 293.05469,27.367188 C 292.0078,27.367205 290.98436,27.597673 289.98438,28.058594 C 288.98437,28.519547 288.01562,29.210953 287.07813,30.132813 C 287.04687,30.882826 287.03124,31.52345 287.03125,32.054688 L 287.10156,37.234375 C 287.10156,39.937505 287.14062,41.593753 287.21875,42.203125 C 287.24999,42.453127 287.30468,42.625002 287.38281,42.71875 C 287.5078,42.843752 287.7578,42.945314 288.13281,43.023438 C 288.5078,43.101564 288.9414,43.210939 289.43359,43.351563 C 289.92577,43.492189 290.24999,43.578126 290.40625,43.609375 C 290.71874,43.687501 290.92968,43.843751 291.03906,44.078125 L 291.01563,44.546875 L 288.55469,44.546875 L 283.49219,44.476563 C 282.32031,44.507812 281.57812,44.523437 281.26563,44.523438 L 280.67969,44.523438 L 280.63281,44.21875 C 280.63281,44.109375 280.65625,43.953126 280.70313,43.75 L 280.70313,43.75 z M 310.60938,46.046875 C 310.42187,45.953124 309.82031,45.695311 308.80469,45.273438 C 307.61718,44.507812 306.86718,43.937501 306.55469,43.5625 C 306.24219,43.187501 306.08594,42.773439 306.08594,42.320313 C 306.08594,41.914065 306.20312,41.58594 306.4375,41.335938 C 306.78125,40.976566 307.46093,40.632816 308.47656,40.304688 C 309.49218,39.976567 310.32812,39.656255 310.98438,39.34375 C 310.78124,39.20313 310.46093,39.000006 310.02344,38.734375 C 307.69531,37.296882 306.53125,35.304697 306.53125,32.757813 C 306.53125,30.664076 307.26953,28.894547 308.74609,27.449219 C 310.22265,26.003925 312.11718,25.281269 314.42969,25.28125 C 315.47655,25.281269 316.43749,25.429707 317.3125,25.726563 C 317.81249,25.882831 318.55467,26.273456 319.53906,26.898438 C 320.16405,27.28908 320.53123,27.507829 320.64063,27.554688 C 320.89061,27.632829 321.17186,27.671892 321.48438,27.671875 C 321.74998,27.671892 322.39451,27.605486 323.41797,27.472656 C 324.44139,27.339861 325.04685,27.273455 325.23438,27.273438 C 325.59373,27.273455 325.8906,27.343767 326.125,27.484375 C 326.31248,27.796892 326.40623,28.320329 326.40625,29.054688 C 326.40623,29.304703 326.33982,29.492203 326.20703,29.617188 C 326.0742,29.742202 325.88279,29.804702 325.63281,29.804688 C 325.19529,29.804702 324.47264,29.667984 323.46484,29.394531 C 322.45701,29.121109 321.84373,28.984391 321.625,28.984375 C 321.54686,28.984391 321.39842,29.000016 321.17969,29.03125 C 321.85154,30.375014 322.18748,31.601575 322.1875,32.710938 C 322.18748,33.820323 321.83592,34.96876 321.13281,36.15625 C 320.42967,37.343757 319.46092,38.250006 318.22656,38.875 C 316.99217,39.500005 315.74218,39.812505 314.47656,39.8125 C 314.3828,39.812505 314.11718,39.804692 313.67969,39.789063 C 312.24218,39.789067 310.92187,40.148442 309.71875,40.867188 C 309.14062,41.226566 308.85156,41.562503 308.85156,41.875 C 308.85156,42.203127 309.13281,42.523439 309.69531,42.835938 C 311.17968,43.632813 313.99218,44.09375 318.13281,44.21875 C 319.92967,44.28125 321.32811,44.539062 322.32813,44.992188 C 323.32811,45.445312 324.08201,46.11328 324.58984,46.996094 C 325.09764,47.878903 325.35154,48.789058 325.35156,49.726563 C 325.35154,50.992181 324.92185,52.164055 324.0625,53.242188 C 323.20311,54.320303 321.89842,55.195302 320.14844,55.867188 C 318.39842,56.53905 316.39061,56.874988 314.125,56.875 C 311.62499,56.874988 309.69531,56.5703 308.33594,55.960938 C 306.97656,55.351552 306.01172,54.68749 305.44141,53.96875 C 304.87109,53.249991 304.58594,52.539054 304.58594,51.835938 C 304.58594,51.226556 304.89844,50.464838 305.52344,49.550781 C 306.14844,48.636715 307.44531,47.679684 309.41406,46.679688 C 309.99218,46.382811 310.39062,46.171873 310.60938,46.046875 L 310.60938,46.046875 z M 309.67188,32.664063 C 309.67187,34.070323 309.88281,35.246103 310.30469,36.191406 C 310.72656,37.136726 311.30468,37.83985 312.03906,38.300781 C 312.77343,38.761724 313.51562,38.992193 314.26563,38.992188 C 315.62499,38.992193 316.75389,38.472662 317.65234,37.433594 C 318.55077,36.394539 318.99999,34.81251 319,32.6875 C 318.99999,30.546889 318.53124,28.917984 317.59375,27.800781 C 316.65624,26.683612 315.52343,26.125018 314.19531,26.125 C 312.71093,26.125018 311.58593,26.656268 310.82031,27.71875 C 310.05468,28.781266 309.67187,30.429702 309.67188,32.664063 L 309.67188,32.664063 z M 308.89844,54.367188 C 310.32031,55.460927 312.11718,56.007801 314.28906,56.007813 C 315.83593,56.007801 317.37889,55.761707 318.91797,55.269531 C 320.45702,54.777333 321.58201,54.074209 322.29297,53.160156 C 323.00389,52.246086 323.35936,51.382806 323.35938,50.570313 C 323.35936,50.070307 323.23436,49.574214 322.98438,49.082031 C 322.73436,48.58984 322.39451,48.18359 321.96484,47.863281 C 321.53514,47.542966 320.96873,47.28906 320.26563,47.101563 C 319.76561,46.960935 319.05467,46.859373 318.13281,46.796875 C 315.5078,46.593748 313.89843,46.492186 313.30469,46.492188 C 311.63281,46.492186 310.14062,47.054685 308.82813,48.179688 C 307.8125,49.054683 307.30468,50.101557 307.30469,51.320313 C 307.30468,52.445305 307.83593,53.460929 308.89844,54.367188 L 308.89844,54.367188 z M 337.25781,26.03125 L 346.25781,26.054688 C 346.42968,26.054706 346.54687,26.085956 346.60938,26.148438 C 346.67187,26.210956 346.70312,26.304706 346.70313,26.429688 C 346.70312,26.72658 346.58593,26.94533 346.35156,27.085938 C 345.2578,27.16408 344.57812,27.296892 344.3125,27.484375 C 344.04687,27.671892 343.91406,27.929704 343.91406,28.257813 C 343.91406,28.414079 343.92968,28.562516 343.96094,28.703125 C 344.00781,28.890641 344.23437,29.445328 344.64063,30.367188 C 345.17187,31.601575 346.11718,33.601573 347.47656,36.367188 L 350.26563,42.039063 C 351.85936,39.257818 353.14842,36.671883 354.13281,34.28125 L 352.70313,30.53125 C 352.54686,30.187514 352.34764,29.67189 352.10547,28.984375 C 351.86327,28.296891 351.67577,27.894548 351.54297,27.777344 C 351.41014,27.660173 350.92967,27.484392 350.10156,27.25 C 349.27343,27.015642 348.78124,26.835955 348.625,26.710938 L 348.60156,26.546875 C 348.60155,26.453143 348.64843,26.320331 348.74219,26.148438 C 349.11718,26.054706 349.41405,26.007831 349.63281,26.007813 L 350.96875,26.03125 L 353.89844,26.03125 L 354.78906,26.007813 L 357.67188,26.054688 C 357.90623,26.054706 358.10154,26.046893 358.25781,26.03125 L 358.65625,26.03125 C 358.74998,26.031268 358.88279,26.039081 359.05469,26.054688 L 359.00781,26.804688 C 358.77342,26.94533 358.38279,27.046892 357.83594,27.109375 C 356.80467,27.218767 356.01561,27.41408 355.46875,27.695313 C 355.29686,27.882829 355.21092,28.046891 355.21094,28.1875 C 355.21092,28.531266 355.30467,28.960953 355.49219,29.476563 C 355.55467,29.632827 355.71873,30.117202 355.98438,30.929688 L 358.49219,37.539063 C 359.22654,39.507817 359.78904,40.882816 360.17969,41.664063 C 360.83591,40.460942 361.75779,38.296881 362.94531,35.171875 C 363.36716,34.078135 363.92966,32.773449 364.63281,31.257813 C 365.08591,30.304702 365.31247,29.48439 365.3125,28.796875 C 365.31247,28.437516 365.17966,28.132829 364.91406,27.882813 C 364.64841,27.632829 364.03122,27.398455 363.0625,27.179688 C 362.48435,27.054705 362.05466,26.937518 361.77344,26.828125 C 361.69529,26.703143 361.65623,26.60158 361.65625,26.523438 C 361.65623,26.382831 361.74216,26.226581 361.91406,26.054688 L 362.26563,26.054688 L 364.16406,26.03125 C 364.24216,26.031268 364.60154,26.042987 365.24219,26.066406 C 365.88278,26.089862 366.50778,26.101581 367.11719,26.101563 C 367.58591,26.101581 368.12497,26.085956 368.73438,26.054688 L 369.90625,26.054688 C 369.99997,26.085956 370.06637,26.125018 370.10547,26.171875 C 370.1445,26.218768 370.16403,26.296893 370.16406,26.40625 C 370.16403,26.578143 370.14059,26.765643 370.09375,26.96875 C 369.32809,27.062517 368.72653,27.238299 368.28906,27.496094 C 367.85153,27.753923 367.25778,28.460954 366.50781,29.617188 L 362.3125,39.695313 C 361.92185,40.632816 361.24216,42.070315 360.27344,44.007813 C 360.07029,44.414063 359.91795,44.742187 359.81641,44.992188 C 359.71482,45.242187 359.61717,45.406249 359.52344,45.484375 C 359.42967,45.562499 359.30467,45.601561 359.14844,45.601563 C 359.03904,45.601561 358.8906,45.570311 358.70313,45.507813 C 358.2656,44.648437 357.29686,42.281252 355.79688,38.40625 C 355.39061,37.359382 355.01561,36.468758 354.67188,35.734375 C 352.10936,41.062503 350.42967,44.335938 349.63281,45.554688 C 349.41405,45.585936 349.24999,45.601561 349.14063,45.601563 C 349.03124,45.601561 348.87499,45.585936 348.67188,45.554688 L 344.24219,36.296875 L 340.1875,28.375 C 339.90625,27.890642 339.6875,27.593767 339.53125,27.484375 C 339.26562,27.312517 338.79687,27.171892 338.125,27.0625 C 337.75,27.000017 337.46094,26.953143 337.25781,26.921875 C 337.24219,26.687518 337.23438,26.50783 337.23438,26.382813 C 337.23438,26.304706 337.24219,26.187518 337.25781,26.03125 L 337.25781,26.03125 z M 373.04688,15.695313 C 373.04687,15.179717 373.24609,14.734405 373.64453,14.359375 C 374.04296,13.984406 374.52343,13.796906 375.08594,13.796875 C 375.66406,13.796906 376.17187,14.007843 376.60938,14.429688 C 377.04687,14.851592 377.26562,15.304717 377.26563,15.789063 C 377.26562,16.273466 377.04687,16.730497 376.60938,17.160156 C 376.17187,17.589871 375.66406,17.804714 375.08594,17.804688 C 374.50781,17.804714 374.02343,17.609402 373.63281,17.21875 C 373.24218,16.828153 373.04687,16.320341 373.04688,15.695313 L 373.04688,15.695313 z M 371.07813,27.835938 L 371.10156,27.15625 C 372.11719,26.859393 372.66406,26.687518 372.74219,26.640625 C 373.30468,26.390643 373.89453,26.007831 374.51172,25.492188 C 375.1289,24.976582 375.64843,24.398458 376.07031,23.757813 C 376.25781,23.726583 376.40624,23.710958 376.51563,23.710938 L 376.79688,23.734375 C 376.85937,24.484395 376.89062,25.031269 376.89063,25.375 C 376.89062,25.453144 376.87499,25.804706 376.84375,26.429688 L 376.84375,27.671875 L 376.86719,34.421875 L 376.79688,41.570313 C 376.78124,42.14844 376.87499,42.550783 377.07813,42.777344 C 377.28124,43.003908 377.8828,43.257814 378.88281,43.539063 C 379.5078,43.710938 379.97655,43.859376 380.28906,43.984375 C 380.33593,44.09375 380.35936,44.1875 380.35938,44.265625 C 380.35936,44.359375 380.3203,44.476563 380.24219,44.617188 C 379.6328,44.601562 378.85155,44.5625 377.89844,44.5 C 376.60156,44.390625 375.74218,44.335938 375.32031,44.335938 C 375.11718,44.335938 373.86718,44.375 371.57031,44.453125 C 371.10156,44.46875 370.64844,44.507812 370.21094,44.570313 C 370.13281,44.570312 370.00781,44.546875 369.83594,44.5 C 369.75781,44.390625 369.71875,44.296875 369.71875,44.21875 C 369.71875,44 369.86719,43.828126 370.16406,43.703125 C 370.22656,43.671876 371.02344,43.492189 372.55469,43.164063 C 373.05468,43.070314 373.38281,42.914064 373.53906,42.695313 C 373.80468,42.36719 373.9375,41.843753 373.9375,41.125 C 373.96875,39.92188 373.98437,36.625008 373.98438,31.234375 C 373.98437,30.156264 373.9375,29.48439 373.84375,29.21875 C 373.76562,29.031265 373.55859,28.816422 373.22266,28.574219 C 372.88672,28.332047 372.17187,28.085954 371.07813,27.835938 L 371.07813,27.835938 z M 381.95313,44.570313 L 381.97656,44.078125 C 383.83593,41.984378 385.14062,40.453129 385.89063,39.484375 L 387.76563,37.09375 C 387.96874,36.875008 388.85155,35.867196 390.41406,34.070313 L 392.52344,31.609375 C 392.97655,31.125013 393.93749,29.882827 395.40625,27.882813 C 395.26561,27.789079 395.10155,27.742204 394.91406,27.742188 L 393.95313,27.71875 C 392.81249,27.687517 391.32811,27.703142 389.5,27.765625 C 388.20312,27.812517 387.20312,27.968767 386.5,28.234375 C 385.98437,28.421891 385.52343,28.718766 385.11719,29.125 C 384.47656,29.76564 384.01562,30.367202 383.73438,30.929688 C 383.59375,31.210951 383.36718,31.445326 383.05469,31.632813 C 382.88281,31.6172 382.75781,31.539075 382.67969,31.398438 C 382.74219,31.226576 382.88672,30.808607 383.11328,30.144531 C 383.33984,29.480484 383.53125,28.875016 383.6875,28.328125 C 384.20312,26.593768 384.67187,25.218769 385.09375,24.203125 L 385.9375,24.203125 C 385.90624,24.40627 385.88281,24.554707 385.86719,24.648438 C 385.78906,25.101582 385.74999,25.445332 385.75,25.679688 C 385.74999,26.007831 385.89062,26.242206 386.17188,26.382813 C 386.56249,26.60158 387.84374,26.710955 390.01563,26.710938 C 390.53124,26.710955 391.14061,26.69533 391.84375,26.664063 C 394.68749,26.523455 396.48436,26.453143 397.23438,26.453125 C 397.53123,26.453143 398.21092,26.484393 399.27344,26.546875 C 399.28904,26.718768 399.29686,26.867205 399.29688,26.992188 C 399.29686,27.25783 399.24998,27.460955 399.15625,27.601563 C 398.78123,28.257829 398.12498,29.195328 397.1875,30.414063 L 392.40625,36.25 L 386.42969,43.515625 C 386.74218,43.515626 387.25781,43.531251 387.97656,43.5625 L 393.625,43.5625 C 394.28124,43.578126 394.93358,43.429689 395.58203,43.117188 C 396.23045,42.804689 396.81639,42.277346 397.33984,41.535156 C 397.86326,40.792972 398.26561,39.92188 398.54688,38.921875 C 398.67186,38.843756 398.79686,38.804693 398.92188,38.804688 C 399.10936,38.804693 399.25779,38.882818 399.36719,39.039063 L 398.875,42.367188 C 398.73436,43.617188 398.56248,44.375 398.35938,44.640625 L 384.15625,44.617188 L 382.70313,44.617188 C 382.42187,44.617187 382.17187,44.601562 381.95313,44.570313 L 381.95313,44.570313 z M 420.27344,41.3125 C 420.36717,41.515628 420.41404,41.664065 420.41406,41.757813 C 420.41404,41.99219 420.22654,42.406252 419.85156,43 C 419.36717,43.781251 418.82811,44.351563 418.23438,44.710938 C 417.85936,44.945312 417.34373,45.062499 416.6875,45.0625 C 415.56249,45.062499 414.71874,44.71875 414.15625,44.03125 C 413.81249,43.625001 413.5703,42.898439 413.42969,41.851563 L 410.80469,43.679688 C 409.8828,44.210938 409.17968,44.546875 408.69531,44.6875 C 407.91406,44.890625 406.97656,44.992187 405.88281,44.992188 C 405.08593,44.992187 404.45703,44.753906 403.99609,44.277344 C 403.53515,43.800782 403.30469,43.187501 403.30469,42.4375 C 403.30469,41.359378 403.96484,40.070317 405.28516,38.570313 C 406.60546,37.07032 408.39843,35.843759 410.66406,34.890625 C 412.2578,34.21876 413.23436,33.789073 413.59375,33.601563 C 413.62499,33.085949 413.64061,32.523449 413.64063,31.914063 C 413.64061,29.929702 413.36327,28.585953 412.80859,27.882813 C 412.2539,27.179705 411.46093,26.828143 410.42969,26.828125 C 409.35155,26.828143 408.34374,27.250017 407.40625,28.09375 C 406.82812,28.625016 406.39062,29.625015 406.09375,31.09375 C 406,31.500013 405.82031,31.937513 405.55469,32.40625 C 404.88281,32.843762 404.34375,33.062511 403.9375,33.0625 C 403.59375,33.062511 403.28125,32.960949 403,32.757813 C 402.84375,32.648449 402.76562,32.523449 402.76563,32.382813 C 402.76562,31.976575 403.19922,31.058607 404.06641,29.628906 C 404.93359,28.199235 406.02734,27.128924 407.34766,26.417969 C 408.66796,25.70705 409.8203,25.351582 410.80469,25.351563 C 412.14843,25.351582 413.14843,25.472675 413.80469,25.714844 C 414.46092,25.95705 415.03905,26.382831 415.53906,26.992188 C 416.03905,27.601579 416.34373,28.265641 416.45313,28.984375 C 416.51561,29.32814 416.54686,30.554701 416.54688,32.664063 L 416.47656,36.390625 L 416.5,39.109375 C 416.49998,39.468755 416.49217,39.773442 416.47656,40.023438 C 416.46092,40.476567 416.45311,40.812504 416.45313,41.03125 C 416.45311,41.546878 416.60155,41.96094 416.89844,42.273438 C 417.1953,42.585939 417.54686,42.742189 417.95313,42.742188 C 418.54686,42.742189 419.05467,42.445315 419.47656,41.851563 L 419.75781,41.476563 C 419.83592,41.429691 420.00779,41.375003 420.27344,41.3125 L 420.27344,41.3125 z M 413.38281,40.632813 C 413.49218,38.648443 413.54686,37.250007 413.54688,36.4375 C 413.54686,36.015633 413.52343,35.445322 413.47656,34.726563 C 412.42968,35.101572 411.3203,35.671884 410.14844,36.4375 C 408.97655,37.203132 408.04687,38.085944 407.35938,39.085938 C 406.85937,39.804692 406.60937,40.484379 406.60938,41.125 C 406.60937,41.734378 406.8164,42.24219 407.23047,42.648438 C 407.64452,43.054689 408.16406,43.257814 408.78906,43.257813 C 409.27343,43.257814 409.85937,43.085939 410.54688,42.742188 C 411.45311,42.289065 412.39843,41.58594 413.38281,40.632813 L 413.38281,40.632813 z M 421.67969,44.570313 L 421.58594,44.265625 C 421.58594,44.15625 421.65625,43.992188 421.79688,43.773438 L 423.17969,43.492188 L 425.125,43.140625 C 425.28125,43.062501 425.39062,42.953127 425.45313,42.8125 C 425.54687,42.609377 425.59375,42.007815 425.59375,41.007813 C 425.59375,35.695321 425.5625,32.628918 425.5,31.808594 C 425.4375,30.988295 425.29687,30.468764 425.07813,30.25 C 424.85937,30.031264 424.29687,29.85939 423.39063,29.734375 C 422.85937,29.656265 422.4375,29.554702 422.125,29.429688 L 422.21875,28.726563 C 423.85937,28.054704 424.96093,27.47658 425.52344,26.992188 C 426.30468,26.289081 426.96874,25.367207 427.51563,24.226563 L 428.3125,24.25 C 428.40624,25.031269 428.45312,26.765643 428.45313,29.453125 L 428.42969,29.851563 C 428.42968,29.945327 428.4453,30.093764 428.47656,30.296875 C 429.0703,29.218765 429.81249,28.226579 430.70313,27.320313 L 431.24219,26.78125 C 431.46093,26.531268 431.67186,26.335956 431.875,26.195313 C 432.96874,25.539081 433.78124,25.210957 434.3125,25.210938 C 434.99999,25.210957 435.56249,25.441425 436,25.902344 C 436.43748,26.363299 436.65623,26.929705 436.65625,27.601563 C 436.65623,28.132829 436.49998,28.546891 436.1875,28.84375 C 435.76561,29.23439 435.28124,29.429703 434.73438,29.429688 C 434.48436,29.429703 433.99217,29.29689 433.25781,29.03125 C 432.52343,28.765641 432.03905,28.632828 431.80469,28.632813 C 431.36718,28.632828 431.06249,28.703141 430.89063,28.84375 C 430.45312,29.187515 429.92187,29.89064 429.29688,30.953125 C 428.81249,31.750013 428.5703,32.484387 428.57031,33.15625 L 428.6875,37.023438 L 428.73438,41.664063 C 428.78124,42.195315 428.84374,42.539064 428.92188,42.695313 C 428.98437,42.804689 429.14062,42.937502 429.39063,43.09375 C 431.07811,43.234376 432.07811,43.335939 432.39063,43.398438 C 432.60936,43.414064 432.77343,43.429689 432.88281,43.445313 C 433.55467,43.460939 434.02342,43.554688 434.28906,43.726563 C 434.42967,43.804688 434.49999,43.921876 434.5,44.078125 C 434.49999,44.171875 434.43749,44.296875 434.3125,44.453125 L 431.71094,44.429688 L 430.72656,44.40625 L 429.29688,44.429688 L 426.90625,44.429688 L 425.61719,44.5 L 421.67969,44.570313 z M 453.85938,27.484375 L 453.88281,26.804688 L 453.85938,24.0625 L 453.88281,18.882813 C 453.8828,17.44534 453.72655,16.531278 453.41406,16.140625 C 453.10155,15.750029 452.18748,15.351592 450.67188,14.945313 C 450.56249,14.914092 450.39061,14.867217 450.15625,14.804688 L 450.15625,14.546875 C 450.15624,14.390655 450.17186,14.21878 450.20313,14.03125 C 452.32811,13.812531 454.15623,13.445344 455.6875,12.929688 L 456.88281,12.90625 C 456.94529,13.968781 456.97654,15.156279 456.97656,16.46875 L 456.88281,25.492188 L 457.04688,35.664063 L 456.97656,41.078125 C 456.97654,42.187502 457.05467,42.812502 457.21094,42.953125 C 457.52342,43.265626 458.21092,43.429689 459.27344,43.445313 C 459.49216,43.445314 459.78904,43.460939 460.16406,43.492188 L 460.16406,43.914063 C 460.16404,44.023438 460.15623,44.140625 460.14063,44.265625 C 459.65623,44.375 459.15623,44.476563 458.64063,44.570313 L 455.24219,45.226563 C 454.74217,45.320312 454.34373,45.367187 454.04688,45.367188 L 454.04688,43.117188 C 453.78123,43.195314 453.36717,43.351564 452.80469,43.585938 C 450.36717,44.617187 448.12499,45.132812 446.07813,45.132813 C 444.84374,45.132812 443.58593,44.730469 442.30469,43.925781 C 441.02343,43.121095 440.03906,42.000003 439.35156,40.5625 C 438.66406,39.125005 438.32031,37.656257 438.32031,36.15625 C 438.32031,34.81251 438.54687,33.527355 439,32.300781 C 439.45312,31.074232 440.04687,30.054702 440.78125,29.242188 C 441.25,28.710953 441.91406,28.18361 442.77344,27.660156 C 443.63281,27.136736 444.34374,26.804705 444.90625,26.664063 C 446.29687,26.304706 447.22655,26.125018 447.69531,26.125 C 449.80467,26.125018 451.53905,26.437518 452.89844,27.0625 C 453.3203,27.265642 453.64061,27.406267 453.85938,27.484375 L 453.85938,27.484375 z M 453.88281,41.96875 C 453.9453,40.921879 453.97655,38.765631 453.97656,35.5 C 453.97655,32.734387 453.84764,30.988295 453.58984,30.261719 C 453.33201,29.535171 452.68748,28.847672 451.65625,28.199219 C 450.62499,27.550798 449.46874,27.22658 448.1875,27.226563 C 446.39062,27.22658 444.86718,27.921892 443.61719,29.3125 C 442.36718,30.703139 441.74218,32.757824 441.74219,35.476563 C 441.74218,37.867194 442.41796,39.773442 443.76953,41.195313 C 445.12109,42.617189 446.80468,43.328126 448.82031,43.328125 C 449.97655,43.328126 451.03124,43.171876 451.98438,42.859375 C 452.93748,42.546877 453.5703,42.250002 453.88281,41.96875 L 453.88281,41.96875 z M 464.14844,38.546875 C 464.72656,40.031254 465.16406,40.992191 465.46094,41.429688 C 466.05468,42.320315 466.76562,43.01172 467.59375,43.503906 C 468.42187,43.996094 469.3203,44.242188 470.28906,44.242188 C 471.17968,44.242188 472.06249,43.859376 472.9375,43.09375 C 473.56249,42.515627 473.87499,41.843753 473.875,41.078125 C 473.87499,40.062504 473.5078,39.125005 472.77344,38.265625 C 472.03905,37.421882 470.64452,36.613289 468.58984,35.839844 C 466.53515,35.066416 465.15625,34.242198 464.45313,33.367188 C 463.75,32.4922 463.39843,31.492201 463.39844,30.367188 C 463.39843,29.304703 463.6875,28.367204 464.26563,27.554688 C 464.84375,26.742205 465.64062,26.128925 466.65625,25.714844 C 467.67187,25.3008 468.60937,25.093769 469.46875,25.09375 C 470.57812,25.093769 471.57421,25.179707 472.45703,25.351563 C 473.33983,25.523456 474.10155,25.789081 474.74219,26.148438 C 474.86717,26.94533 474.96874,28.117204 475.04688,29.664063 L 475.09375,30.414063 C 474.89061,30.429702 474.71874,30.437514 474.57813,30.4375 L 474.25,30.4375 C 473.78124,29.14064 473.06639,28.113298 472.10547,27.355469 C 471.14452,26.597674 470.1953,26.218768 469.25781,26.21875 C 468.3203,26.218768 467.56249,26.503924 466.98438,27.074219 C 466.40624,27.644548 466.11718,28.390641 466.11719,29.3125 C 466.11718,30.015639 466.35156,30.640639 466.82031,31.1875 C 467.28906,31.734388 468.38671,32.359387 470.11328,33.0625 C 471.83983,33.765636 473.09764,34.417979 473.88672,35.019531 C 474.67577,35.621103 475.2578,36.351571 475.63281,37.210938 C 476.0078,38.070319 476.1953,38.890631 476.19531,39.671875 C 476.1953,40.750004 475.83983,41.757815 475.12891,42.695313 C 474.41796,43.632813 473.52733,44.292969 472.45703,44.675781 C 471.38671,45.058593 470.42968,45.249999 469.58594,45.25 C 467.60156,45.249999 465.77343,44.882812 464.10156,44.148438 C 463.94531,44.023438 463.85937,43.789063 463.84375,43.445313 C 463.84375,43.304689 463.82812,43.078126 463.79688,42.765625 C 463.54687,40.656254 463.42187,39.406255 463.42188,39.015625 C 463.42187,38.828131 463.46093,38.703131 463.53906,38.640625 C 463.61718,38.578131 463.82031,38.546881 464.14844,38.546875 L 464.14844,38.546875 z M 493.28125,16.140625 C 493.28125,15.546904 493.48047,15.050811 493.87891,14.652344 C 494.27734,14.253936 494.75781,14.054718 495.32031,14.054688 C 495.89843,14.054718 496.38671,14.25003 496.78516,14.640625 C 497.18359,15.031279 497.38281,15.539091 497.38281,16.164063 C 497.38281,16.804715 497.16406,17.367215 496.72656,17.851563 C 496.41406,18.195339 495.95312,18.367214 495.34375,18.367188 C 494.76562,18.367214 494.27734,18.160183 493.87891,17.746094 C 493.48047,17.332058 493.28125,16.796903 493.28125,16.140625 L 493.28125,16.140625 z M 491.26563,56.59375 L 493.04688,54.414063 C 493.46875,53.742178 493.80078,53.039054 494.04297,52.304688 C 494.28515,51.570305 494.45312,50.664056 494.54688,49.585938 C 494.6875,47.789059 494.75781,46.210936 494.75781,44.851563 C 494.75781,44.460938 494.74218,43.914063 494.71094,43.210938 L 494.73438,39.554688 C 494.75,34.976572 494.71875,32.02345 494.64063,30.695313 C 494.59375,29.867202 494.46875,29.351578 494.26563,29.148438 C 493.96875,28.867203 493.28906,28.679703 492.22656,28.585938 C 492.11719,28.570328 491.96094,28.554703 491.75781,28.539063 L 491.80469,27.648438 C 493.85156,27.13283 495.33593,26.265643 496.25781,25.046875 C 496.46093,24.796895 496.68749,24.546895 496.9375,24.296875 L 497.10156,24.273438 C 497.17968,24.273458 497.28906,24.304708 497.42969,24.367188 L 497.5,32.898438 C 497.60937,38.851568 497.66406,42.08594 497.66406,42.601563 C 497.66406,45.601561 497.51171,47.77734 497.20703,49.128906 C 496.90234,50.480463 496.32812,51.828118 495.48438,53.171875 C 494.89062,54.109365 494.03906,55.078114 492.92969,56.078125 L 491.96875,56.945313 L 491.64063,57.132813 C 491.5,57.0078 491.375,56.828113 491.26563,56.59375 L 491.26563,56.59375 z M 502.02344,26.101563 L 503.78125,26.101563 L 504.55469,26.148438 L 505.16406,26.101563 C 506.77343,26.101581 507.77343,26.117206 508.16406,26.148438 L 508.1875,26.59375 C 508.18749,28.796891 508.15624,30.929701 508.09375,32.992188 C 508.04687,34.210948 508.02343,34.90626 508.02344,35.078125 C 508.02343,37.828132 508.11327,39.54688 508.29297,40.234375 C 508.47265,40.921879 508.89452,41.472659 509.55859,41.886719 C 510.22265,42.300783 511.02343,42.507814 511.96094,42.507813 C 513.10155,42.507814 514.19139,42.269533 515.23047,41.792969 C 516.26952,41.316409 517.15623,40.734379 517.89063,40.046875 C 517.96873,39.45313 518.0078,38.796881 518.00781,38.078125 C 518.0078,35.750009 518.03123,34.179698 518.07813,33.367188 C 518.09373,32.882824 518.10155,32.46095 518.10156,32.101563 C 518.10155,29.570327 517.97655,28.140641 517.72656,27.8125 C 517.47655,27.484392 516.52342,27.234392 514.86719,27.0625 C 514.3203,27.000017 513.92186,26.94533 513.67188,26.898438 C 513.54686,26.69533 513.48436,26.53908 513.48438,26.429688 L 513.55469,26.171875 C 513.96092,26.125018 514.35936,26.101581 514.75,26.101563 L 518.47656,26.148438 C 519.80467,26.117206 520.50779,26.101581 520.58594,26.101563 C 520.75779,26.101581 520.92186,26.109393 521.07813,26.125 L 521.125,27.835938 C 521.01561,30.210952 520.95311,33.148449 520.9375,36.648438 L 520.89063,38.546875 L 520.98438,41.734375 C 521.12498,41.984378 521.24998,42.132815 521.35938,42.179688 C 521.54685,42.257815 521.92967,42.296877 522.50781,42.296875 L 522.71875,42.296875 C 522.92185,42.296877 523.49998,42.343752 524.45313,42.4375 C 524.46873,42.640627 524.47654,42.789064 524.47656,42.882813 L 524.47656,43.140625 C 522.38279,43.593751 520.68748,44.046875 519.39063,44.5 C 518.87498,44.671875 518.43748,44.796875 518.07813,44.875 C 517.99998,44.328125 517.96092,43.992188 517.96094,43.867188 L 517.96094,41.96875 C 517.96092,41.890628 517.95311,41.67969 517.9375,41.335938 C 517.73436,41.476566 517.49998,41.64844 517.23438,41.851563 C 515.99999,42.804689 514.6953,43.609376 513.32031,44.265625 C 512.39843,44.71875 511.5078,44.945312 510.64844,44.945313 C 509.0078,44.945312 507.67187,44.335938 506.64063,43.117188 C 505.59375,41.89844 505.07031,39.820317 505.07031,36.882813 C 505.07031,36.72657 505.07812,36.445321 505.09375,36.039063 C 505.15625,35.289072 505.1875,34.765635 505.1875,34.46875 C 505.1875,34.359385 505.17968,34.015635 505.16406,33.4375 C 505.14843,33.187511 505.14062,32.968762 505.14063,32.78125 C 505.14062,32.640637 505.14843,32.324231 505.16406,31.832031 C 505.17968,31.339857 505.1875,30.992201 505.1875,30.789063 C 505.1875,30.523451 505.17968,30.289077 505.16406,30.085938 L 505.11719,28.84375 L 505.14063,28.1875 C 505.14062,27.937517 505.01562,27.710954 504.76563,27.507813 C 503.78125,27.242205 503.13672,27.089861 502.83203,27.050781 C 502.52734,27.011736 502.25781,26.94533 502.02344,26.851563 L 502.02344,26.101563 z M 525.71875,43.679688 C 525.96875,43.507813 526.3125,43.390626 526.75,43.328125 C 527.375,43.250001 527.85937,43.125001 528.20313,42.953125 C 528.48437,42.718752 528.67187,42.382815 528.76563,41.945313 C 528.875,41.382816 528.92968,39.406255 528.92969,36.015625 C 528.92968,32.687512 528.82812,30.539076 528.625,29.570313 C 528.28125,29.351578 527.83593,29.179703 527.28906,29.054688 C 527.11719,29.023453 526.75781,28.937516 526.21094,28.796875 L 526.21094,28.023438 C 527.13281,27.757829 527.8789,27.41408 528.44922,26.992188 C 529.01953,26.57033 529.81249,25.726581 530.82813,24.460938 L 530.96875,24.460938 C 531.06249,24.460958 531.21093,24.453145 531.41406,24.4375 C 531.53906,24.453145 531.64062,24.492208 531.71875,24.554688 L 531.69531,27.226563 C 531.69531,27.773454 531.71093,28.359391 531.74219,28.984375 C 533.41405,27.468767 534.91405,26.406268 536.24219,25.796875 C 537.14843,25.390644 538.17186,25.187519 539.3125,25.1875 C 540.67186,25.187519 541.74998,25.445332 542.54688,25.960938 C 543.34373,26.476581 544.10154,27.406267 544.82031,28.75 C 546.21092,27.375017 547.47263,26.414081 548.60547,25.867188 C 549.73826,25.320332 550.88279,25.046894 552.03906,25.046875 C 553.78903,25.046894 555.22653,25.617206 556.35156,26.757813 C 557.4609,27.914079 558.03122,29.60939 558.0625,31.84375 L 558.0625,33.789063 L 558.08594,35.921875 L 558.0625,41.40625 C 558.04684,42.046877 558.18747,42.531252 558.48438,42.859375 C 558.60934,42.906252 559.0859,43.046876 559.91406,43.28125 C 560.42965,43.421876 560.73434,43.531251 560.82813,43.609375 C 560.92184,43.687501 560.96871,43.796876 560.96875,43.9375 C 560.96871,44.109375 560.92184,44.3125 560.82813,44.546875 L 560.66406,44.546875 L 558.29688,44.40625 C 558.01559,44.390625 557.57028,44.382813 556.96094,44.382813 C 556.21091,44.382813 555.16403,44.414063 553.82031,44.476563 L 552.625,44.476563 C 552.4531,44.476563 552.11716,44.484375 551.61719,44.5 C 551.60154,44.359375 551.59372,44.234375 551.59375,44.125 C 551.59372,44 551.64841,43.843751 551.75781,43.65625 C 552.17966,43.468751 552.75778,43.316407 553.49219,43.199219 C 554.22653,43.082033 554.68356,42.871095 554.86328,42.566406 C 555.04294,42.261721 555.13278,41.046878 555.13281,38.921875 C 555.13278,34.31251 555.07809,31.640638 554.96875,30.90625 C 554.78122,29.73439 554.28513,28.816422 553.48047,28.152344 C 552.67575,27.488298 551.66404,27.156267 550.44531,27.15625 C 549.50779,27.156267 548.59373,27.402361 547.70313,27.894531 C 546.81248,28.386735 545.93748,29.125015 545.07813,30.109375 L 545.05469,30.671875 L 545.05469,34.257813 L 544.96094,37.046875 C 544.96092,39.89063 544.98826,41.507815 545.04297,41.898438 C 545.09764,42.289065 545.23045,42.574221 545.44141,42.753906 C 545.65232,42.933595 546.2656,43.093751 547.28125,43.234375 C 547.73435,43.296876 548.08591,43.359376 548.33594,43.421875 C 548.52341,43.578126 548.61716,43.781251 548.61719,44.03125 C 548.61716,44.234375 548.54685,44.375 548.40625,44.453125 L 548.00781,44.453125 L 546.83594,44.429688 L 540.01563,44.429688 L 538.14063,44.453125 C 538.10936,44.21875 538.09374,44.046875 538.09375,43.9375 L 538.11719,43.65625 C 538.46092,43.468751 539.10155,43.289064 540.03906,43.117188 C 540.52342,43.039064 541.02342,42.906252 541.53906,42.71875 C 541.6328,42.640627 541.70311,42.539064 541.75,42.414063 C 541.82811,42.195315 541.8828,41.570315 541.91406,40.539063 L 542.03125,37.820313 L 541.98438,34.75 L 542.00781,33.039063 C 542.0078,31.117201 541.61717,29.714859 540.83594,28.832031 C 540.05467,27.949235 539.0703,27.507829 537.88281,27.507813 C 536.77343,27.507829 535.66015,27.781267 534.54297,28.328125 C 533.42577,28.875016 532.49999,29.60939 531.76563,30.53125 C 531.74999,30.968764 531.74218,31.367201 531.74219,31.726563 L 531.83594,39.601563 C 531.85156,41.320316 531.94921,42.300783 532.12891,42.542969 C 532.30859,42.785158 532.71093,42.953127 533.33594,43.046875 C 534.33593,43.187501 534.98436,43.359376 535.28125,43.5625 C 535.42186,43.656251 535.49218,43.796876 535.49219,43.984375 C 535.49218,44.109375 535.48436,44.257813 535.46875,44.429688 C 533.68749,44.304688 532.49218,44.242188 531.88281,44.242188 C 531.25781,44.242188 530.69531,44.25 530.19531,44.265625 L 529.02344,44.335938 L 528.29688,44.335938 L 525.67188,44.429688 C 525.64062,44.320313 525.625,44.226563 525.625,44.148438 C 525.625,44.070313 525.65625,43.914063 525.71875,43.679688 L 525.71875,43.679688 z M 562.39844,56.734375 C 562.38281,56.562488 562.375,56.406238 562.375,56.265625 C 562.375,56.156238 562.39062,56.023426 562.42188,55.867188 L 564.76563,55.398438 C 565.14062,55.210927 565.44531,54.984365 565.67969,54.71875 C 565.75781,54.43749 565.79687,54.15624 565.79688,53.875 C 565.79687,51.468743 565.73437,46.88281 565.60938,40.117188 L 565.53906,31.539063 C 565.50781,30.179702 565.42187,29.320328 565.28125,28.960938 C 565.20312,28.773453 565.08593,28.625016 564.92969,28.515625 C 564.53906,28.218766 563.75781,27.968767 562.58594,27.765625 L 562.72656,27.0625 C 564.41406,26.343768 565.54297,25.785175 566.11328,25.386719 C 566.68359,24.988301 567.22656,24.429708 567.74219,23.710938 L 568.02344,23.640625 C 568.13281,23.640646 568.28906,23.687521 568.49219,23.78125 C 568.47656,24.765645 568.46874,25.414082 568.46875,25.726563 L 568.49219,28.304688 C 569.64843,27.429705 570.85155,26.777361 572.10156,26.347656 C 573.35155,25.917987 574.64842,25.703144 575.99219,25.703125 C 578.39842,25.703144 580.42967,26.550799 582.08594,28.246094 C 583.74217,29.941421 584.57029,32.125012 584.57031,34.796875 C 584.57029,36.781258 584.10545,38.562506 583.17578,40.140625 C 582.24607,41.718753 580.96482,42.898439 579.33203,43.679688 C 577.6992,44.460938 576.05467,44.851562 574.39844,44.851563 C 572.99218,44.851562 571.3828,44.46875 569.57031,43.703125 C 569.27343,43.578126 569.00781,43.468751 568.77344,43.375 C 568.74218,44.625 568.72656,45.734374 568.72656,46.703125 C 568.72656,51.531243 568.85937,54.234365 569.125,54.8125 C 569.26562,55.124989 569.70312,55.312489 570.4375,55.375 C 571.68749,55.468739 572.51561,55.648426 572.92188,55.914063 C 573.15624,56.054676 573.31249,56.335926 573.39063,56.757813 L 571.07031,56.804688 L 568.96094,56.757813 L 565.44531,56.78125 L 562.39844,56.734375 z M 568.51563,29.921875 C 568.48437,30.140639 568.46874,30.343764 568.46875,30.53125 C 568.46874,36.109383 568.52343,39.23438 568.63281,39.90625 C 568.85156,41.140628 569.28906,42.007815 569.94531,42.507813 C 570.96093,43.304689 572.41405,43.703126 574.30469,43.703125 C 576.2578,43.703126 577.90623,43.027345 579.25,41.675781 C 580.59373,40.324223 581.26561,38.570318 581.26563,36.414063 C 581.26561,33.820323 580.55467,31.765638 579.13281,30.25 C 577.71092,28.734391 575.83592,27.976579 573.50781,27.976563 C 572.52343,27.976579 571.61718,28.136735 570.78906,28.457031 C 569.96093,28.777359 569.20312,29.26564 568.51563,29.921875 L 568.51563,29.921875 z M 618.10938,24.695313 L 618.97656,24.695313 L 619.02344,25.539063 L 618.97656,30.554688 L 619,37.773438 C 618.99998,39.039068 618.99217,39.92188 618.97656,40.421875 L 618.95313,41.054688 L 618.97656,41.992188 L 618.95313,43.515625 L 619.02344,46.234375 L 618.97656,49.351563 L 619,52.257813 C 618.99998,52.539054 618.99217,53.007804 618.97656,53.664063 C 618.96092,53.867178 618.9531,54.039053 618.95313,54.179688 C 618.9531,54.554677 619.0781,54.898427 619.32813,55.210938 C 619.42185,55.257802 619.5156,55.312489 619.60938,55.375 C 619.78123,55.484364 620.00779,55.574208 620.28906,55.644531 C 620.57029,55.714833 620.82029,55.781239 621.03906,55.84375 C 621.38279,55.953114 621.7031,56.031238 622,56.078125 C 622.1406,56.234363 622.21091,56.382801 622.21094,56.523438 L 622.1875,56.757813 C 621.79685,56.773425 621.55466,56.781238 621.46094,56.78125 L 614.82813,56.664063 C 613.92186,56.66405 612.92967,56.687488 611.85156,56.734375 C 611.78905,56.578113 611.7578,56.460926 611.75781,56.382813 C 611.7578,56.304676 611.78905,56.195301 611.85156,56.054688 C 613.97655,55.632801 615.09373,55.382802 615.20313,55.304688 C 615.46873,55.164052 615.64842,54.890615 615.74219,54.484375 C 615.97654,53.624991 616.09373,51.71093 616.09375,48.742188 C 616.09373,46.351561 616.07811,44.210938 616.04688,42.320313 C 615.79686,42.42969 615.30467,42.656252 614.57031,43 C 612.41405,43.984376 610.5703,44.476563 609.03906,44.476563 C 607.64843,44.476563 606.20702,44.117188 604.71484,43.398438 C 603.22265,42.679689 602.05078,41.58594 601.19922,40.117188 C 600.34765,38.648443 599.92187,37.093757 599.92188,35.453125 C 599.92187,32.718762 600.90234,30.41017 602.86328,28.527344 C 604.82421,26.644549 607.17968,25.703144 609.92969,25.703125 C 611.1953,25.703144 612.62499,26.000018 614.21875,26.59375 C 615.35936,27.031267 616.20311,27.250017 616.75,27.25 C 616.95311,27.250017 617.11717,27.16408 617.24219,26.992188 C 617.46092,26.72658 617.74998,25.960956 618.10938,24.695313 L 618.10938,24.695313 z M 614.05469,42.0625 C 615.03905,41.687503 615.65623,41.359378 615.90625,41.078125 L 616.07031,36.4375 C 616.07029,33.406261 615.89842,31.386732 615.55469,30.378906 C 615.21092,29.371109 614.56248,28.507828 613.60938,27.789063 C 612.65624,27.07033 611.5078,26.710955 610.16406,26.710938 C 607.91405,26.710955 606.18749,27.640642 604.98438,29.5 C 604.06249,30.906264 603.60156,32.609387 603.60156,34.609375 C 603.60156,36.000009 603.91796,37.281257 604.55078,38.453125 C 605.18359,39.625005 606.15234,40.582035 607.45703,41.324219 C 608.76171,42.066409 609.99999,42.437502 611.17188,42.4375 C 612.21874,42.437502 613.17967,42.312502 614.05469,42.0625 L 614.05469,42.0625 z M 622.58594,26.101563 L 624.34375,26.101563 L 625.11719,26.148438 L 625.72656,26.101563 C 627.33593,26.101581 628.33593,26.117206 628.72656,26.148438 L 628.75,26.59375 C 628.74999,28.796891 628.71874,30.929701 628.65625,32.992188 C 628.60937,34.210948 628.58593,34.90626 628.58594,35.078125 C 628.58593,37.828132 628.67577,39.54688 628.85547,40.234375 C 629.03515,40.921879 629.45702,41.472659 630.12109,41.886719 C 630.78515,42.300783 631.58593,42.507814 632.52344,42.507813 C 633.66405,42.507814 634.75389,42.269533 635.79297,41.792969 C 636.83202,41.316409 637.71873,40.734379 638.45313,40.046875 C 638.53123,39.45313 638.5703,38.796881 638.57031,38.078125 C 638.5703,35.750009 638.59373,34.179698 638.64063,33.367188 C 638.65623,32.882824 638.66405,32.46095 638.66406,32.101563 C 638.66405,29.570327 638.53905,28.140641 638.28906,27.8125 C 638.03905,27.484392 637.08592,27.234392 635.42969,27.0625 C 634.8828,27.000017 634.48436,26.94533 634.23438,26.898438 C 634.10936,26.69533 634.04686,26.53908 634.04688,26.429688 L 634.11719,26.171875 C 634.52342,26.125018 634.92186,26.101581 635.3125,26.101563 L 639.03906,26.148438 C 640.36717,26.117206 641.07029,26.101581 641.14844,26.101563 C 641.32029,26.101581 641.48436,26.109393 641.64063,26.125 L 641.6875,27.835938 C 641.57811,30.210952 641.51561,33.148449 641.5,36.648438 L 641.45313,38.546875 L 641.54688,41.734375 C 641.68748,41.984378 641.81248,42.132815 641.92188,42.179688 C 642.10935,42.257815 642.49217,42.296877 643.07031,42.296875 L 643.28125,42.296875 C 643.48435,42.296877 644.06248,42.343752 645.01563,42.4375 C 645.03123,42.640627 645.03904,42.789064 645.03906,42.882813 L 645.03906,43.140625 C 642.94529,43.593751 641.24998,44.046875 639.95313,44.5 C 639.43748,44.671875 638.99998,44.796875 638.64063,44.875 C 638.56248,44.328125 638.52342,43.992188 638.52344,43.867188 L 638.52344,41.96875 C 638.52342,41.890628 638.51561,41.67969 638.5,41.335938 C 638.29686,41.476566 638.06248,41.64844 637.79688,41.851563 C 636.56249,42.804689 635.2578,43.609376 633.88281,44.265625 C 632.96093,44.71875 632.0703,44.945312 631.21094,44.945313 C 629.5703,44.945312 628.23437,44.335938 627.20313,43.117188 C 626.15625,41.89844 625.63281,39.820317 625.63281,36.882813 C 625.63281,36.72657 625.64062,36.445321 625.65625,36.039063 C 625.71875,35.289072 625.75,34.765635 625.75,34.46875 C 625.75,34.359385 625.74218,34.015635 625.72656,33.4375 C 625.71093,33.187511 625.70312,32.968762 625.70313,32.78125 C 625.70312,32.640637 625.71093,32.324231 625.72656,31.832031 C 625.74218,31.339857 625.75,30.992201 625.75,30.789063 C 625.75,30.523451 625.74218,30.289077 625.72656,30.085938 L 625.67969,28.84375 L 625.70313,28.1875 C 625.70312,27.937517 625.57812,27.710954 625.32813,27.507813 C 624.34375,27.242205 623.69922,27.089861 623.39453,27.050781 C 623.08984,27.011736 622.82031,26.94533 622.58594,26.851563 L 622.58594,26.101563 z M 648.67188,15.695313 C 648.67187,15.179717 648.87109,14.734405 649.26953,14.359375 C 649.66796,13.984406 650.14843,13.796906 650.71094,13.796875 C 651.28906,13.796906 651.79687,14.007843 652.23438,14.429688 C 652.67187,14.851592 652.89062,15.304717 652.89063,15.789063 C 652.89062,16.273466 652.67187,16.730497 652.23438,17.160156 C 651.79687,17.589871 651.28906,17.804714 650.71094,17.804688 C 650.13281,17.804714 649.64843,17.609402 649.25781,17.21875 C 648.86718,16.828153 648.67187,16.320341 648.67188,15.695313 L 648.67188,15.695313 z M 646.70313,27.835938 L 646.72656,27.15625 C 647.74219,26.859393 648.28906,26.687518 648.36719,26.640625 C 648.92968,26.390643 649.51953,26.007831 650.13672,25.492188 C 650.7539,24.976582 651.27343,24.398458 651.69531,23.757813 C 651.88281,23.726583 652.03124,23.710958 652.14063,23.710938 L 652.42188,23.734375 C 652.48437,24.484395 652.51562,25.031269 652.51563,25.375 C 652.51562,25.453144 652.49999,25.804706 652.46875,26.429688 L 652.46875,27.671875 L 652.49219,34.421875 L 652.42188,41.570313 C 652.40624,42.14844 652.49999,42.550783 652.70313,42.777344 C 652.90624,43.003908 653.5078,43.257814 654.50781,43.539063 C 655.1328,43.710938 655.60155,43.859376 655.91406,43.984375 C 655.96093,44.09375 655.98436,44.1875 655.98438,44.265625 C 655.98436,44.359375 655.9453,44.476563 655.86719,44.617188 C 655.2578,44.601562 654.47655,44.5625 653.52344,44.5 C 652.22656,44.390625 651.36718,44.335938 650.94531,44.335938 C 650.74218,44.335938 649.49218,44.375 647.19531,44.453125 C 646.72656,44.46875 646.27344,44.507812 645.83594,44.570313 C 645.75781,44.570312 645.63281,44.546875 645.46094,44.5 C 645.38281,44.390625 645.34375,44.296875 645.34375,44.21875 C 645.34375,44 645.49219,43.828126 645.78906,43.703125 C 645.85156,43.671876 646.64844,43.492189 648.17969,43.164063 C 648.67968,43.070314 649.00781,42.914064 649.16406,42.695313 C 649.42968,42.36719 649.5625,41.843753 649.5625,41.125 C 649.59375,39.92188 649.60937,36.625008 649.60938,31.234375 C 649.60937,30.156264 649.5625,29.48439 649.46875,29.21875 C 649.39062,29.031265 649.18359,28.816422 648.84766,28.574219 C 648.51172,28.332047 647.79687,28.085954 646.70313,27.835938 L 646.70313,27.835938 z M 675.03906,40.210938 L 675.0625,41.734375 C 673.84373,43.031251 672.64061,43.937501 671.45313,44.453125 C 670.26561,44.96875 668.86717,45.226562 667.25781,45.226563 C 665.5078,45.226562 663.92968,44.769531 662.52344,43.855469 C 661.11718,42.941408 660.03515,41.64844 659.27734,39.976563 C 658.51953,38.304694 658.14062,36.66407 658.14063,35.054688 C 658.14062,33.289074 658.59765,31.621107 659.51172,30.050781 C 660.42578,28.480485 661.63671,27.308611 663.14453,26.535156 C 664.65234,25.761737 666.54686,25.375019 668.82813,25.375 C 671.01561,25.375019 672.67967,25.750019 673.82031,26.5 C 674.46092,26.937518 674.78123,27.500017 674.78125,28.1875 C 674.78123,28.687516 674.61717,29.101578 674.28906,29.429688 C 673.96092,29.757827 673.53905,29.92189 673.02344,29.921875 C 672.24217,29.92189 671.3828,29.437515 670.44531,28.46875 C 669.86717,27.875017 669.34374,27.464861 668.875,27.238281 C 668.40624,27.011736 667.8828,26.898455 667.30469,26.898438 C 665.91405,26.898455 664.7578,27.468767 663.83594,28.609375 C 662.55468,30.234389 661.91406,32.27345 661.91406,34.726563 C 661.91406,37.25782 662.57031,39.273443 663.88281,40.773438 C 665.1953,42.27344 666.72655,43.023439 668.47656,43.023438 C 669.6953,43.023439 670.77733,42.82422 671.72266,42.425781 C 672.66795,42.027346 673.77342,41.289066 675.03906,40.210938 L 675.03906,40.210938 z M 677.54688,44.5 L 677.5,43.820313 C 677.625,43.726563 677.74219,43.66797 677.85156,43.644531 C 677.96094,43.621095 678.35547,43.585938 679.03516,43.539063 C 679.71484,43.492189 680.14062,43.339845 680.3125,43.082031 C 680.48437,42.82422 680.57031,41.757815 680.57031,39.882813 L 680.61719,30.625 L 680.57031,28.984375 C 680.57031,28.843766 680.58593,28.320329 680.61719,27.414063 C 680.64843,26.992205 680.66406,26.484393 680.66406,25.890625 L 680.57031,21.8125 L 680.59375,18.25 C 680.59375,17.390652 680.47265,16.839871 680.23047,16.597656 C 679.98828,16.355497 679.13281,16.132841 677.66406,15.929688 L 677.66406,15.648438 C 677.66406,15.554716 677.67187,15.421904 677.6875,15.25 C 678.57812,15.062529 679.36718,14.828155 680.05469,14.546875 C 680.41406,14.390655 681.32812,13.906281 682.79688,13.09375 L 683.52344,13.09375 C 683.50781,13.453156 683.49999,13.671906 683.5,13.75 L 683.5,15.789063 L 683.47656,16.796875 L 683.54688,18.648438 L 683.52344,21.4375 L 683.54688,26.078125 L 683.47656,31.84375 L 683.47656,33.625 C 683.47656,33.843761 683.48437,34.148448 683.5,34.539063 L 683.75781,34.5625 C 684.28905,34.56251 684.82812,34.367198 685.375,33.976563 C 687.82811,32.226575 689.36717,31.03517 689.99219,30.402344 C 690.61717,29.769546 690.92967,29.312515 690.92969,29.03125 C 690.92967,28.859391 690.82811,28.640641 690.625,28.375 C 690.15624,28.125016 689.6328,27.953142 689.05469,27.859375 C 688.8828,27.828142 688.6953,27.789079 688.49219,27.742188 C 688.21093,27.664079 687.97655,27.609392 687.78906,27.578125 L 687.74219,27.34375 C 687.74218,27.234392 687.78124,27.078142 687.85938,26.875 C 690.32811,26.781268 692.47655,26.734393 694.30469,26.734375 C 695.33592,26.734393 696.43748,26.75783 697.60938,26.804688 L 697.60938,27.109375 C 697.60935,27.218767 697.57029,27.359392 697.49219,27.53125 C 697.25779,27.578142 696.8906,27.648454 696.39063,27.742188 C 695.42186,27.898454 694.68748,28.117204 694.1875,28.398438 C 692.98436,29.039078 691.74217,29.937515 690.46094,31.09375 C 689.6953,31.781263 689.03124,32.359387 688.46875,32.828125 L 687.625,33.554688 C 687.68749,33.664073 687.78905,33.796886 687.92969,33.953125 C 687.99218,34.015635 688.11718,34.15626 688.30469,34.375 C 688.49218,34.59376 688.82811,34.960947 689.3125,35.476563 C 690.99999,37.25782 692.24998,38.632818 693.0625,39.601563 C 693.32811,39.914067 693.62498,40.257817 693.95313,40.632813 C 695.17186,41.99219 695.88279,42.750002 696.08594,42.90625 C 696.52342,43.187501 697.17185,43.406251 698.03125,43.5625 C 698.43748,43.640626 698.78904,43.710938 699.08594,43.773438 C 699.14841,43.960938 699.17966,44.109375 699.17969,44.21875 L 699.15625,44.453125 C 698.04685,44.359375 697.24998,44.3125 696.76563,44.3125 L 696.34375,44.3125 L 689.82813,44.5 C 689.57811,44.53125 689.40624,44.546875 689.3125,44.546875 C 689.15624,44.546875 688.99217,44.515625 688.82031,44.453125 C 688.77343,44.328125 688.74999,44.21875 688.75,44.125 L 688.75,43.960938 C 688.84374,43.820313 688.92967,43.734376 689.00781,43.703125 C 690.55467,43.578126 691.45311,43.476564 691.70313,43.398438 C 691.84373,43.367189 691.97655,43.281251 692.10156,43.140625 C 692.10155,42.875002 691.87498,42.445315 691.42188,41.851563 C 690.96874,41.257816 689.83592,39.95313 688.02344,37.9375 C 686.86718,36.656258 686.12108,35.910165 685.78516,35.699219 C 685.44921,35.48829 684.98437,35.382822 684.39063,35.382813 L 683.5,35.382813 C 683.43749,35.945321 683.40624,37.234382 683.40625,39.25 C 683.40624,41.125003 683.56249,42.328127 683.875,42.859375 C 684.04687,43.156251 684.45312,43.343751 685.09375,43.421875 C 685.73437,43.500001 686.14843,43.617188 686.33594,43.773438 C 686.46093,43.867188 686.53905,44.085938 686.57031,44.429688 C 685.6328,44.414063 684.84374,44.40625 684.20313,44.40625 C 683.17187,44.40625 682.04687,44.429688 680.82813,44.476563 C 680.09375,44.507812 679.51562,44.523437 679.09375,44.523438 C 678.78125,44.523437 678.26562,44.515625 677.54688,44.5 L 677.54688,44.5 z M 700,15.460938 L 700,14.945313 C 700.4375,14.804717 700.92187,14.65628 701.45313,14.5 C 702.23437,14.25003 703.39062,13.867218 704.92188,13.351563 L 706.02344,13.351563 C 706.03906,14.101593 706.04687,14.53128 706.04688,14.640625 C 706.04687,27.468767 706.00781,35.117197 705.92969,37.585938 C 705.88281,39.039068 705.85937,39.812505 705.85938,39.90625 C 705.85937,41.656253 705.92968,42.632814 706.07031,42.835938 C 706.25781,43.117189 706.83202,43.312501 707.79297,43.421875 C 708.7539,43.531251 709.3203,43.640626 709.49219,43.75 C 709.61718,43.812501 709.67968,43.921876 709.67969,44.078125 C 709.67968,44.25 709.64452,44.371094 709.57422,44.441406 C 709.5039,44.511719 709.37499,44.546875 709.1875,44.546875 C 709.07811,44.546875 708.2578,44.523437 706.72656,44.476563 L 703.65625,44.382813 L 699.71875,44.546875 C 699.46875,44.5625 699.28125,44.515625 699.15625,44.40625 C 699.0625,44.328125 699.01562,44.21875 699.01563,44.078125 C 699.01562,43.921876 699.06641,43.808594 699.16797,43.738281 C 699.26953,43.66797 699.83203,43.546876 700.85547,43.375 C 701.8789,43.203126 702.46484,43.058595 702.61328,42.941406 C 702.76171,42.82422 702.85937,42.562502 702.90625,42.15625 C 702.96875,41.593753 703,40.007817 703,37.398438 L 702.97656,32.007813 L 703.04688,26.429688 L 703.02344,20.851563 L 703.09375,18.109375 C 703.09375,17.562527 703.00781,17.167996 702.83594,16.925781 C 702.66406,16.683622 702.29687,16.445341 701.73438,16.210938 C 700.89062,15.867216 700.3125,15.617216 700,15.460938 L 700,15.460938 z M 710.03125,26.03125 C 710.375,26.000018 710.66406,25.984394 710.89844,25.984375 L 712.02344,25.984375 L 713.54688,25.9375 L 715.53906,26.007813 L 717.15625,25.960938 C 718.01562,25.960956 718.78905,26.015643 719.47656,26.125 C 719.53905,26.281268 719.5703,26.406268 719.57031,26.5 L 719.54688,26.6875 C 719.21874,26.843768 718.71093,26.953143 718.02344,27.015625 C 717.05468,27.093767 716.35937,27.265642 715.9375,27.53125 L 715.89063,27.789063 C 715.89062,27.945329 715.95312,28.179704 716.07813,28.492188 C 716.15624,28.679703 716.25781,28.960953 716.38281,29.335938 C 716.72656,30.492202 717.46874,32.726574 718.60938,36.039063 C 719.43749,38.429694 720.20311,40.484379 720.90625,42.203125 C 721.34374,41.265628 721.84374,40.078129 722.40625,38.640625 L 724.39844,33.085938 C 724.83592,31.8672 725.17186,30.648451 725.40625,29.429688 C 725.49998,28.945328 725.54686,28.562516 725.54688,28.28125 C 725.54686,28.046891 725.4453,27.828142 725.24219,27.625 C 725.03905,27.421892 724.6328,27.250017 724.02344,27.109375 C 722.91405,26.828143 722.31249,26.652362 722.21875,26.582031 C 722.12499,26.511737 722.0703,26.359393 722.05469,26.125 C 722.14843,26.046893 722.2578,25.984394 722.38281,25.9375 L 723.83594,25.9375 L 725.40625,25.960938 L 727.75,25.9375 L 729.25,25.960938 L 729.625,25.9375 C 729.73436,25.937519 729.91404,25.953144 730.16406,25.984375 C 730.32029,26.062518 730.39842,26.187518 730.39844,26.359375 C 730.39842,26.515643 730.3281,26.656268 730.1875,26.78125 L 729.71875,26.851563 C 728.81248,26.97658 728.11717,27.210955 727.63281,27.554688 C 727.36717,27.742204 727.14061,28.132829 726.95313,28.726563 C 726.89061,28.945328 726.78905,29.226578 726.64844,29.570313 C 726.5703,29.757827 726.45701,30.070327 726.30859,30.507813 C 726.16014,30.945326 725.96873,31.460951 725.73438,32.054688 L 725.45313,32.710938 L 725.42969,32.828125 L 721.44531,43.328125 L 718.53906,51.226563 C 718.35155,51.61718 718.1328,52.101555 717.88281,52.679688 C 717.28905,53.789053 716.93749,54.398428 716.82813,54.507813 C 716.35937,55.085927 715.95312,55.492177 715.60938,55.726563 L 714.41406,56.242188 C 714.17968,56.304676 713.92968,56.335926 713.66406,56.335938 C 712.96093,56.335926 712.44531,56.183582 712.11719,55.878906 C 711.78906,55.574208 711.625,55.156239 711.625,54.625 C 711.625,54.12499 711.86719,53.671866 712.35156,53.265625 C 712.50781,53.218741 712.66406,53.156241 712.82031,53.078125 L 713.125,53.007813 C 714.51562,53.257804 715.38281,53.382804 715.72656,53.382813 C 716.05468,53.210929 716.29687,53.007804 716.45313,52.773438 C 717.21874,51.632805 717.87499,50.359369 718.42188,48.953125 C 718.96874,47.546872 719.24218,46.60156 719.24219,46.117188 C 719.24218,45.585936 719.03905,44.8125 718.63281,43.796875 L 716.03125,36.90625 C 715.67187,36.015633 714.60156,33.109386 712.82031,28.1875 C 712.71093,27.875017 712.57031,27.640642 712.39844,27.484375 L 710.80469,26.898438 L 710.3125,26.804688 C 710.04687,26.69533 709.91406,26.53908 709.91406,26.335938 L 710.03125,26.03125 z M 732.53125,42.601563 C 732.53125,41.914065 732.78515,41.312503 733.29297,40.796875 C 733.80078,40.281254 734.39062,40.023442 735.0625,40.023438 C 735.71874,40.023442 736.27343,40.265629 736.72656,40.75 C 737.17968,41.234378 737.40624,41.843753 737.40625,42.578125 C 737.40624,43.312501 737.16796,43.929688 736.69141,44.429688 C 736.21484,44.929687 735.64062,45.179687 734.96875,45.179688 C 734.3125,45.179687 733.74218,44.925781 733.25781,44.417969 C 732.77343,43.910157 732.53125,43.304689 732.53125,42.601563 L 732.53125,42.601563 z " transform="matrix(1,0,-0.176326,1,0,0)" />
</svg>