<?xml version="1.0" encoding="UTF-8" standalone="no"?>
<!-- Created with Inkscape (http://www.inkscape.org/) -->

<svg
   xmlns:dc="http://purl.org/dc/elements/1.1/"
   xmlns:cc="http://creativecommons.org/ns#"
   xmlns:rdf="http://www.w3.org/1999/02/22-rdf-syntax-ns#"
   xmlns:svg="http://www.w3.org/2000/svg"
   xmlns="http://www.w3.org/2000/svg"
   xmlns:sodipodi="http://sodipodi.sourceforge.net/DTD/sodipodi-0.dtd"
   xmlns:inkscape="http://www.inkscape.org/namespaces/inkscape"
   version="1.0"
   width="209"
   height="53"
   id="svg2583"
   inkscape:version="0.48.0 r9654"
   sodipodi:docname="Serif_and_sans-serif_03.svg">
  <metadata
     id="metadata3043">
    <rdf:RDF>
      <cc:Work
         rdf:about="">
        <dc:format>image/svg+xml</dc:format>
        <dc:type
           rdf:resource="http://purl.org/dc/dcmitype/StillImage" />
        <dc:title></dc:title>
      </cc:Work>
    </rdf:RDF>
  </metadata>
  <sodipodi:namedview
     pagecolor="#ffffff"
     bordercolor="#666666"
     borderopacity="1"
     objecttolerance="10"
     gridtolerance="10"
     guidetolerance="10"
     inkscape:pageopacity="0"
     inkscape:pageshadow="2"
     inkscape:window-width="1014"
     inkscape:window-height="522"
     id="namedview3041"
     showgrid="false"
     inkscape:zoom="2.8284271"
     inkscape:cx="116.00847"
     inkscape:cy="22.115681"
     inkscape:window-x="0"
     inkscape:window-y="25"
     inkscape:window-maximized="1"
     inkscape:current-layer="svg2583" />
  <defs
     id="defs2585" />
  <g
     style="font-size:62.41745377px;font-style:normal;font-weight:normal;line-height:125%;letter-spacing:0px;word-spacing:0px;fill:#000000;fill-opacity:1;stroke:none;font-family:Sans"
     id="text3045">
    <path
       d="m 16.058223,44.500243 0,1.50364 -12.5114253,0 0,-1.50364 4.3123281,-0.766006 12.9653552,-36.0873774 5.39041,0 13.476025,36.0873774 4.822999,0.766006 0,1.50364 -16.086119,0 0,-1.50364 5.106704,-0.766006 -3.773287,-10.979414 -14.979666,0 -3.830028,10.979414 5.106704,0.766006 m 6.099675,-32.76802 -6.525233,18.469247 13.24906,0 -6.723827,-18.469247"
       style="font-size:58.10294724px;font-variant:normal;font-stretch:normal;font-family:Liberation Serif;-inkscape-font-specification:Liberation Serif"
       id="path3929" />
    <path
       d="m 58.160162,18.739756 c 1.210464,2.8e-5 2.335829,0.11351 3.376099,0.340447 1.040237,0.226992 1.938638,0.614722 2.695205,1.163194 0.756529,0.548523 1.342854,1.295614 1.758976,2.241276 0.434994,0.926795 0.652502,2.099444 0.652524,3.517952 l 0,18.015318 3.319358,0.709264 0,1.276676 -7.31961,0 -0.539041,-2.666834 c -0.283723,0.283708 -0.671454,0.614698 -1.163194,0.99297 -0.472858,0.378276 -1.049726,0.737636 -1.730605,1.078082 -0.680908,0.321534 -1.475283,0.595782 -2.383129,0.822747 -0.888956,0.226964 -1.881925,0.340446 -2.978911,0.340447 -1.28614,-10e-7 -2.373678,-0.198594 -3.262616,-0.595782 -0.870036,-0.397188 -1.569843,-0.945685 -2.099423,-1.645494 -0.529587,-0.718719 -0.907861,-1.560378 -1.134823,-2.524981 -0.226967,-0.983509 -0.340449,-2.042676 -0.340447,-3.177505 -2e-6,-1.172642 0.14185,-2.184525 0.425558,-3.035652 0.283703,-0.87002 0.680891,-1.598198 1.191565,-2.184535 0.510666,-0.586312 1.106447,-1.059155 1.787346,-1.418529 0.699802,-0.37826 1.446893,-0.671422 2.241276,-0.879488 0.813281,-0.208036 1.664398,-0.349889 2.553352,-0.425559 0.907847,-0.07564 1.815705,-0.122923 2.723576,-0.141853 l 4.000251,-0.113482 0,-4.170475 c -1.6e-5,-0.794356 -0.06621,-1.513076 -0.198594,-2.156164 -0.132412,-0.661958 -0.359377,-1.229369 -0.680893,-1.702235 -0.302636,-0.472819 -0.718737,-0.841636 -1.248306,-1.106453 -0.529598,-0.264767 -1.191578,-0.397163 -1.985941,-0.397188 -0.90787,2.5e-5 -1.825185,0.122964 -2.751946,0.368818 -0.926781,0.245903 -1.74007,0.567436 -2.43987,0.9646 l -0.964599,3.319357 -1.588753,0 0,-5.815968 c 1.229386,-0.264766 2.496604,-0.49173 3.801658,-0.680894 1.32395,-0.208024 2.751934,-0.312049 4.283957,-0.312077 m 3.773287,13.67462 -3.716545,0.113482 c -1.115922,0.03784 -2.080521,0.151323 -2.8938,0.340447 -0.813299,0.170236 -1.484735,0.472856 -2.014311,0.907859 -0.529592,0.435027 -0.926779,1.030808 -1.191564,1.787346 -0.264799,0.756559 -0.397195,1.721157 -0.397188,2.893799 -7e-6,3.328819 1.352323,4.993225 4.056993,4.993222 1.286121,3e-6 2.392572,-0.14185 3.319358,-0.425559 0.94567,-0.302616 1.891355,-0.68089 2.837057,-1.134823 l 0,-9.475773"
       style="font-size:58.10294724px;font-variant:normal;font-stretch:normal;font-family:Liberation Serif;-inkscape-font-specification:Liberation Serif"
       id="path3931" />
    <path
       d="m 97.907349,17.179374 c -2.8e-5,-1.115879 -0.170251,-2.089935 -0.510671,-2.922169 -0.321559,-0.832171 -0.851143,-1.522522 -1.588752,-2.071053 -0.73766,-0.567377 -1.692802,-0.983478 -2.865429,-1.248305 -1.172672,-0.283671 -2.610113,-0.425523 -4.312328,-0.425559 l -5.87271,0 0,14.383884 6.213157,0 c 1.758956,2.1e-5 3.215311,-0.179659 4.369069,-0.539041 1.153713,-0.378252 2.061571,-0.898379 2.723576,-1.560382 0.680868,-0.68087 1.15371,-1.494159 1.418529,-2.43987 0.283679,-0.945659 0.425531,-2.004826 0.425559,-3.177505 m 2.865431,17.986948 c -3e-5,-1.323948 -0.21754,-2.468227 -0.65253,-3.43284 -0.416127,-0.964585 -1.078107,-1.75896 -1.985937,-2.383129 -0.888971,-0.643049 -2.042707,-1.115892 -3.46121,-1.418529 -1.418552,-0.321515 -3.120785,-0.482281 -5.106705,-0.4823 l -6.808939,0 0,16.001007 c 0.870018,0.03783 1.777876,0.0662 2.723576,0.08511 0.813274,0.03783 1.711675,0.0662 2.695205,0.08511 0.983495,2e-6 1.95755,2e-6 2.922169,0 1.777868,2e-6 3.281507,-0.198592 4.510923,-0.595783 1.229365,-0.397184 2.222335,-0.955138 2.978911,-1.673864 0.775433,-0.737629 1.333388,-1.626573 1.673867,-2.666834 0.34041,-1.040246 0.51064,-2.212896 0.51067,-3.517952 m -28.370583,10.837561 0,-1.50364 4.87974,-0.766006 0,-33.534025 -4.87974,-0.7376353 0,-1.5036407 17.391166,0 c 2.666813,3.8e-5 4.889172,0.2080887 6.667086,0.6241527 1.777862,0.3972252 3.205847,0.9835499 4.283961,1.7589763 1.07805,0.775497 1.84405,1.721182 2.29801,2.837058 0.4539,1.097027 0.68086,2.335875 0.6809,3.716546 -4e-5,1.191592 -0.19863,2.27913 -0.59578,3.262616 -0.37831,0.983539 -0.91735,1.853569 -1.61713,2.610094 -0.68092,0.737657 -1.50367,1.361809 -2.468238,1.872458 -0.964627,0.491777 -2.014338,0.860595 -3.149135,1.106452 1.645467,0.170244 3.130193,0.501234 4.454183,0.992971 1.34284,0.491775 2.47766,1.134841 3.40447,1.929199 0.92674,0.775479 1.636,1.702251 2.12779,2.780317 0.51064,1.078095 0.76597,2.279115 0.76601,3.603064 -4e-5,1.645503 -0.28374,3.158599 -0.85112,4.539292 -0.54853,1.361793 -1.41856,2.534443 -2.61009,3.517952 -1.1916,0.964602 -2.72361,1.72115 -4.596037,2.269647 -1.872485,0.529584 -4.132672,0.794376 -6.780569,0.794376 -2.118356,0 -4.227233,-0.02837 -6.326639,-0.08511 -2.099436,-0.05674 -4.03809,-0.08511 -5.815969,-0.08511 l -7.262869,0"
       style="font-size:58.10294724px;font-variant:normal;font-stretch:normal;font-family:Liberation Serif;-inkscape-font-specification:Liberation Serif"
       id="path3933" />
    <path
       d="m 131.27114,31.932076 c -2e-5,-1.929184 -0.1797,-3.546305 -0.53904,-4.851369 -0.34047,-1.32394 -0.84168,-2.392565 -1.50364,-3.205876 -0.64309,-0.813267 -1.428,-1.390135 -2.35476,-1.730605 -0.90787,-0.359337 -1.91976,-0.539017 -3.03565,-0.539041 -0.45394,2.4e-5 -0.9457,0.01894 -1.47527,0.05674 -0.51068,0.03785 -1.02135,0.10405 -1.53201,0.198594 -0.51068,0.07568 -1.00244,0.170247 -1.47527,0.283706 -0.47285,0.113506 -0.8795,0.245902 -1.21994,0.397188 l 0,21.136082 c 0.79437,0.151312 1.70223,0.264794 2.72358,0.340447 1.02133,0.07566 2.0143,0.113484 2.97891,0.113482 2.61008,2e-6 4.50145,-1.021338 5.67411,-3.064023 1.17263,-2.042674 1.75896,-5.08778 1.75898,-9.135326 m -17.84509,-24.2852164 -3.88677,-0.6808939 0,-1.2766761 8.59628,0 0,9.5325144 c -1e-5,0.359391 -0.009,0.775493 -0.0284,1.248306 -1e-5,0.453958 -0.009,0.936258 -0.0284,1.446899 -10e-6,0.491785 -0.0189,0.992998 -0.0567,1.503641 -0.0189,0.491783 -0.0378,0.964626 -0.0567,1.418529 0.85111,-0.661954 1.8819,-1.191538 3.09239,-1.588752 1.22938,-0.416075 2.58171,-0.624126 4.057,-0.624153 3.63141,2.7e-5 6.41172,1.106479 8.34095,3.319358 1.94808,2.194013 2.92214,5.522824 2.92217,9.986444 -3e-5,2.250744 -0.24591,4.283967 -0.73764,6.099674 -0.49178,1.79681 -1.24833,3.32882 -2.26965,4.596034 -1.02136,1.267222 -2.31695,2.241277 -3.88677,2.92217 -1.55094,0.680894 -3.39502,1.02134 -5.53226,1.021341 -0.90787,-10e-7 -1.83464,-0.05674 -2.78032,-0.170224 -0.92678,-0.09457 -1.84409,-0.226964 -2.75194,-0.397188 -0.90787,-0.170223 -1.78736,-0.368817 -2.63847,-0.595782 -0.85112,-0.245877 -1.63604,-0.510669 -2.35475,-0.794376 l 0,-36.9668654"
       style="font-size:58.10294724px;font-variant:normal;font-stretch:normal;font-family:Liberation Serif;-inkscape-font-specification:Liberation Serif"
       id="path3935" />
    <path
       d="m 160.54959,46.571295 c -3.10187,-10e-7 -5.87273,-0.435016 -8.31258,-1.305047 -2.42097,-0.870029 -4.47311,-2.12779 -6.15642,-3.773287 -1.66441,-1.645487 -2.93163,-3.65034 -3.80165,-6.014563 -0.87004,-2.383115 -1.30505,-5.068861 -1.30505,-8.057244 0,-3.404448 0.43501,-6.354985 1.30505,-8.851621 0.88894,-2.496581 2.16561,-4.558175 3.83002,-6.184787 1.68332,-1.645458 3.74491,-2.8653917 6.18479,-3.6598044 2.43985,-0.7943381 5.22962,-1.1915258 8.36932,-1.1915643 1.30502,3.85e-5 2.53441,0.047323 3.68818,0.1418529 1.15371,0.075693 2.2507,0.1797185 3.29098,0.3120764 1.05914,0.1324339 2.06157,0.2837435 3.00729,0.4539292 0.94565,0.1702609 1.86296,0.3499411 2.75194,0.539041 l 0.17022,8.3125802 -1.87245,0 -0.85112,-4.936481 c -1.32399,-0.813256 -2.86546,-1.437408 -4.62441,-1.872458 -1.74008,-0.453894 -3.51797,-0.6808581 -5.33366,-0.6808943 -2.21293,3.62e-5 -4.18941,0.3026553 -5.92946,0.9078583 -1.72116,0.605274 -3.17751,1.598243 -4.36906,2.978911 -1.19158,1.361819 -2.10889,3.168077 -2.75195,5.418781 -0.62416,2.231843 -0.93624,4.983787 -0.93623,8.255838 -10e-6,2.874902 0.31207,5.380967 0.93623,7.518204 0.62414,2.118346 1.52254,3.886777 2.6952,5.305299 1.17264,1.399619 2.60063,2.44933 4.28396,3.149134 1.70222,0.699809 3.63142,1.049713 5.7876,1.049711 1.17263,2e-6 2.28854,-0.07565 3.34773,-0.226964 1.07805,-0.151308 2.07102,-0.359359 2.97891,-0.624153 0.92674,-0.264789 1.74949,-0.567409 2.46824,-0.907859 0.7376,-0.359357 1.3523,-0.728174 1.84409,-1.106452 l 1.04971,-5.674116 1.84409,0 -0.17023,8.936732 c -0.79441,0.226966 -1.70227,0.45393 -2.72357,0.680894 -1.02138,0.208052 -2.10891,0.397189 -3.26262,0.567412 -1.15376,0.170223 -2.36424,0.302619 -3.63143,0.397188 -1.26725,0.09457 -2.53447,0.141852 -3.80166,0.141853"
       style="font-size:58.10294724px;font-variant:normal;font-stretch:normal;font-family:Liberation Serif;-inkscape-font-specification:Liberation Serif"
       id="path3937" />
    <path
       d="m 201.40321,44.38676 c -0.49178,0.359362 -1.0781,0.680895 -1.75897,0.9646 -0.68092,0.264792 -1.40909,0.4823 -2.18454,0.652523 -0.77548,0.189137 -1.58877,0.33099 -2.43987,0.425559 -0.83222,0.09457 -1.64551,0.141852 -2.43987,0.141853 -2.30748,-10e-7 -4.28396,-0.312077 -5.92945,-0.936229 -1.62658,-0.643066 -2.96,-1.569837 -4.00025,-2.780317 -1.04026,-1.210474 -1.80626,-2.685742 -2.29802,-4.42581 -0.49176,-1.758967 -0.73763,-3.744906 -0.73763,-5.957822 0,-2.42094 0.31207,-4.501447 0.93623,-6.241528 0.64306,-1.758954 1.532,-3.196395 2.66683,-4.312328 1.13482,-1.134798 2.47769,-1.967001 4.02862,-2.496611 1.56983,-0.529557 3.28152,-0.794349 5.13508,-0.794376 1.53199,2.7e-5 3.01672,0.0946 4.45418,0.283706 1.43742,0.17025 2.74247,0.368844 3.91514,0.595782 l 0,7.433092 -1.56038,0 -1.21994,-4.709516 c -0.69982,-0.397164 -1.55094,-0.718697 -2.55335,-0.9646 -0.98353,-0.245854 -2.01433,-0.368793 -3.09239,-0.368818 -1.22941,2.5e-5 -2.31694,0.22699 -3.26262,0.680894 -0.92678,0.43504 -1.72116,1.12539 -2.38313,2.071053 -0.64307,0.945707 -1.13483,2.146727 -1.47527,3.603063 -0.32154,1.456374 -0.4823,3.196434 -0.4823,5.220187 0,1.702246 0.14185,3.243713 0.42556,4.624404 0.2837,1.361796 0.78491,2.524988 1.50364,3.489582 0.71871,0.964604 1.68331,1.711695 2.8938,2.241275 1.22938,0.529587 2.7803,0.794379 4.65278,0.794377 0.64305,2e-6 1.29557,-0.01891 1.95757,-0.05674 0.68087,-0.05674 1.33339,-0.122937 1.95757,-0.198595 0.64304,-0.09457 1.23882,-0.198591 1.78734,-0.312076 0.56739,-0.113479 1.0686,-0.236418 1.50364,-0.368817 l 0,1.702234"
       style="font-size:58.10294724px;font-variant:normal;font-stretch:normal;font-family:Liberation Serif;-inkscape-font-specification:Liberation Serif"
       id="path3939" />
  </g>
</svg>
