<?xml version="1.0" encoding="UTF-8" standalone="no"?>
<!-- Created with Inkscape (http://www.inkscape.org/) -->

<svg
   xmlns:dc="http://purl.org/dc/elements/1.1/"
   xmlns:cc="http://creativecommons.org/ns#"
   xmlns:rdf="http://www.w3.org/1999/02/22-rdf-syntax-ns#"
   xmlns:svg="http://www.w3.org/2000/svg"
   xmlns="http://www.w3.org/2000/svg"
   xmlns:sodipodi="http://sodipodi.sourceforge.net/DTD/sodipodi-0.dtd"
   xmlns:inkscape="http://www.inkscape.org/namespaces/inkscape"
   version="1.0"
   width="211.70126"
   height="42.669353"
   id="svg2583"
   inkscape:version="0.48.0 r9654"
   sodipodi:docname="Serif_and_sans-serif_01.svg">
  <metadata
     id="metadata3043">
    <rdf:RDF>
      <cc:Work
         rdf:about="">
        <dc:format>image/svg+xml</dc:format>
        <dc:type
           rdf:resource="http://purl.org/dc/dcmitype/StillImage" />
        <dc:title></dc:title>
      </cc:Work>
    </rdf:RDF>
  </metadata>
  <sodipodi:namedview
     pagecolor="#ffffff"
     bordercolor="#666666"
     borderopacity="1"
     objecttolerance="10"
     gridtolerance="10"
     guidetolerance="10"
     inkscape:pageopacity="0"
     inkscape:pageshadow="2"
     inkscape:window-width="1014"
     inkscape:window-height="522"
     id="namedview3041"
     showgrid="false"
     inkscape:zoom="2.8284271"
     inkscape:cx="112.9156"
     inkscape:cy="15.686976"
     inkscape:window-x="0"
     inkscape:window-y="25"
     inkscape:window-maximized="1"
     inkscape:current-layer="svg2583"
     fit-margin-top="0"
     fit-margin-left="0"
     fit-margin-right="0"
     fit-margin-bottom="0" />
  <defs
     id="defs2585" />
  <g
     style="font-size:62.41745377px;font-style:normal;font-weight:normal;line-height:125%;letter-spacing:0px;word-spacing:0px;fill:#000000;fill-opacity:1;stroke:none;font-family:Sans"
     id="text3045">
    <path
       d="m 32.994984,42.10194 -4.567663,-11.688679 -18.213912,0 L 5.6173748,42.10194 0,42.10194 16.313083,2.1277934 l 6.156416,0 16.057748,39.9741466 -5.532263,0 M 21.675123,12.993725 C 21.372482,12.237206 21.07932,11.471202 20.795635,10.695708 20.530822,9.9202781 20.294401,9.2204712 20.08637,8.5962855 19.8783,7.9532532 19.698619,7.4236696 19.547329,7.0075331 19.414914,6.572553 19.339259,6.3077612 19.320365,6.2131568 c -0.03785,0.094604 -0.122959,0.3593962 -0.255335,0.7943763 -0.132416,0.4350502 -0.312096,0.9740907 -0.539041,1.617123 -0.20807,0.6430993 -0.453948,1.3523631 -0.737636,2.1277939 -0.264809,0.775493 -0.539058,1.541498 -0.822746,2.298017 l -5.106705,13.135578 14.951296,0 -5.135075,-13.19232"
       style="font-size:58.10294724px;font-variant:normal;font-stretch:normal;font-family:Liberation Sans;-inkscape-font-specification:Liberation Sans"
       id="path4050" />
    <path
       d="m 50.442889,42.669352 c -3.082945,-1e-6 -5.399873,-0.81329 -6.950792,-2.43987 -1.550928,-1.626577 -2.32639,-3.858393 -2.326388,-6.695457 -2e-6,-2.023757 0.378272,-3.678706 1.134824,-4.964851 0.775458,-1.305032 1.777884,-2.326372 3.007281,-3.064023 1.248298,-0.737618 2.666825,-1.248288 4.255587,-1.532011 1.58874,-0.283688 3.205861,-0.444454 4.851369,-0.4823 l 6.894051,-0.113482 0,-1.673865 c -2.3e-5,-1.267197 -0.132419,-2.345278 -0.397188,-3.234246 -0.264814,-0.88892 -0.671459,-1.607641 -1.219935,-2.156164 -0.548518,-0.548471 -1.238869,-0.945659 -2.071052,-1.191564 -0.813308,-0.264765 -1.777907,-0.397161 -2.8938,-0.397188 -0.983528,2.7e-5 -1.872472,0.07568 -2.666834,0.226964 -0.794389,0.132423 -1.484739,0.387758 -2.071052,0.766006 -0.586336,0.359387 -1.059179,0.8606 -1.418529,1.503641 -0.359371,0.624177 -0.595792,1.418552 -0.709265,2.383128 l -5.333669,-0.482299 c 0.189133,-1.210454 0.548494,-2.316906 1.078082,-3.319358 0.529579,-1.021314 1.27667,-1.900801 2.241276,-2.638464 0.983505,-0.737606 2.203439,-1.305017 3.659805,-1.702235 1.475258,-0.416071 3.253146,-0.624121 5.333669,-0.624153 3.858379,3.2e-5 6.761632,0.888976 8.709768,2.666835 1.948086,1.759003 2.922142,4.312352 2.922169,7.660056 l 0,13.22069 c -2.7e-5,1.513104 0.198567,2.657383 0.595783,3.432841 0.397159,0.756552 1.153707,1.134826 2.269646,1.134823 0.283675,3e-6 0.56738,-0.01891 0.851117,-0.05674 0.283674,-0.03782 0.557923,-0.08511 0.822747,-0.141853 l 0,3.177505 c -0.643098,0.151309 -1.286164,0.264792 -1.929199,0.340447 -0.624183,0.07565 -1.295619,0.113482 -2.014311,0.113482 -0.964627,0 -1.79683,-0.122939 -2.496611,-0.368818 -0.68092,-0.264791 -1.238874,-0.652522 -1.673865,-1.163193 -0.435039,-0.529583 -0.766029,-1.172649 -0.99297,-1.9292 -0.226988,-0.775458 -0.36884,-1.673859 -0.425559,-2.695205 l -0.170223,0 c -0.54852,0.983518 -1.153758,1.872462 -1.815717,2.666835 -0.643087,0.794378 -1.399635,1.475272 -2.269647,2.042681 -0.870048,0.548499 -1.863018,0.974057 -2.97891,1.276676 -1.097011,0.30262 -2.364229,0.453929 -3.801658,0.45393 m 1.163194,-3.830029 c 1.626565,4e-6 3.045093,-0.293159 4.255587,-0.879487 1.229373,-0.605235 2.241256,-1.37124 3.035652,-2.298017 0.813269,-0.926765 1.418507,-1.938648 1.815717,-3.035652 0.397165,-1.096986 0.595759,-2.146696 0.595782,-3.149135 l 0,-2.524981 -5.589004,0.113482 c -1.248322,0.01893 -2.439885,0.113497 -3.574693,0.283706 -1.115922,0.151324 -2.099435,0.4634 -2.950541,0.936229 -0.851127,0.472856 -1.53202,1.134836 -2.042681,1.98594 -0.491765,0.851129 -0.737643,1.967037 -0.737635,3.347729 -8e-6,1.664414 0.444464,2.950546 1.333417,3.858399 0.907848,0.907862 2.19398,1.361791 3.858399,1.361787"
       style="font-size:58.10294724px;font-variant:normal;font-stretch:normal;font-family:Liberation Sans;-inkscape-font-specification:Liberation Sans"
       id="path4052" />
    <path
       d="m 106.73012,30.83882 c -4e-5,2.023777 -0.39722,3.754381 -1.19157,5.191816 -0.79441,1.418534 -1.86303,2.581726 -3.20587,3.489581 -1.34291,0.888947 -2.903285,1.54147 -4.681147,1.95757 -1.777914,0.416102 -3.650371,0.624153 -5.617374,0.624153 l -16.227972,0 0,-39.9741466 14.525737,0 c 2.212883,3.99e-5 4.189365,0.1891769 5.929451,0.5674115 1.740035,0.3593998 3.215304,0.9362676 4.425815,1.7306054 1.21044,0.7944131 2.12776,1.8062961 2.75194,3.035652 0.64304,1.2105115 0.96457,2.6668667 0.9646,4.3690697 -3e-5,1.115938 -0.1608,2.165649 -0.4823,3.149134 -0.30265,0.98354 -0.77549,1.88194 -1.41853,2.695205 -0.62418,0.7944 -1.41856,1.48475 -2.38313,2.071052 -0.94571,0.567434 -2.052162,0.992992 -3.319354,1.276676 1.607639,0.189159 3.026166,0.557976 4.255584,1.106453 1.24828,0.548517 2.28853,1.248324 3.12077,2.099423 0.83217,0.851134 1.46578,1.844104 1.90083,2.978911 0.43498,1.115923 0.65248,2.3264 0.65252,3.631434 M 98.95658,12.483055 C 98.956552,10.326923 98.218918,8.785456 96.743675,7.8586505 95.26838,6.9319134 93.131132,6.4685277 90.331924,6.468492 l -9.106956,0 0,12.653279 9.106956,0 c 1.588731,2.3e-5 2.931604,-0.151287 4.028622,-0.45393 1.096971,-0.321509 1.985915,-0.765981 2.666835,-1.333417 0.680867,-0.5863 1.172623,-1.286107 1.47527,-2.099423 0.302591,-0.813262 0.453901,-1.730577 0.453929,-2.751946 m 2.29802,17.930206 c -3e-5,-1.267206 -0.23645,-2.345287 -0.70927,-3.234246 -0.45396,-0.888929 -1.115935,-1.617106 -1.985938,-2.184534 -0.870058,-0.567394 -1.919768,-0.983496 -3.149134,-1.248306 -1.210502,-0.264773 -2.572288,-0.397169 -4.085364,-0.397188 l -10.099926,0 0,14.412254 10.525485,0 c 1.380679,5e-6 2.647897,-0.113477 3.801657,-0.340446 1.172625,-0.22696 2.175052,-0.624148 3.007282,-1.191565 0.851089,-0.567405 1.513068,-1.323953 1.985938,-2.269646 0.47282,-0.945677 0.70924,-2.127783 0.70927,-3.546323"
       style="font-size:58.10294724px;font-variant:normal;font-stretch:normal;font-family:Liberation Sans;-inkscape-font-specification:Liberation Sans"
       id="path4054" />
    <path
       d="m 139.7251,26.611604 c -3e-5,10.70517 -3.76386,16.057747 -11.29149,16.057748 -2.3264,-1e-6 -4.26506,-0.416102 -5.81597,-1.248306 -1.53202,-0.851116 -2.78033,-2.212902 -3.74491,-4.085363 l -0.0568,0 c 0,0.491761 -0.0189,1.002431 -0.0567,1.532011 -0.0189,0.529587 -0.0473,1.021343 -0.0851,1.47527 -0.0189,0.453931 -0.0473,0.841662 -0.0851,1.163194 -0.0189,0.321533 -0.0378,0.520127 -0.0567,0.595782 l -4.93648,0 c 0.0189,-0.170223 0.0378,-0.453929 0.0567,-0.851117 0.0189,-0.416101 0.0378,-0.907857 0.0567,-1.47527 0.0189,-0.567409 0.0284,-1.191561 0.0284,-1.872459 0.0189,-0.680889 0.0284,-1.390152 0.0284,-2.127793 l 0,-35.77530112665987 5.10671,0 0,12.00075512665987 c -1e-5,0.567441 -0.009,1.115939 -0.0284,1.645494 0,0.510698 -0.009,0.964627 -0.0284,1.361788 -0.0189,0.472869 -0.0378,0.917341 -0.0567,1.333417 l 0.11349,0 c 0.94567,-1.966999 2.19398,-3.37607 3.74491,-4.227217 1.56983,-0.851086 3.50848,-1.276644 5.81597,-1.276676 3.87729,3.2e-5 6.7238,1.305077 8.53954,3.91514 1.83461,2.610118 2.75192,6.563082 2.75195,11.858903 m -5.36204,0.170223 c -2e-5,-2.118319 -0.13242,-3.934034 -0.39719,-5.447151 -0.26481,-1.513075 -0.69037,-2.751923 -1.27667,-3.716546 -0.58635,-0.983488 -1.33344,-1.702209 -2.24128,-2.156164 -0.90788,-0.453902 -2.01433,-0.680867 -3.31936,-0.680894 -1.34289,2.7e-5 -2.53445,0.217535 -3.57469,0.652523 -1.02135,0.435042 -1.88193,1.134849 -2.58172,2.099423 -0.68091,0.964623 -1.20103,2.231841 -1.56038,3.801658 -0.35937,1.569858 -0.53905,3.489598 -0.53904,5.759227 -1e-5,2.194005 0.17967,4.038091 0.53904,5.532264 0.35935,1.494191 0.87947,2.714125 1.56038,3.659804 0.69979,0.926777 1.56037,1.598214 2.58172,2.014311 1.02133,0.397192 2.19398,0.595786 3.51795,0.595783 1.24829,3e-6 2.32637,-0.217505 3.23425,-0.652524 0.90784,-0.435011 1.66438,-1.134818 2.26965,-2.099423 0.60521,-0.964592 1.04968,-2.212897 1.33341,-3.744916 0.3026,-1.550914 0.45391,-3.42337 0.45393,-5.617375"
       style="font-size:58.10294724px;font-variant:normal;font-stretch:normal;font-family:Liberation Sans;-inkscape-font-specification:Liberation Sans"
       id="path4056" />
    <path
       d="m 164.66284,5.9578216 c -2.26967,3.62e-5 -4.28398,0.3783102 -6.04293,1.1348232 -1.74008,0.756583 -3.20589,1.834664 -4.39744,3.2342462 -1.17266,1.399646 -2.06161,3.082965 -2.66684,5.049963 -0.60525,1.967052 -0.90786,4.151584 -0.90786,6.553604 0,2.40206 0.32153,4.605506 0.9646,6.610345 0.66197,1.985952 1.5982,3.697642 2.80869,5.135075 1.22938,1.43745 2.72356,2.553358 4.48255,3.347728 1.77787,0.794381 3.77327,1.191569 5.9862,1.191565 1.5509,4e-6 2.95997,-0.19859 4.22721,-0.595782 1.28611,-0.416097 2.43984,-0.992965 3.46121,-1.730606 1.04023,-0.737628 1.967,-1.607658 2.78032,-2.610093 0.81326,-1.021331 1.53198,-2.146696 2.15616,-3.376099 l 4.42581,2.212905 c -0.71876,1.494192 -1.6077,2.884349 -2.66683,4.170475 -1.05921,1.286138 -2.30751,2.402046 -3.74492,3.347729 -1.41856,0.945687 -3.03568,1.692778 -4.85137,2.241276 -1.79683,0.529583 -3.81114,0.794375 -6.04293,0.794376 -3.23427,-1e-6 -6.07132,-0.510671 -8.51117,-1.532012 -2.42097,-1.040252 -4.45419,-2.477693 -6.09968,-4.312328 -1.62658,-1.853537 -2.84652,-4.047526 -3.6598,-6.581974 -0.8133,-2.534424 -1.21994,-5.305281 -1.21994,-8.31258 0,-3.12074 0.42556,-5.938882 1.27668,-8.454433 0.87002,-2.515493 2.12778,-4.6527416 3.77328,-6.4117508 1.6644,-1.7778528 3.70708,-3.1396393 6.12805,-4.0853635 2.42094,-0.9645596 5.18234,-1.446859 8.28421,-1.4468995 4.25556,4.05e-5 7.81134,0.8322434 10.66734,2.496611 2.85593,1.6644437 4.95535,4.1326817 6.29827,7.4047208 l -5.13508,1.702235 c -0.37831,-0.945656 -0.88898,-1.844057 -1.53201,-2.695205 -0.6431,-0.8699984 -1.44693,-1.6360033 -2.4115,-2.2980168 -0.96463,-0.6619455 -2.09945,-1.1915291 -3.40447,-1.5887524 -1.28616,-0.3971522 -2.76143,-0.595746 -4.42581,-0.5957822"
       style="font-size:58.10294724px;font-variant:normal;font-stretch:normal;font-family:Liberation Sans;-inkscape-font-specification:Liberation Sans"
       id="path4058" />
    <path
       d="m 191.98372,26.611604 c -1e-5,1.758989 0.12293,3.376111 0.36881,4.851369 0.26479,1.475279 0.6998,2.751954 1.30505,3.830028 0.60523,1.059174 1.3996,1.88192 2.38313,2.46824 1.00241,0.58633 2.2318,0.879492 3.68817,0.879488 1.8157,4e-6 3.3288,-0.491752 4.5393,-1.47527 1.22937,-0.983507 1.98591,-2.496603 2.26964,-4.539292 l 5.16345,0.340446 c -0.17025,1.267228 -0.53907,2.487161 -1.10645,3.659805 -0.56744,1.172655 -1.3429,2.203452 -2.32639,3.092393 -0.96462,0.888947 -2.14673,1.607667 -3.54632,2.156165 -1.39964,0.529583 -3.01676,0.794375 -4.85137,0.794376 -2.40206,-1e-6 -4.44474,-0.406645 -6.12805,-1.219935 -1.68333,-0.813289 -3.05457,-1.929197 -4.11373,-3.347729 -1.04026,-1.437437 -1.79681,-3.120756 -2.26965,-5.049963 -0.47285,-1.948102 -0.70927,-4.05698 -0.70926,-6.326639 -1e-5,-2.061578 0.17022,-3.877293 0.51067,-5.447151 0.34044,-1.58873 0.81328,-2.969431 1.41853,-4.142105 0.62414,-1.191538 1.35232,-2.184507 2.18453,-2.978911 0.8322,-0.813261 1.7306,-1.456327 2.69521,-1.929199 0.9835,-0.491727 2.0143,-0.84163 3.09239,-1.049712 1.07807,-0.226933 2.1656,-0.340415 3.26262,-0.340447 1.72113,3.2e-5 3.25314,0.236453 4.59603,0.709265 1.34285,0.472873 2.49659,1.125396 3.46121,1.95757 0.98349,0.813318 1.77786,1.777916 2.38313,2.893799 0.60521,1.115934 1.03077,2.316954 1.27667,3.603064 l -5.24855,0.397188 c -0.26482,-1.702212 -0.93625,-3.054541 -2.01431,-4.056993 -1.0781,-1.002401 -2.61011,-1.503614 -4.59604,-1.503641 -1.45637,2.7e-5 -2.6763,0.245905 -3.6598,0.737635 -0.96461,0.472869 -1.74953,1.201047 -2.35476,2.184535 -0.60525,0.964623 -1.04026,2.184557 -1.30505,3.659805 -0.24588,1.475289 -0.36882,3.205893 -0.36881,5.191816"
       style="font-size:58.10294724px;font-variant:normal;font-stretch:normal;font-family:Liberation Sans;-inkscape-font-specification:Liberation Sans"
       id="path4060" />
  </g>
</svg>
