<?xml version="1.0" encoding="UTF-8" standalone="no"?>
<!-- Created with Inkscape (http://www.inkscape.org/) -->

<svg
   xmlns:svg="http://www.w3.org/2000/svg"
   xmlns="http://www.w3.org/2000/svg"
   version="1.2"
   width="517.51001"
   height="125.73"
   id="svg2">
  <defs
     id="defs4">
    <clipPath
       id="clipPath3057">
      <path
         d="m 0,0 595.4,0 0,842 L 0,842 0,0 z"
         id="path3059" />
    </clipPath>
  </defs>
  <g
     id="text2848"
     style="font-size:40px;font-style:normal;font-variant:normal;font-weight:normal;font-stretch:normal;fill:#000000;fill-opacity:1;stroke:none;font-family:Linux Libertine O;-inkscape-font-specification:Linux Libertine O">
    <path
       d="m 19.360001,55.584312 15.264,0 c 2.015998,0 8.64,0.144 8.64,0.144 0.719999,-3.599996 1.44,-8.280003 1.872,-12.024 -0.719999,-0.287999 -1.512001,-0.431999 -2.376,-0.36 -1.439999,5.183995 -3.384005,9.432 -8.856,9.432 l -8.136,0 c -2.087998,0 -3.384,-1.368002 -3.384,-3.6 l 0,-31.248 c 0,-5.975994 1.224005,-6.336 6.264,-6.552 0.432,-0.431999 0.432,-1.944 0,-2.3759996 -3.527996,0.072 -5.688004,0.144 -9.36,0.144 -3.599996,0 -5.688004,-0.072 -9.288,-0.144 -0.4319996,0.4319996 -0.4319996,1.9440006 0,2.3759996 5.039995,0.216 6.264,0.576006 6.264,6.552 l 0,28.872 c 0,5.975994 -1.224005,6.336001 -6.264,6.552 -0.4319996,0.432 -0.4319996,1.944001 0,2.376 3.527996,-0.072 9.36,-0.144 9.36,-0.144"
       id="path2867"
       style="font-size:72px" />
    <path
       d="m 60.356126,31.248312 c 0,-5.975994 0.792004,-6.192 5.184,-6.552 0.432,-0.431999 0.432,-1.944 0,-2.376 -3.023997,0.072 -4.896003,0.144 -8.064,0.144 -3.095997,0 -4.896003,-0.072 -7.992,-0.144 -0.432,0.432 -0.432,1.944001 0,2.376 4.391996,0.288 5.184,0.576006 5.184,6.552 l 0,15.552 c 0,5.975994 -0.792004,6.192001 -5.184,6.552 -0.432,0.432 -0.432,1.944001 0,2.376 3.023997,-0.072 4.896003,-0.144 8.064,-0.144 3.095997,0 4.896003,0.072 7.992,0.144 0.432,-0.431999 0.432,-1.944 0,-2.376 -4.391996,-0.287999 -5.184,-0.576006 -5.184,-6.552 l 0,-15.552"
       id="path2869"
       style="font-size:72px" />
    <path
       d="m 79.561001,46.800312 0,-13.68 c 0,-3.527996 0.864002,-2.807998 2.592,-0.792 l 16.92,22.536 c 1.079999,1.151999 2.231999,1.584 3.311999,1.584 0.864,0 1.584,-0.504001 1.584,-1.944 l 0,-23.256 c 0,-5.975994 0.79201,-6.192 5.184,-6.552 0.432,-0.431999 0.432,-1.944 0,-2.376 -2.16,0.072 -4.752,0.144 -6.912,0.144 -2.16,0 -4.680001,-0.072 -6.839999,-0.144 -0.432,0.432 -0.432,1.944001 0,2.376 4.391996,0.288 5.183999,0.576006 5.183999,6.552 l 0,13.464 c 0,1.943998 -0.216,3.167997 -2.447999,0.144 l -16.488,-22.392 -10.224,-0.144 -0.144,0.216 0,1.728 c 0,0.288 0.432,0.432 0.648,0.432 2.735997,0.216 3.528001,1.080002 4.248,2.376 l 0,19.728 c 0,5.975994 -0.792004,6.264001 -5.184,6.552 -0.432,0.432 -0.432,1.944001 0,2.376 2.159998,-0.072 4.680002,-0.144 6.84,-0.144 2.159998,0 4.752002,0.072 6.912,0.144 0.432,-0.431999 0.432,-1.944 0,-2.376 -4.391996,-0.359999 -5.184,-0.576006 -5.184,-6.552"
       id="path2871"
       style="font-size:72px" />
    <path
       d="m 143.3215,31.248312 0,9.144 c 0,6.191994 -10e-6,13.536 -9.504,13.536 -7.70399,0 -8.64,-6.192006 -8.64,-12.888 l 0,-9.792 c 0,-5.975994 0.79201,-6.192 5.184,-6.552 0.432,-0.431999 0.432,-1.944 0,-2.376 -3.024,0.072 -4.896,0.144 -8.064,0.144 -3.096,0 -4.896,-0.072 -7.992,-0.144 -0.432,0.432 -0.432,1.944001 0,2.376 4.392,0.288 5.184,0.576006 5.184,6.552 l 0,11.304 c 0,10.79999 6.98401,13.752 13.104,13.752 11.15999,0 14.112,-6.33601 14.112,-16.848 l 0,-8.208 c 0,-5.975994 0.79201,-6.192 5.184,-6.552 0.432,-0.431999 0.432,-1.944 0,-2.376 -2.16,0.072 -4.752,0.144 -6.912,0.144 -2.16,0 -4.68,-0.072 -6.84,-0.144 -0.432,0.432 -0.432,1.944001 0,2.376 4.392,0.288 5.184,0.576006 5.184,6.552"
       id="path2873"
       style="font-size:72px" />
    <path
       d="m 169.45638,24.552312 1.224,-0.144 c 0.288,0 0.576,-0.216 0.576,-0.576 l 0,-1.296 -0.216,-0.216 c 0,0 -6.40801,0.144 -8.568,0.144 -2.16,0 -6.12,-0.144 -6.12,-0.144 l -0.144,0.216 0,1.368 c 0,0.288 0.576,0.504 1.08,0.504 2.66399,0.288 4.032,1.944004 6.264,5.112 l 6.696,9.792 c 0.216,0.288 0.288,0.432001 0.288,0.648 0,0.216 -0.072,0.360001 -0.216,0.576 l -6.48,8.352 c -3.24,4.175996 -5.11201,4.536001 -6.84,4.752 -0.72,0.144 -1.08,0.288001 -1.08,0.72 l 0,1.224 0.216,0.144 c 0,0 3.528,-0.144 5.76,-0.144 2.51999,0 6.552,0.144 6.552,0.144 l 0.072,-0.144 0,-1.368 c 0,-0.359999 -0.144,-0.504 -0.504,-0.576 l -1.08,-0.144 c -2.376,-0.287999 -1.512,-1.656001 -0.288,-3.456 l 4.896,-6.912 c 0.36,-0.503999 0.576,-0.792 0.72,-0.792 0.216,0 0.432,0.144001 0.72,0.576 l 4.536,6.192 c 1.94399,2.735998 2.80799,4.032001 0.288,4.392 l -0.936,0.144 c -0.36,0.072 -0.576,0.216001 -0.576,0.576 l 0,1.368 0.144,0.144 c 0,0 4.896,-0.144 7.992,-0.144 2.66399,0 6.84,0.144 6.84,0.144 l 0.144,-0.144 0,-1.296 c 0,-0.503999 -0.36,-0.576 -1.08,-0.648 -2.52,-0.215999 -3.67201,-0.432004 -7.056,-5.328 l -6.984,-9.864 c -0.144,-0.215999 -0.216,-0.36 -0.216,-0.576 0,-0.215999 0.072,-0.288 0.216,-0.576 l 6.48,-8.28 c 2.95199,-3.599996 3.96,-4.392 6.912,-4.608 0.504,0 0.936,-0.072 0.936,-0.576 l 0,-1.368 -0.144,-0.144 c 0,0 -3.74401,0.144 -6.192,0.144 -2.376,0 -6.048,-0.144 -6.048,-0.144 l -0.288,0.216 0,1.368 c 0,0.36 0.288,0.504 0.576,0.504 l 1.224,0.144 c 2.30399,0.288 1.51199,1.800002 0.288,3.456 l -5.04,7.056 c -0.288,0.288 -0.504,0.504 -0.72,0.504 -0.288,0 -0.504,-0.288 -0.792,-0.72 l -4.608,-6.912 c -2.16,-3.095996 -1.296,-3.168 0.576,-3.384"
       id="path2875"
       style="font-size:72px" />
    <path
       d="m 222.14125,55.584312 15.264,0 c 2.016,0 8.64,0.144 8.64,0.144 0.72,-3.599996 1.44,-8.280003 1.872,-12.024 -0.72,-0.287999 -1.512,-0.431999 -2.376,-0.36 -1.44,5.183995 -3.384,9.432 -8.856,9.432 l -8.136,0 c -2.088,0 -3.384,-1.368002 -3.384,-3.6 l 0,-31.248 c 0,-5.975994 1.22401,-6.336 6.264,-6.552 0.432,-0.431999 0.432,-1.944 0,-2.3759996 -3.528,0.072 -5.688,0.144 -9.36,0.144 -3.6,0 -5.688,-0.072 -9.288,-0.144 -0.432,0.4319996 -0.432,1.9440006 0,2.3759996 5.04,0.216 6.264,0.576006 6.264,6.552 l 0,28.872 c 0,5.975994 -1.224,6.336001 -6.264,6.552 -0.432,0.432 -0.432,1.944001 0,2.376 3.528,-0.072 9.36,-0.144 9.36,-0.144"
       id="path2877"
       style="font-size:72px" />
    <path
       d="m 263.13738,31.248312 c 0,-5.975994 0.792,-6.192 5.184,-6.552 0.432,-0.431999 0.432,-1.944 0,-2.376 -3.024,0.072 -4.89601,0.144 -8.064,0.144 -3.096,0 -4.89601,-0.072 -7.992,-0.144 -0.432,0.432 -0.432,1.944001 0,2.376 4.39199,0.288 5.184,0.576006 5.184,6.552 l 0,15.552 c 0,5.975994 -0.79201,6.192001 -5.184,6.552 -0.432,0.432 -0.432,1.944001 0,2.376 3.02399,-0.072 4.896,-0.144 8.064,-0.144 3.09599,0 4.896,0.072 7.992,0.144 0.432,-0.431999 0.432,-1.944 0,-2.376 -4.392,-0.287999 -5.184,-0.576006 -5.184,-6.552 l 0,-15.552"
       id="path2879"
       style="font-size:72px" />
    <path
       d="m 281.91025,55.584312 c 2.16,0 5.90401,0.144 9.936,0.144 9.57599,0 12.96,-4.680004 12.96,-9.144 0,-4.679995 -2.376,-7.848001 -7.416,-9 2.88,-1.295998 5.184,-4.536002 5.184,-7.344 0,-4.031996 -1.87201,-7.92 -12.312,-7.92 -2.016,0 -5.112,0.144 -8.424,0.144 -3.096,0 -4.896,-0.072 -7.992,-0.144 -0.432,0.432 -0.432,1.944001 0,2.376 4.392,0.288 5.184,0.576006 5.184,6.552 l 0,15.552 c 0,5.975994 -0.792,6.192001 -5.184,6.552 -0.432,0.432 -0.432,1.944001 0,2.376 3.024,-0.072 4.896,-0.144 8.064,-0.144 m 2.808,-16.704 5.616,0 c 6.55199,0 8.208,3.312004 8.208,7.2 0,3.167997 -1.15201,7.272 -8.496,7.272 -4.75199,0 -5.328,-1.008002 -5.328,-3.672 l 0,-10.8 m 0,-11.232 c 0,-2.231997 0.50401,-2.952 5.472,-2.952 3.168,0 6.912,0.792005 6.912,5.616 0,4.319996 -2.088,6.192 -6.768,6.192 l -5.616,0 0,-8.856"
       id="path2881"
       style="font-size:72px" />
    <path
       d="m 325.38475,39.384312 c 5.112,0 4.824,1.368003 4.968,4.032 0.36,0.36 1.656,0.36 2.016,0 -0.072,-2.087997 -0.144,-3.240002 -0.144,-5.256 0,-2.015998 0.072,-3.312001 0.144,-5.112 -0.36,-0.359999 -1.656,-0.359999 -2.016,0 -0.144,3.239997 0.072,3.960001 -4.968,4.032 l -4.104,0 0,-10.224 c 0,-1.223998 0.936,-2.016 2.304,-2.016 l 5.544,0 c 4.464,0 5.4,2.376005 6.696,6.48 0.72,0.072 1.368,-0.072 1.944,-0.36 -0.288,-2.447997 -1.152,-8.064 -1.296,-8.568 0,-0.143999 -0.072,-0.216 -0.216,-0.216 -1.008,0.144 -1.512,0.288 -2.952,0.288 l -14.904,0 c 0,0 -4.896,-0.072 -7.992,-0.144 -0.432,0.432 -0.432,1.944001 0,2.376 4.392,0.288 5.184,0.576006 5.184,6.552 l 0,15.552 c 0,5.975994 -0.792,6.192001 -5.184,6.552 -0.432,0.432 -0.432,1.944001 0,2.376 3.024,-0.072 8.064,-0.144 8.064,-0.144 l 11.088,0 c 2.88,0 7.632,0.144 7.632,0.144 0.864,-2.951997 1.656,-6.912003 2.16,-9.936 -0.648,-0.359999 -1.224,-0.503999 -2.016,-0.288 -1.152,4.247996 -3.24,7.848 -7.776,7.848 l -5.976,0 c -1.296,0 -2.304,-1.800001 -2.304,-3.168 l 0,-10.8 4.104,0"
       id="path2883"
       style="font-size:72px" />
    <path
       d="m 354.9655,46.800312 0,-6.12 0.576,0 c 4.896,0 6.336,2.808003 7.344,4.896 l 1.944,4.32 c 1.872,4.247996 3.744,6.408 7.2,6.408 1.08,0 3.24,-0.144 4.176,-0.648 0.144,-0.719999 0.144,-1.368 -0.432,-2.16 -2.592,0 -3.672,-1.008003 -5.04,-4.104 l -2.448,-5.4 c -0.864,-2.231997 -2.88,-4.608 -5.256,-4.824 l 0,-0.072 c 4.824,-0.431999 8.64,-3.456005 8.64,-8.424 0,-5.687994 -2.59201,-8.352 -12.312,-8.352 -1.8,0 -4.464,0.144 -7.272,0.144 -3.096,0 -4.896,-0.072 -7.992,-0.144 -0.432,0.432 -0.432,1.944001 0,2.376 4.392,0.288 5.184,0.576006 5.184,6.552 l 0,15.552 c 0,5.975994 -0.792,6.192001 -5.184,6.552 -0.432,0.432 -0.432,1.944001 0,2.376 3.024,-0.072 4.896,-0.144 8.064,-0.144 2.664,0 3.816,0.072 6.912,0.144 0.432,-0.431999 0.432,-1.944 0,-2.376 -3.456,-0.359999 -4.104,-0.576006 -4.104,-6.552 m 10.584,-16.128 c 0,5.615995 -2.664,7.632 -8.136,7.632 l -2.448,0 0,-11.664 c 0,-1.367998 0.936,-2.232 4.68,-2.232 4.104,0 5.904,1.944005 5.904,6.264"
       id="path2885"
       style="font-size:72px" />
    <path
       d="m 398.44338,46.800312 0,-18.144 c 0,-1.655998 0.864,-3.744 2.88,-3.744 l 2.376,0 c 3.09599,0 4.032,1.440006 5.472,6.624 0.72,0.216 1.368,0.144 1.944,-0.216 -0.504,-3.455996 -0.576,-6.696003 -0.576,-9.864 -0.648,-0.143999 -1.224,-0.143999 -1.8,0 -0.144,0.432 -0.79201,1.008 -1.944,1.008 l -23.112,0 c -1.152,0 -1.8,-0.576 -1.944,-1.008 -0.648,-0.072 -1.224,-0.072 -1.8,0 0,3.167997 0,6.480004 -0.576,9.864 0.648,0.288 1.296,0.288 1.944,0.216 1.43999,-5.183994 2.304,-6.624 5.544,-6.624 l 3.096,0 c 2.08799,0 2.808,2.088002 2.808,3.672 l 0,18.216 c 0,5.975994 -0.79201,6.192001 -5.184,6.552 -0.432,0.432 -0.432,1.944001 0,2.376 3.02399,-0.072 4.896,-0.144 8.064,-0.144 3.09599,0 4.896,0.072 7.992,0.144 0.432,-0.431999 0.432,-1.944 0,-2.376 -4.392,-0.287999 -5.184,-0.576006 -5.184,-6.552"
       id="path2887"
       style="font-size:72px" />
    <path
       d="m 426.54363,31.248312 c 0,-5.975994 0.792,-6.192 5.184,-6.552 0.432,-0.431999 0.432,-1.944 0,-2.376 -3.024,0.072 -4.89601,0.144 -8.064,0.144 -3.096,0 -4.89601,-0.072 -7.992,-0.144 -0.432,0.432 -0.432,1.944001 0,2.376 4.39199,0.288 5.184,0.576006 5.184,6.552 l 0,15.552 c 0,5.975994 -0.79201,6.192001 -5.184,6.552 -0.432,0.432 -0.432,1.944001 0,2.376 3.02399,-0.072 4.896,-0.144 8.064,-0.144 3.09599,0 4.896,0.072 7.992,0.144 0.432,-0.431999 0.432,-1.944 0,-2.376 -4.392,-0.287999 -5.184,-0.576006 -5.184,-6.552 l 0,-15.552"
       id="path2889"
       style="font-size:72px" />
    <path
       d="m 445.7485,46.800312 0,-13.68 c 0,-3.527996 0.864,-2.807998 2.592,-0.792 l 16.92,22.536 c 1.08,1.151999 2.232,1.584 3.312,1.584 0.864,0 1.584,-0.504001 1.584,-1.944 l 0,-23.256 c 0,-5.975994 0.79201,-6.192 5.184,-6.552 0.432,-0.431999 0.432,-1.944 0,-2.376 -2.16,0.072 -4.752,0.144 -6.912,0.144 -2.16,0 -4.68,-0.072 -6.84,-0.144 -0.432,0.432 -0.432,1.944001 0,2.376 4.392,0.288 5.184,0.576006 5.184,6.552 l 0,13.464 c 0,1.943998 -0.216,3.167997 -2.448,0.144 l -16.488,-22.392 -10.224,-0.144 -0.144,0.216 0,1.728 c 0,0.288 0.432,0.432 0.648,0.432 2.736,0.216 3.528,1.080002 4.248,2.376 l 0,19.728 c 0,5.975994 -0.792,6.264001 -5.184,6.552 -0.432,0.432 -0.432,1.944001 0,2.376 2.16,-0.072 4.68,-0.144 6.84,-0.144 2.16,0 4.752,0.072 6.912,0.144 0.432,-0.431999 0.432,-1.944 0,-2.376 -4.39199,-0.359999 -5.184,-0.576006 -5.184,-6.552"
       id="path2891"
       style="font-size:72px" />
    <path
       d="m 495.541,39.384312 c 5.112,0 4.824,1.368003 4.968,4.032 0.36,0.36 1.656,0.36 2.016,0 -0.072,-2.087997 -0.144,-3.240002 -0.144,-5.256 0,-2.015998 0.072,-3.312001 0.144,-5.112 -0.36,-0.359999 -1.656,-0.359999 -2.016,0 -0.144,3.239997 0.072,3.960001 -4.968,4.032 l -4.104,0 0,-10.224 c 0,-1.223998 0.936,-2.016 2.304,-2.016 l 5.544,0 c 4.464,0 5.4,2.376005 6.696,6.48 0.72,0.072 1.368,-0.072 1.944,-0.36 -0.288,-2.447997 -1.152,-8.064 -1.296,-8.568 0,-0.143999 -0.072,-0.216 -0.216,-0.216 -1.008,0.144 -1.512,0.288 -2.952,0.288 l -14.904,0 c 0,0 -4.896,-0.072 -7.992,-0.144 -0.432,0.432 -0.432,1.944001 0,2.376 4.392,0.288 5.184,0.576006 5.184,6.552 l 0,15.552 c 0,5.975994 -0.792,6.192001 -5.184,6.552 -0.432,0.432 -0.432,1.944001 0,2.376 3.024,-0.072 8.064,-0.144 8.064,-0.144 l 11.088,0 c 2.88,0 7.632,0.144 7.632,0.144 0.864,-2.951997 1.656,-6.912003 2.16,-9.936 -0.648,-0.359999 -1.224,-0.503999 -2.016,-0.288 -1.152,4.247996 -3.24,7.848 -7.776,7.848 l -5.976,0 c -1.296,0 -2.304,-1.800001 -2.304,-3.168 l 0,-10.8 4.104,0"
       id="path2893"
       style="font-size:72px" />
  </g>
  <g
     transform="matrix(1.8148715,0,0,-1.8148715,-94.31881,1479.4971)"
     clip-path="url(#clipPath3057)"
     id="g3055">
    <g
       id="g3061">
      <g
         transform="matrix(1,0,0,-1,56.8,749.5)"
         id="text3063">
        <path
           d="m 5.88,0 8.48,0 c 1.119999,0 4.8,0.08 4.8,0.08 0.4,-1.999998 0.8,-4.6000021 1.04,-6.68 -0.4,-0.1599998 -0.84,-0.24 -1.32,-0.2 -0.799999,2.8799971 -1.880003,5.24 -4.92,5.24 l -4.52,0 c -1.1599988,0 -1.88,-0.7600012 -1.88,-2 l 0,-17.36 c 0,-3.319997 0.6800028,-3.52 3.48,-3.64 0.24,-0.24 0.24,-1.08 0,-1.32 -1.959998,0.04 -3.160002,0.08 -5.2,0.08 -1.999998,0 -3.160002,-0.04 -5.16,-0.08 -0.23999976,0.24 -0.23999976,1.08 0,1.32 2.7999972,0.12 3.48,0.320003 3.48,3.64 l 0,16.04 c 0,3.3199967 -0.6800028,3.5200001 -3.48,3.64 -0.23999976,0.2399998 -0.23999976,1.08000024 0,1.32 C 2.639998,0.04000004 5.88,0 5.88,0"
           id="path2896"
           style="font-size:40px;font-variant:normal;font-weight:normal;writing-mode:lr-tb;fill:#000000;fill-opacity:1;fill-rule:nonzero;stroke:none;font-family:Linux Libertine O;-inkscape-font-specification:LinuxLibertineO" />
      </g>
    </g>
    <g
       id="g3067">
      <g
         transform="matrix(1,0,0,-1,77.8,749.5)"
         id="text3069">
        <path
           d="m 5.0423999,-3.2208 0,-10.5864 c 0,-2.191198 0.4488019,-2.3232 2.2968,-2.4024 0.1583998,-0.1584 0.1583998,-0.7128 0,-0.8712 -1.2935987,0.0264 -2.0856013,0.0528 -3.432,0.0528 -1.3199986,0 -2.0856012,-0.0264 -3.40559991,-0.0528 -0.15839984,0.1584 -0.15839984,0.7128 0,0.8712 C 2.3495981,-16.1304 2.7984,-15.998398 2.7984,-13.8072 l 0,10.5864 c 0,2.1911978 -0.4488019,2.32320009 -2.29680001,2.40240001 -0.15839984,0.15839984 -0.15839984,0.71280015 0,0.87119999 C 1.7951987,0.02640003 2.5872013,0 3.9335999,0 c 1.3199987,0 2.0856013,0.02640003 3.4056,0.0528 0.1583998,-0.15839984 0.1583998,-0.71280015 0,-0.87119999 -1.8479981,-0.0791999 -2.2968,-0.21120221 -2.2968,-2.40240001"
           id="path2899"
           style="font-size:26.39999962px;font-variant:normal;font-weight:normal;writing-mode:lr-tb;fill:#000000;fill-opacity:1;fill-rule:nonzero;stroke:none;font-family:Linux Libertine O;-inkscape-font-specification:LinuxLibertineO" />
        <path
           d="m 22.4664,-13.5168 0,8.8176001 c 0,0.5015995 0,0.792 -0.1848,0.792 -0.2112,0 -0.501601,-0.475201 -1.2672,-1.452 L 11.9592,-17.028 8.3952001,-17.0808 c -0.1583998,0.1584 -0.1583998,0.7128 0,0.8712 1.1351988,0.0792 1.9271999,1.003201 2.0855999,1.6896 l 0,11.0088001 c 0,2.3495976 -0.448802,2.5080001 -2.2967999,2.69279991 -0.1583998,0.15839984 -0.1583998,0.71280015 0,0.87119999 C 9.4775988,0.02640003 9.9792012,0 11.1408,0 c 1.135199,0 1.610401,0.02640003 2.9304,0.0528 0.1584,-0.15839984 0.1584,-0.71280015 0,-0.87119999 C 12.223202,-1.0031998 11.7744,-1.1088024 11.7744,-3.5111999 l 0,-8.0784001 c 0,-0.897599 0,-1.2936 0.2112,-1.2936 0.1584,0 0.4488,0.290401 0.8976,0.8712 l 9.2136,11.64240001 C 22.3872,0.0263996 22.7304,0.264 23.1528,0.264 c 0.3696,0 0.6072,-0.3168005 0.6072,-0.81839999 l 0,-12.96240001 c 0,-2.349597 0.448802,-2.508 2.2968,-2.6928 0.1584,-0.1584 0.1584,-0.7128 0,-0.8712 -1.293599,0.0264 -1.795201,0.0528 -2.9568,0.0528 -1.135199,0 -1.610401,-0.0264 -2.9304,-0.0528 -0.1584,0.1584 -0.1584,0.7128 0,0.8712 1.847998,0.1848 2.2968,0.290403 2.2968,2.6928"
           id="path2901"
           style="font-size:26.39999962px;font-variant:normal;font-weight:normal;writing-mode:lr-tb;fill:#000000;fill-opacity:1;fill-rule:nonzero;stroke:none;font-family:Linux Libertine O;-inkscape-font-specification:LinuxLibertineO" />
        <path
           d="m 30.729601,-13.8072 c 0,-2.191198 0.396002,-2.3232 2.4288,-2.4024 0.1584,-0.1584 0.1584,-0.7128 0,-0.8712 -1.293599,0.0264 -2.164802,0.0528 -3.564,0.0528 -1.214399,0 -1.821602,-0.0264 -3.1416,-0.0528 -0.1584,0.1584 -0.1584,0.7128 0,0.8712 1.583998,0.0792 2.0328,0.211202 2.0328,2.4024 l 0,7.5768001 c 0,5.38559453 3.801602,6.4943999 6.1776,6.4943999 5.411994,0 6.7056,-3.3528047 6.7056,-8.0519999 l 0,-6.0192001 c 0,-2.191198 0.448801,-2.2176 2.0328,-2.4024 0.158399,-0.1584 0.158399,-0.7128 0,-0.8712 -1.293599,0.0264 -1.636801,0.0528 -2.6928,0.0528 -1.187999,0 -1.742402,-0.0264 -3.0624,-0.0528 -0.1584,0.1584 -0.1584,0.7128 0,0.8712 1.979998,0.1848 2.4288,0.211202 2.4288,2.4024 l 0,6.4944001 c 0,2.956797 -0.396005,6.49439991 -4.8576,6.49439991 -1.267199,0 -2.349601,-0.55440071 -3.1416,-1.32000001 -1.293599,-1.2407987 -1.3464,-3.2472016 -1.3464,-4.9631999 l 0,-6.7056001"
           id="path2903"
           style="font-size:26.39999962px;font-variant:normal;font-weight:normal;writing-mode:lr-tb;fill:#000000;fill-opacity:1;fill-rule:nonzero;stroke:none;font-family:Linux Libertine O;-inkscape-font-specification:LinuxLibertineO" />
        <path
           d="m 44.0088,-16.5 c 0,0.1056 0.1584,0.1584 0.4224,0.1848 0.448799,0.0792 1.267201,0.290402 2.3496,1.8216 l 3.8016,5.4120001 c 0.237599,0.2903997 0.3696,0.5280003 0.3696,0.792 0,0.1583999 -0.1056,0.3960002 -0.264,0.6072 L 47.0712,-2.7456 c -0.5808,0.7919992 -1.504802,1.95360009 -3.036,2.03280001 -0.1584,0.0264 -0.2904,0.0528001 -0.2904,0.1848 L 43.7448,0 43.7712,0.0528 C 44.563199,0.02640003 45.196801,0 45.9888,0 c 1.029599,0 1.716001,0.02640003 2.9568,0.0528 L 49.0248,0 l 0,-0.52799999 c 0,-0.0791999 -0.0264,-0.15840003 -0.1584,-0.1848 l -0.5016,-0.0528 C 47.308801,-0.87119988 47.52,-1.3992006 47.9688,-2.0328 l 3.4848,-4.7783999 c 0.1584,-0.2111998 0.3168,-0.3696 0.396,-0.3696 0.1056,0 0.2112,0.0792 0.3696,0.2904 L 55.704,-1.9272 c 0.633599,0.8975991 0.712799,1.05600012 -0.3432,1.16160001 l -0.528,0.0528 c -0.1056,0.0264 -0.1584,0.0792001 -0.1584,0.1848 L 54.6744,0 54.7536,0.0528 C 55.994398,0.02640003 57.4464,0 58.0536,0 c 0.607199,0 1.716001,0.02640003 2.772,0.0528 L 60.8784,0 l 0,-0.52799999 c 0,-0.0791999 -0.0528,-0.15840003 -0.1848,-0.1848 C 59.505601,-0.79199991 58.607999,-1.663201 57.8952,-2.6928 l -4.0656,-5.5439999 c -0.264,-0.3431996 -0.4224,-0.6072002 -0.4224,-0.8712 0,-0.2375997 0.1056,-0.4488003 0.3432,-0.792 L 57.2088,-14.5728 c 0.712799,-0.950399 1.293601,-1.6632 2.904,-1.7424 0.211199,0 0.2376,-0.1056 0.2376,-0.1848 l 0,-0.528 -0.0792,-0.0528 c -1.055999,0.0264 -1.953601,0.0528 -2.5608,0.0528 -0.6072,0 -1.557601,-0.0264 -2.6136,-0.0528 l -0.0528,0.0528 0,0.528 c 0,0.132 0.0792,0.1848 0.1848,0.1848 l 0.792,0.0528 c 0.765599,0.0528 0.633599,0.501601 0.1584,1.1616 l -3.4056,4.62 c -0.1584,0.2112 -0.264,0.3168 -0.3432,0.3168 -0.0792,0 -0.1848,-0.1056 -0.3168,-0.2904 l -3.1416,-4.6464 c -0.528,-0.712799 -0.739199,-1.1088 0.132,-1.1616 l 0.8448,-0.0528 c 0.0528,0 0.132,-0.0528 0.132,-0.1848 l 0,-0.5016 c -0.0264,0 -0.0528,-0.0792 -0.0528,-0.0792 -1.240799,0.0264 -2.587201,0.0528 -3.2208,0.0528 -0.6336,0 -1.663201,-0.0264 -2.7192,-0.0528 l -0.0792,0.0792 0,0.5016"
           id="path2905"
           style="font-size:26.39999962px;font-variant:normal;font-weight:normal;writing-mode:lr-tb;fill:#000000;fill-opacity:1;fill-rule:nonzero;stroke:none;font-family:Linux Libertine O;-inkscape-font-specification:LinuxLibertineO" />
      </g>
    </g>
    <g
       id="g3073">
      <g
         transform="matrix(1,0,0,-1,148.9,749.5)"
         id="text3075">
        <path
           d="m 5.88,0 8.48,0 c 1.119999,0 4.8,0.08 4.8,0.08 0.4,-1.999998 0.8,-4.6000021 1.04,-6.68 -0.4,-0.1599998 -0.84,-0.24 -1.32,-0.2 -0.799999,2.8799971 -1.880003,5.24 -4.92,5.24 l -4.52,0 c -1.1599988,0 -1.88,-0.7600012 -1.88,-2 l 0,-17.36 c 0,-3.319997 0.6800028,-3.52 3.48,-3.64 0.24,-0.24 0.24,-1.08 0,-1.32 -1.959998,0.04 -3.160002,0.08 -5.2,0.08 -1.999998,0 -3.160002,-0.04 -5.16,-0.08 -0.23999976,0.24 -0.23999976,1.08 0,1.32 2.7999972,0.12 3.48,0.320003 3.48,3.64 l 0,16.04 c 0,3.3199967 -0.6800028,3.5200001 -3.48,3.64 -0.23999976,0.2399998 -0.23999976,1.08000024 0,1.32 C 2.639998,0.04000004 5.88,0 5.88,0"
           id="path2908"
           style="font-size:40px;font-variant:normal;font-weight:normal;writing-mode:lr-tb;fill:#000000;fill-opacity:1;fill-rule:nonzero;stroke:none;font-family:Linux Libertine O;-inkscape-font-specification:LinuxLibertineO" />
      </g>
    </g>
    <g
       id="g3079">
      <g
         transform="matrix(1,0,0,-1,169.9,749.5)"
         id="text3081">
        <path
           d="m 5.0423999,-3.2208 0,-10.5864 c 0,-2.191198 0.4488019,-2.3232 2.2968,-2.4024 0.1583998,-0.1584 0.1583998,-0.7128 0,-0.8712 -1.2935987,0.0264 -2.0856013,0.0528 -3.432,0.0528 -1.3199986,0 -2.0856012,-0.0264 -3.40559991,-0.0528 -0.15839984,0.1584 -0.15839984,0.7128 0,0.8712 C 2.3495981,-16.1304 2.7984,-15.998398 2.7984,-13.8072 l 0,10.5864 c 0,2.1911978 -0.4488019,2.32320009 -2.29680001,2.40240001 -0.15839984,0.15839984 -0.15839984,0.71280015 0,0.87119999 C 1.7951987,0.02640003 2.5872013,0 3.9335999,0 c 1.3199987,0 2.0856013,0.02640003 3.4056,0.0528 0.1583998,-0.15839984 0.1583998,-0.71280015 0,-0.87119999 -1.8479981,-0.0791999 -2.2968,-0.21120221 -2.2968,-2.40240001"
           id="path2911"
           style="font-size:26.39999962px;font-variant:normal;font-weight:normal;writing-mode:lr-tb;fill:#000000;fill-opacity:1;fill-rule:nonzero;stroke:none;font-family:Linux Libertine O;-inkscape-font-specification:LinuxLibertineO" />
        <path
           d="m 11.6952,-17.028 c -1.319999,0 -2.0856012,-0.0264 -3.4055999,-0.0528 -0.1583998,0.1584 -0.1583998,0.7128 0,0.8712 1.8479979,0.0792 2.2967999,0.211202 2.2967999,2.4024 l 0,10.5864 c 0,2.1911978 -0.448802,2.32320009 -2.2967999,2.40240001 -0.1583998,0.15839984 -0.1583998,0.71280015 0,0.87119999 C 9.5831988,0.02640003 10.375201,0 11.7216,0 c 1.135199,0 1.504802,0.0528 3.8544,0.0528 5.253595,0 6.6528,-2.6400022 6.6528,-4.9103999 0,-2.5343975 -1.768802,-3.9864006 -4.0656,-4.6464 l 0,-0.0528 c 1.319999,-0.6599991 2.508,-2.0064011 2.508,-3.4584001 0,-1.768798 -0.765605,-4.0656 -5.676,-4.0656 -0.923999,0 -2.164801,0.0528 -3.3,0.0528 m 1.1352,8.2632001 1.8216,0 c 3.616796,0 5.1216,2.0328024 5.1216,4.4088 0,1.927198 -0.739204,3.53759991 -4.752,3.53759991 -1.847998,0 -2.1912,-0.89760081 -2.1912,-1.76880001 l 0,-6.1775999 m 0,-6.2832001 c 0,-0.871199 2e-6,-1.1352 2.2968,-1.1352 1.478399,0 3.4056,0.792003 3.4056,3.4848 0,2.243998 -1.557602,3.0360001 -3.7488,3.0360001 l -1.9536,0 0,-5.3856001"
           id="path2913"
           style="font-size:26.39999962px;font-variant:normal;font-weight:normal;writing-mode:lr-tb;fill:#000000;fill-opacity:1;fill-rule:nonzero;stroke:none;font-family:Linux Libertine O;-inkscape-font-specification:LinuxLibertineO" />
        <path
           d="m 30.491999,-9.5303999 -2.402399,0 0,-5.2800001 c 0,-0.633599 0.3168,-1.1616 0.950399,-1.1616 l 2.772,0 c 1.979998,0 2.402401,1.056002 2.9832,2.8776 0.3168,0.0528 0.607201,0 0.8712,-0.132 -0.131999,-1.082399 -0.528,-3.6168 -0.5808,-3.828 0,-0.0528 -0.0264,-0.0792 -0.1056,-0.0792 -0.448799,0.0792 -0.66,0.1056 -1.2936,0.1056 l -6.731999,0 c 0,0 -2.085602,-0.0264 -3.4056,-0.0528 -0.1584,0.1584 -0.1584,0.7128 0,0.8712 1.847998,0.0792 2.2968,0.211202 2.2968,2.4024 l 0,10.5864 c 0,2.1911978 -0.448802,2.32320009 -2.2968,2.40240001 -0.1584,0.15839984 -0.1584,0.71280015 0,0.87119999 C 24.842398,0.02640003 26.9808,0 26.9808,0 l 5.675999,0 c 1.267199,0 3.3792,0.0528 3.3792,0.0528 0.3696,-1.3199987 0.765601,-3.0624013 0.9768,-4.4087999 -0.290399,-0.1319999 -0.5808,-0.2112 -0.924,-0.132 -0.527999,1.900798 -1.452002,3.4583999 -3.4584,3.4583999 l -3.5904,0 c -0.580799,0 -0.950399,-0.4224007 -0.950399,-1.1352 l 0,-6.3623999 2.402399,0 c 2.243998,0 2.323201,0.6072012 2.4024,1.7952 0.1584,0.1583998 0.712801,0.1583998 0.8712,0 -0.0264,-0.9239991 -0.0528,-1.4256009 -0.0528,-2.3232 0,-0.8975991 0.0264,-1.4784011 0.0528,-2.2704001 -0.158399,-0.1584 -0.7128,-0.1584 -0.8712,0 -0.0792,1.4519987 -0.158402,1.7952001 -2.4024,1.7952001"
           id="path2915"
           style="font-size:26.39999962px;font-variant:normal;font-weight:normal;writing-mode:lr-tb;fill:#000000;fill-opacity:1;fill-rule:nonzero;stroke:none;font-family:Linux Libertine O;-inkscape-font-specification:LinuxLibertineO" />
        <path
           d="m 42.768,-3.2208 0,-4.4615999 c 2.217598,0 2.692801,0.3960006 3.0888,1.0032 L 48.6816,-2.0856 c 0.7392,1.24079877 1.900802,2.3496 3.4848,2.3496 0.396,0 0.8448,-0.0528001 1.1088,-0.1848 0.0792,-0.15839984 0.0792,-0.42240021 -0.0264,-0.63359999 -1.187999,0 -1.848,-0.87120111 -2.5344,-2.03280001 L 47.388,-8.1311999 c 1.135199,-0.3695996 3.5112,-1.7424027 3.5112,-4.5144001 0,-1.319998 -0.448801,-2.402401 -1.3992,-3.3 -1.267198,-1.187999 -2.904001,-1.2672 -4.5672,-1.2672 -0.659999,0 -2.296801,0.1848 -3.3,0.1848 -1.319998,0 -2.085601,-0.0264 -3.4056,-0.0528 -0.158399,0.1584 -0.158399,0.7128 0,0.8712 1.847999,0.0792 2.2968,0.211202 2.2968,2.4024 l 0,10.5864 c 0,2.1911978 -0.448801,2.32320009 -2.2968,2.40240001 -0.158399,0.15839984 -0.158399,0.71280015 0,0.87119999 C 39.520799,0.02640003 40.312802,0 41.6592,0 c 1.319999,0 2.085602,0.02640003 3.4056,0.0528 0.1584,-0.15839984 0.1584,-0.71280015 0,-0.87119999 C 43.216802,-0.89759991 42.768,-1.0296022 42.768,-3.2208 m 2.1912,-13.0944 c 1.610399,0 3.5112,0.580803 3.5112,3.696 0,3.2999968 -1.874402,4.0392001 -4.4352,4.0392001 l -1.2672,0 0,-6.0456001 c 0,-0.765599 0.316802,-1.6896 2.1912,-1.6896"
           id="path2917"
           style="font-size:26.39999962px;font-variant:normal;font-weight:normal;writing-mode:lr-tb;fill:#000000;fill-opacity:1;fill-rule:nonzero;stroke:none;font-family:Linux Libertine O;-inkscape-font-specification:LinuxLibertineO" />
        <path
           d="m 62.5152,-3.2208 0,-11.1408 c 0,-0.897599 0.528001,-1.6368 1.4784,-1.6368 l 1.6368,0 c 1.451998,0 1.6368,0.422402 2.0856,2.4552 0.290399,0 0.5808,0.0264 0.8976,-0.132 -0.2112,-1.346398 -0.3432,-2.772001 -0.3432,-4.0656 -0.264,0.0264 -0.528001,0.0264 -0.792,0.1056 0,0.1584 -0.0264,0.6072 -0.5808,0.6072 l -11.484,0 c -0.5544,0 -0.5544,-0.4488 -0.5544,-0.6072 -0.2112,-0.0528 -0.422401,-0.132 -0.8184,-0.1056 -0.1056,1.293599 -0.264,2.666402 -0.5808,4.0656 0.2376,0.132 0.5544,0.1584 0.8976,0.132 0.527999,-2.111998 0.871201,-2.4552 2.3232,-2.4552 l 2.0856,0 c 0.976799,0 1.5048,0.739201 1.5048,1.5576 l 0,11.22 c 0,2.1911978 -0.448802,2.32320009 -2.5608,2.40240001 -0.1584,0.15839984 -0.1584,0.71280015 0,0.87119999 C 59.003999,0.02640003 59.954401,0 61.4064,0 c 1.425598,0 2.349601,0.02640003 3.6696,0.0528 0.1584,-0.15839984 0.1584,-0.71280015 0,-0.87119999 C 62.964002,-0.89759991 62.5152,-1.0296022 62.5152,-3.2208"
           id="path2919"
           style="font-size:26.39999962px;font-variant:normal;font-weight:normal;writing-mode:lr-tb;fill:#000000;fill-opacity:1;fill-rule:nonzero;stroke:none;font-family:Linux Libertine O;-inkscape-font-specification:LinuxLibertineO" />
        <path
           d="m 73.893596,-3.2208 0,-10.5864 c 0,-2.191198 0.448802,-2.3232 2.2968,-2.4024 0.1584,-0.1584 0.1584,-0.7128 0,-0.8712 -1.293599,0.0264 -2.085601,0.0528 -3.432,0.0528 -1.319998,0 -2.085601,-0.0264 -3.4056,-0.0528 -0.1584,0.1584 -0.1584,0.7128 0,0.8712 1.847998,0.0792 2.2968,0.211202 2.2968,2.4024 l 0,10.5864 c 0,2.1911978 -0.448802,2.32320009 -2.2968,2.40240001 -0.1584,0.15839984 -0.1584,0.71280015 0,0.87119999 C 70.646395,0.02640003 71.438398,0 72.784796,0 c 1.319999,0 2.085602,0.02640003 3.4056,0.0528 0.1584,-0.15839984 0.1584,-0.71280015 0,-0.87119999 -1.847998,-0.0791999 -2.2968,-0.21120221 -2.2968,-2.40240001"
           id="path2921"
           style="font-size:26.39999962px;font-variant:normal;font-weight:normal;writing-mode:lr-tb;fill:#000000;fill-opacity:1;fill-rule:nonzero;stroke:none;font-family:Linux Libertine O;-inkscape-font-specification:LinuxLibertineO" />
        <path
           d="m 91.317598,-13.5168 0,8.8176001 c 0,0.5015995 0,0.792 -0.1848,0.792 -0.2112,0 -0.501601,-0.475201 -1.2672,-1.452 l -9.0552,-11.6688001 -3.564,-0.0528 c -0.1584,0.1584 -0.1584,0.7128 0,0.8712 1.135199,0.0792 1.9272,1.003201 2.0856,1.6896 l 0,11.0088001 c 0,2.3495976 -0.448802,2.5080001 -2.2968,2.69279991 -0.1584,0.15839984 -0.1584,0.71280015 0,0.87119999 C 78.328797,0.02640003 78.830399,0 79.991998,0 c 1.135199,0 1.610402,0.02640003 2.9304,0.0528 0.1584,-0.15839984 0.1584,-0.71280015 0,-0.87119999 -1.847998,-0.18479981 -2.2968,-0.29040241 -2.2968,-2.69279991 l 0,-8.0784001 c 0,-0.897599 0,-1.2936 0.2112,-1.2936 0.1584,0 0.448801,0.290401 0.8976,0.8712 l 9.2136,11.64240001 C 91.238398,0.0263996 91.581599,0.264 92.003998,0.264 c 0.3696,0 0.6072,-0.3168005 0.6072,-0.81839999 l 0,-12.96240001 c 0,-2.349597 0.448802,-2.508 2.2968,-2.6928 0.1584,-0.1584 0.1584,-0.7128 0,-0.8712 -1.293599,0.0264 -1.795201,0.0528 -2.9568,0.0528 -1.135199,0 -1.610401,-0.0264 -2.9304,-0.0528 -0.1584,0.1584 -0.1584,0.7128 0,0.8712 1.847998,0.1848 2.2968,0.290403 2.2968,2.6928"
           id="path2923"
           style="font-size:26.39999962px;font-variant:normal;font-weight:normal;writing-mode:lr-tb;fill:#000000;fill-opacity:1;fill-rule:nonzero;stroke:none;font-family:Linux Libertine O;-inkscape-font-specification:LinuxLibertineO" />
        <path
           d="m 102.3264,-9.5303999 -2.402398,0 0,-5.2800001 c 0,-0.633599 0.316798,-1.1616 0.950398,-1.1616 l 2.772,0 c 1.98,0 2.4024,1.056002 2.9832,2.8776 0.3168,0.0528 0.6072,0 0.8712,-0.132 -0.132,-1.082399 -0.528,-3.6168 -0.5808,-3.828 0,-0.0528 -0.0264,-0.0792 -0.1056,-0.0792 -0.4488,0.0792 -0.66,0.1056 -1.2936,0.1056 l -6.731998,0 c 0,0 -2.085602,-0.0264 -3.4056,-0.0528 -0.1584,0.1584 -0.1584,0.7128 0,0.8712 1.847998,0.0792 2.2968,0.211202 2.2968,2.4024 l 0,10.5864 c 0,2.1911978 -0.448802,2.32320009 -2.2968,2.40240001 -0.1584,0.15839984 -0.1584,0.71280015 0,0.87119999 C 96.6768,0.02640003 98.815202,0 98.815202,0 l 5.675998,0 c 1.2672,0 3.3792,0.0528 3.3792,0.0528 0.3696,-1.3199987 0.7656,-3.0624013 0.9768,-4.4087999 -0.2904,-0.1319999 -0.5808,-0.2112 -0.924,-0.132 -0.528,1.900798 -1.452,3.4583999 -3.4584,3.4583999 l -3.5904,0 c -0.5808,0 -0.950398,-0.4224007 -0.950398,-1.1352 l 0,-6.3623999 2.402398,0 c 2.244,0 2.3232,0.6072012 2.4024,1.7952 0.1584,0.1583998 0.7128,0.1583998 0.8712,0 -0.0264,-0.9239991 -0.0528,-1.4256009 -0.0528,-2.3232 0,-0.8975991 0.0264,-1.4784011 0.0528,-2.2704001 -0.1584,-0.1584 -0.7128,-0.1584 -0.8712,0 -0.0792,1.4519987 -0.1584,1.7952001 -2.4024,1.7952001"
           id="path2925"
           style="font-size:26.39999962px;font-variant:normal;font-weight:normal;writing-mode:lr-tb;fill:#000000;fill-opacity:1;fill-rule:nonzero;stroke:none;font-family:Linux Libertine O;-inkscape-font-specification:LinuxLibertineO" />
      </g>
    </g>
  </g>
</svg>
